%TF.GenerationSoftware,KiCad,Pcbnew,7.0.7-rc1*%
%TF.CreationDate,2024-03-12T16:47:17-04:00*%
%TF.ProjectId,Moving,4d6f7669-6e67-42e6-9b69-6361645f7063,rev?*%
%TF.SameCoordinates,Original*%
%TF.FileFunction,Paste,Bot*%
%TF.FilePolarity,Positive*%
%FSLAX46Y46*%
G04 Gerber Fmt 4.6, Leading zero omitted, Abs format (unit mm)*
G04 Created by KiCad (PCBNEW 7.0.7-rc1) date 2024-03-12 16:47:17*
%MOMM*%
%LPD*%
G01*
G04 APERTURE LIST*
G04 Aperture macros list*
%AMRoundRect*
0 Rectangle with rounded corners*
0 $1 Rounding radius*
0 $2 $3 $4 $5 $6 $7 $8 $9 X,Y pos of 4 corners*
0 Add a 4 corners polygon primitive as box body*
4,1,4,$2,$3,$4,$5,$6,$7,$8,$9,$2,$3,0*
0 Add four circle primitives for the rounded corners*
1,1,$1+$1,$2,$3*
1,1,$1+$1,$4,$5*
1,1,$1+$1,$6,$7*
1,1,$1+$1,$8,$9*
0 Add four rect primitives between the rounded corners*
20,1,$1+$1,$2,$3,$4,$5,0*
20,1,$1+$1,$4,$5,$6,$7,0*
20,1,$1+$1,$6,$7,$8,$9,0*
20,1,$1+$1,$8,$9,$2,$3,0*%
G04 Aperture macros list end*
%ADD10RoundRect,0.250000X-0.262500X-0.450000X0.262500X-0.450000X0.262500X0.450000X-0.262500X0.450000X0*%
%ADD11R,1.500000X0.650000*%
%ADD12RoundRect,0.250000X0.475000X-0.250000X0.475000X0.250000X-0.475000X0.250000X-0.475000X-0.250000X0*%
%ADD13RoundRect,0.250000X-0.250000X-0.475000X0.250000X-0.475000X0.250000X0.475000X-0.250000X0.475000X0*%
%ADD14RoundRect,0.150000X-0.150000X-0.700000X0.150000X-0.700000X0.150000X0.700000X-0.150000X0.700000X0*%
%ADD15RoundRect,0.250000X-0.250000X-1.150000X0.250000X-1.150000X0.250000X1.150000X-0.250000X1.150000X0*%
%ADD16RoundRect,0.250000X0.262500X0.450000X-0.262500X0.450000X-0.262500X-0.450000X0.262500X-0.450000X0*%
%ADD17R,0.203200X0.762000*%
%ADD18R,0.762000X0.203200*%
%ADD19R,1.803400X1.803400*%
G04 APERTURE END LIST*
D10*
%TO.C,R1*%
X137275000Y-109100000D03*
X139100000Y-109100000D03*
%TD*%
D11*
%TO.C,IC1*%
X142300000Y-63505000D03*
X142300000Y-62235000D03*
X142300000Y-60965000D03*
X142300000Y-59695000D03*
X147700000Y-59695000D03*
X147700000Y-60965000D03*
X147700000Y-62235000D03*
X147700000Y-63505000D03*
%TD*%
D12*
%TO.C,C5*%
X140100000Y-61655000D03*
X140100000Y-59755000D03*
%TD*%
D10*
%TO.C,R6*%
X142362500Y-116300000D03*
X144187500Y-116300000D03*
%TD*%
D13*
%TO.C,C3*%
X127100000Y-117900000D03*
X129000000Y-117900000D03*
%TD*%
D10*
%TO.C,R2*%
X137275000Y-111200000D03*
X139100000Y-111200000D03*
%TD*%
D14*
%TO.C,J3*%
X118075000Y-58300000D03*
X119325000Y-58300000D03*
X120575000Y-58300000D03*
X121825000Y-58300000D03*
X123075000Y-58300000D03*
X124325000Y-58300000D03*
D15*
X116225000Y-61650000D03*
X126175000Y-61650000D03*
%TD*%
D16*
%TO.C,R9*%
X145812500Y-57705000D03*
X143987500Y-57705000D03*
%TD*%
D10*
%TO.C,R3*%
X137275000Y-113400000D03*
X139100000Y-113400000D03*
%TD*%
D17*
%TO.C,U1*%
X130799998Y-109977601D03*
X131200000Y-109977601D03*
X131599999Y-109977601D03*
X131999998Y-109977601D03*
X132400000Y-109977601D03*
D18*
X133022399Y-110600000D03*
X133022399Y-111000002D03*
X133022399Y-111400001D03*
X133022399Y-111800000D03*
X133022399Y-112200002D03*
D17*
X132400000Y-112822401D03*
X131999998Y-112822401D03*
X131599999Y-112822401D03*
X131200000Y-112822401D03*
X130799998Y-112822401D03*
D18*
X130177599Y-112200002D03*
X130177599Y-111800000D03*
X130177599Y-111400001D03*
X130177599Y-111000002D03*
X130177599Y-110600000D03*
D19*
X131599999Y-111400001D03*
%TD*%
D10*
%TO.C,R7*%
X129187500Y-115700000D03*
X131012500Y-115700000D03*
%TD*%
D12*
%TO.C,C2*%
X127800000Y-110700000D03*
X127800000Y-108800000D03*
%TD*%
D16*
%TO.C,R8*%
X146012500Y-65505000D03*
X144187500Y-65505000D03*
%TD*%
D12*
%TO.C,C4*%
X137900000Y-61655000D03*
X137900000Y-59755000D03*
%TD*%
D10*
%TO.C,R4*%
X142387500Y-112000000D03*
X144212500Y-112000000D03*
%TD*%
%TO.C,R5*%
X142387500Y-114200000D03*
X144212500Y-114200000D03*
%TD*%
D13*
%TO.C,C1*%
X132800000Y-115700000D03*
X134700000Y-115700000D03*
%TD*%
M02*
