%TF.GenerationSoftware,KiCad,Pcbnew,7.0.7-rc1*%
%TF.CreationDate,2024-03-12T16:47:17-04:00*%
%TF.ProjectId,Moving,4d6f7669-6e67-42e6-9b69-6361645f7063,rev?*%
%TF.SameCoordinates,Original*%
%TF.FileFunction,Legend,Bot*%
%TF.FilePolarity,Positive*%
%FSLAX46Y46*%
G04 Gerber Fmt 4.6, Leading zero omitted, Abs format (unit mm)*
G04 Created by KiCad (PCBNEW 7.0.7-rc1) date 2024-03-12 16:47:17*
%MOMM*%
%LPD*%
G01*
G04 APERTURE LIST*
%ADD10C,0.150000*%
%ADD11C,0.254000*%
%ADD12C,0.120000*%
%ADD13C,0.200000*%
%ADD14C,0.152400*%
G04 APERTURE END LIST*
D10*
X131977506Y-69042676D02*
X132167982Y-68947438D01*
X132167982Y-68947438D02*
X132453696Y-68947438D01*
X132453696Y-68947438D02*
X132739411Y-69042676D01*
X132739411Y-69042676D02*
X132929887Y-69233152D01*
X132929887Y-69233152D02*
X133025125Y-69423628D01*
X133025125Y-69423628D02*
X133120363Y-69804580D01*
X133120363Y-69804580D02*
X133120363Y-70090295D01*
X133120363Y-70090295D02*
X133025125Y-70471247D01*
X133025125Y-70471247D02*
X132929887Y-70661723D01*
X132929887Y-70661723D02*
X132739411Y-70852200D01*
X132739411Y-70852200D02*
X132453696Y-70947438D01*
X132453696Y-70947438D02*
X132263220Y-70947438D01*
X132263220Y-70947438D02*
X131977506Y-70852200D01*
X131977506Y-70852200D02*
X131882268Y-70756961D01*
X131882268Y-70756961D02*
X131882268Y-70090295D01*
X131882268Y-70090295D02*
X132263220Y-70090295D01*
X131025125Y-70947438D02*
X131025125Y-68947438D01*
X131025125Y-68947438D02*
X129882268Y-70947438D01*
X129882268Y-70947438D02*
X129882268Y-68947438D01*
X128929887Y-70947438D02*
X128929887Y-68947438D01*
X128929887Y-68947438D02*
X128453697Y-68947438D01*
X128453697Y-68947438D02*
X128167982Y-69042676D01*
X128167982Y-69042676D02*
X127977506Y-69233152D01*
X127977506Y-69233152D02*
X127882268Y-69423628D01*
X127882268Y-69423628D02*
X127787030Y-69804580D01*
X127787030Y-69804580D02*
X127787030Y-70090295D01*
X127787030Y-70090295D02*
X127882268Y-70471247D01*
X127882268Y-70471247D02*
X127977506Y-70661723D01*
X127977506Y-70661723D02*
X128167982Y-70852200D01*
X128167982Y-70852200D02*
X128453697Y-70947438D01*
X128453697Y-70947438D02*
X128929887Y-70947438D01*
X154059524Y-125399819D02*
X154059524Y-124399819D01*
X154059524Y-124399819D02*
X153678572Y-124399819D01*
X153678572Y-124399819D02*
X153583334Y-124447438D01*
X153583334Y-124447438D02*
X153535715Y-124495057D01*
X153535715Y-124495057D02*
X153488096Y-124590295D01*
X153488096Y-124590295D02*
X153488096Y-124733152D01*
X153488096Y-124733152D02*
X153535715Y-124828390D01*
X153535715Y-124828390D02*
X153583334Y-124876009D01*
X153583334Y-124876009D02*
X153678572Y-124923628D01*
X153678572Y-124923628D02*
X154059524Y-124923628D01*
X152678572Y-125352200D02*
X152773810Y-125399819D01*
X152773810Y-125399819D02*
X152964286Y-125399819D01*
X152964286Y-125399819D02*
X153059524Y-125352200D01*
X153059524Y-125352200D02*
X153107143Y-125256961D01*
X153107143Y-125256961D02*
X153107143Y-124876009D01*
X153107143Y-124876009D02*
X153059524Y-124780771D01*
X153059524Y-124780771D02*
X152964286Y-124733152D01*
X152964286Y-124733152D02*
X152773810Y-124733152D01*
X152773810Y-124733152D02*
X152678572Y-124780771D01*
X152678572Y-124780771D02*
X152630953Y-124876009D01*
X152630953Y-124876009D02*
X152630953Y-124971247D01*
X152630953Y-124971247D02*
X153107143Y-125066485D01*
X151773810Y-124733152D02*
X151773810Y-125542676D01*
X151773810Y-125542676D02*
X151821429Y-125637914D01*
X151821429Y-125637914D02*
X151869048Y-125685533D01*
X151869048Y-125685533D02*
X151964286Y-125733152D01*
X151964286Y-125733152D02*
X152107143Y-125733152D01*
X152107143Y-125733152D02*
X152202381Y-125685533D01*
X151773810Y-125352200D02*
X151869048Y-125399819D01*
X151869048Y-125399819D02*
X152059524Y-125399819D01*
X152059524Y-125399819D02*
X152154762Y-125352200D01*
X152154762Y-125352200D02*
X152202381Y-125304580D01*
X152202381Y-125304580D02*
X152250000Y-125209342D01*
X152250000Y-125209342D02*
X152250000Y-124923628D01*
X152250000Y-124923628D02*
X152202381Y-124828390D01*
X152202381Y-124828390D02*
X152154762Y-124780771D01*
X152154762Y-124780771D02*
X152059524Y-124733152D01*
X152059524Y-124733152D02*
X151869048Y-124733152D01*
X151869048Y-124733152D02*
X151773810Y-124780771D01*
X150869048Y-125399819D02*
X150869048Y-124876009D01*
X150869048Y-124876009D02*
X150916667Y-124780771D01*
X150916667Y-124780771D02*
X151011905Y-124733152D01*
X151011905Y-124733152D02*
X151202381Y-124733152D01*
X151202381Y-124733152D02*
X151297619Y-124780771D01*
X150869048Y-125352200D02*
X150964286Y-125399819D01*
X150964286Y-125399819D02*
X151202381Y-125399819D01*
X151202381Y-125399819D02*
X151297619Y-125352200D01*
X151297619Y-125352200D02*
X151345238Y-125256961D01*
X151345238Y-125256961D02*
X151345238Y-125161723D01*
X151345238Y-125161723D02*
X151297619Y-125066485D01*
X151297619Y-125066485D02*
X151202381Y-125018866D01*
X151202381Y-125018866D02*
X150964286Y-125018866D01*
X150964286Y-125018866D02*
X150869048Y-124971247D01*
X150392857Y-125399819D02*
X150392857Y-124733152D01*
X150392857Y-124923628D02*
X150345238Y-124828390D01*
X150345238Y-124828390D02*
X150297619Y-124780771D01*
X150297619Y-124780771D02*
X150202381Y-124733152D01*
X150202381Y-124733152D02*
X150107143Y-124733152D01*
X149345238Y-125399819D02*
X149345238Y-124399819D01*
X149345238Y-125352200D02*
X149440476Y-125399819D01*
X149440476Y-125399819D02*
X149630952Y-125399819D01*
X149630952Y-125399819D02*
X149726190Y-125352200D01*
X149726190Y-125352200D02*
X149773809Y-125304580D01*
X149773809Y-125304580D02*
X149821428Y-125209342D01*
X149821428Y-125209342D02*
X149821428Y-124923628D01*
X149821428Y-124923628D02*
X149773809Y-124828390D01*
X149773809Y-124828390D02*
X149726190Y-124780771D01*
X149726190Y-124780771D02*
X149630952Y-124733152D01*
X149630952Y-124733152D02*
X149440476Y-124733152D01*
X149440476Y-124733152D02*
X149345238Y-124780771D01*
X147297618Y-125399819D02*
X147345238Y-125399819D01*
X147345238Y-125399819D02*
X147440476Y-125352200D01*
X147440476Y-125352200D02*
X147583333Y-125209342D01*
X147583333Y-125209342D02*
X147821428Y-124923628D01*
X147821428Y-124923628D02*
X147916666Y-124780771D01*
X147916666Y-124780771D02*
X147964285Y-124637914D01*
X147964285Y-124637914D02*
X147964285Y-124542676D01*
X147964285Y-124542676D02*
X147916666Y-124447438D01*
X147916666Y-124447438D02*
X147821428Y-124399819D01*
X147821428Y-124399819D02*
X147773809Y-124399819D01*
X147773809Y-124399819D02*
X147678571Y-124447438D01*
X147678571Y-124447438D02*
X147630952Y-124542676D01*
X147630952Y-124542676D02*
X147630952Y-124590295D01*
X147630952Y-124590295D02*
X147678571Y-124685533D01*
X147678571Y-124685533D02*
X147726190Y-124733152D01*
X147726190Y-124733152D02*
X148011904Y-124923628D01*
X148011904Y-124923628D02*
X148059523Y-124971247D01*
X148059523Y-124971247D02*
X148107142Y-125066485D01*
X148107142Y-125066485D02*
X148107142Y-125209342D01*
X148107142Y-125209342D02*
X148059523Y-125304580D01*
X148059523Y-125304580D02*
X148011904Y-125352200D01*
X148011904Y-125352200D02*
X147916666Y-125399819D01*
X147916666Y-125399819D02*
X147773809Y-125399819D01*
X147773809Y-125399819D02*
X147678571Y-125352200D01*
X147678571Y-125352200D02*
X147630952Y-125304580D01*
X147630952Y-125304580D02*
X147488095Y-125114104D01*
X147488095Y-125114104D02*
X147440476Y-124971247D01*
X147440476Y-124971247D02*
X147440476Y-124876009D01*
X145535714Y-125399819D02*
X145869047Y-124923628D01*
X146107142Y-125399819D02*
X146107142Y-124399819D01*
X146107142Y-124399819D02*
X145726190Y-124399819D01*
X145726190Y-124399819D02*
X145630952Y-124447438D01*
X145630952Y-124447438D02*
X145583333Y-124495057D01*
X145583333Y-124495057D02*
X145535714Y-124590295D01*
X145535714Y-124590295D02*
X145535714Y-124733152D01*
X145535714Y-124733152D02*
X145583333Y-124828390D01*
X145583333Y-124828390D02*
X145630952Y-124876009D01*
X145630952Y-124876009D02*
X145726190Y-124923628D01*
X145726190Y-124923628D02*
X146107142Y-124923628D01*
X144964285Y-125399819D02*
X145059523Y-125352200D01*
X145059523Y-125352200D02*
X145107142Y-125304580D01*
X145107142Y-125304580D02*
X145154761Y-125209342D01*
X145154761Y-125209342D02*
X145154761Y-124923628D01*
X145154761Y-124923628D02*
X145107142Y-124828390D01*
X145107142Y-124828390D02*
X145059523Y-124780771D01*
X145059523Y-124780771D02*
X144964285Y-124733152D01*
X144964285Y-124733152D02*
X144821428Y-124733152D01*
X144821428Y-124733152D02*
X144726190Y-124780771D01*
X144726190Y-124780771D02*
X144678571Y-124828390D01*
X144678571Y-124828390D02*
X144630952Y-124923628D01*
X144630952Y-124923628D02*
X144630952Y-125209342D01*
X144630952Y-125209342D02*
X144678571Y-125304580D01*
X144678571Y-125304580D02*
X144726190Y-125352200D01*
X144726190Y-125352200D02*
X144821428Y-125399819D01*
X144821428Y-125399819D02*
X144964285Y-125399819D01*
X143773809Y-125399819D02*
X143773809Y-124399819D01*
X143773809Y-125352200D02*
X143869047Y-125399819D01*
X143869047Y-125399819D02*
X144059523Y-125399819D01*
X144059523Y-125399819D02*
X144154761Y-125352200D01*
X144154761Y-125352200D02*
X144202380Y-125304580D01*
X144202380Y-125304580D02*
X144249999Y-125209342D01*
X144249999Y-125209342D02*
X144249999Y-124923628D01*
X144249999Y-124923628D02*
X144202380Y-124828390D01*
X144202380Y-124828390D02*
X144154761Y-124780771D01*
X144154761Y-124780771D02*
X144059523Y-124733152D01*
X144059523Y-124733152D02*
X143869047Y-124733152D01*
X143869047Y-124733152D02*
X143773809Y-124780771D01*
X143297618Y-125399819D02*
X143297618Y-124733152D01*
X143297618Y-124923628D02*
X143249999Y-124828390D01*
X143249999Y-124828390D02*
X143202380Y-124780771D01*
X143202380Y-124780771D02*
X143107142Y-124733152D01*
X143107142Y-124733152D02*
X143011904Y-124733152D01*
X142678570Y-125399819D02*
X142678570Y-124733152D01*
X142678570Y-124399819D02*
X142726189Y-124447438D01*
X142726189Y-124447438D02*
X142678570Y-124495057D01*
X142678570Y-124495057D02*
X142630951Y-124447438D01*
X142630951Y-124447438D02*
X142678570Y-124399819D01*
X142678570Y-124399819D02*
X142678570Y-124495057D01*
X141773809Y-124733152D02*
X141773809Y-125542676D01*
X141773809Y-125542676D02*
X141821428Y-125637914D01*
X141821428Y-125637914D02*
X141869047Y-125685533D01*
X141869047Y-125685533D02*
X141964285Y-125733152D01*
X141964285Y-125733152D02*
X142107142Y-125733152D01*
X142107142Y-125733152D02*
X142202380Y-125685533D01*
X141773809Y-125352200D02*
X141869047Y-125399819D01*
X141869047Y-125399819D02*
X142059523Y-125399819D01*
X142059523Y-125399819D02*
X142154761Y-125352200D01*
X142154761Y-125352200D02*
X142202380Y-125304580D01*
X142202380Y-125304580D02*
X142249999Y-125209342D01*
X142249999Y-125209342D02*
X142249999Y-124923628D01*
X142249999Y-124923628D02*
X142202380Y-124828390D01*
X142202380Y-124828390D02*
X142154761Y-124780771D01*
X142154761Y-124780771D02*
X142059523Y-124733152D01*
X142059523Y-124733152D02*
X141869047Y-124733152D01*
X141869047Y-124733152D02*
X141773809Y-124780771D01*
X140869047Y-124733152D02*
X140869047Y-125399819D01*
X141297618Y-124733152D02*
X141297618Y-125256961D01*
X141297618Y-125256961D02*
X141249999Y-125352200D01*
X141249999Y-125352200D02*
X141154761Y-125399819D01*
X141154761Y-125399819D02*
X141011904Y-125399819D01*
X141011904Y-125399819D02*
X140916666Y-125352200D01*
X140916666Y-125352200D02*
X140869047Y-125304580D01*
X140011904Y-125352200D02*
X140107142Y-125399819D01*
X140107142Y-125399819D02*
X140297618Y-125399819D01*
X140297618Y-125399819D02*
X140392856Y-125352200D01*
X140392856Y-125352200D02*
X140440475Y-125256961D01*
X140440475Y-125256961D02*
X140440475Y-124876009D01*
X140440475Y-124876009D02*
X140392856Y-124780771D01*
X140392856Y-124780771D02*
X140297618Y-124733152D01*
X140297618Y-124733152D02*
X140107142Y-124733152D01*
X140107142Y-124733152D02*
X140011904Y-124780771D01*
X140011904Y-124780771D02*
X139964285Y-124876009D01*
X139964285Y-124876009D02*
X139964285Y-124971247D01*
X139964285Y-124971247D02*
X140440475Y-125066485D01*
X139630951Y-124733152D02*
X139107142Y-124733152D01*
X139107142Y-124733152D02*
X139630951Y-125399819D01*
X139630951Y-125399819D02*
X139107142Y-125399819D01*
X138726189Y-125018866D02*
X137964285Y-125018866D01*
X136916666Y-125399819D02*
X137249999Y-124923628D01*
X137488094Y-125399819D02*
X137488094Y-124399819D01*
X137488094Y-124399819D02*
X137107142Y-124399819D01*
X137107142Y-124399819D02*
X137011904Y-124447438D01*
X137011904Y-124447438D02*
X136964285Y-124495057D01*
X136964285Y-124495057D02*
X136916666Y-124590295D01*
X136916666Y-124590295D02*
X136916666Y-124733152D01*
X136916666Y-124733152D02*
X136964285Y-124828390D01*
X136964285Y-124828390D02*
X137011904Y-124876009D01*
X137011904Y-124876009D02*
X137107142Y-124923628D01*
X137107142Y-124923628D02*
X137488094Y-124923628D01*
X136345237Y-125399819D02*
X136440475Y-125352200D01*
X136440475Y-125352200D02*
X136488094Y-125304580D01*
X136488094Y-125304580D02*
X136535713Y-125209342D01*
X136535713Y-125209342D02*
X136535713Y-124923628D01*
X136535713Y-124923628D02*
X136488094Y-124828390D01*
X136488094Y-124828390D02*
X136440475Y-124780771D01*
X136440475Y-124780771D02*
X136345237Y-124733152D01*
X136345237Y-124733152D02*
X136202380Y-124733152D01*
X136202380Y-124733152D02*
X136107142Y-124780771D01*
X136107142Y-124780771D02*
X136059523Y-124828390D01*
X136059523Y-124828390D02*
X136011904Y-124923628D01*
X136011904Y-124923628D02*
X136011904Y-125209342D01*
X136011904Y-125209342D02*
X136059523Y-125304580D01*
X136059523Y-125304580D02*
X136107142Y-125352200D01*
X136107142Y-125352200D02*
X136202380Y-125399819D01*
X136202380Y-125399819D02*
X136345237Y-125399819D01*
X135583332Y-125399819D02*
X135583332Y-124733152D01*
X135583332Y-124828390D02*
X135535713Y-124780771D01*
X135535713Y-124780771D02*
X135440475Y-124733152D01*
X135440475Y-124733152D02*
X135297618Y-124733152D01*
X135297618Y-124733152D02*
X135202380Y-124780771D01*
X135202380Y-124780771D02*
X135154761Y-124876009D01*
X135154761Y-124876009D02*
X135154761Y-125399819D01*
X135154761Y-124876009D02*
X135107142Y-124780771D01*
X135107142Y-124780771D02*
X135011904Y-124733152D01*
X135011904Y-124733152D02*
X134869047Y-124733152D01*
X134869047Y-124733152D02*
X134773808Y-124780771D01*
X134773808Y-124780771D02*
X134726189Y-124876009D01*
X134726189Y-124876009D02*
X134726189Y-125399819D01*
X133821428Y-125399819D02*
X133821428Y-124876009D01*
X133821428Y-124876009D02*
X133869047Y-124780771D01*
X133869047Y-124780771D02*
X133964285Y-124733152D01*
X133964285Y-124733152D02*
X134154761Y-124733152D01*
X134154761Y-124733152D02*
X134249999Y-124780771D01*
X133821428Y-125352200D02*
X133916666Y-125399819D01*
X133916666Y-125399819D02*
X134154761Y-125399819D01*
X134154761Y-125399819D02*
X134249999Y-125352200D01*
X134249999Y-125352200D02*
X134297618Y-125256961D01*
X134297618Y-125256961D02*
X134297618Y-125161723D01*
X134297618Y-125161723D02*
X134249999Y-125066485D01*
X134249999Y-125066485D02*
X134154761Y-125018866D01*
X134154761Y-125018866D02*
X133916666Y-125018866D01*
X133916666Y-125018866D02*
X133821428Y-124971247D01*
X132916666Y-124733152D02*
X132916666Y-125542676D01*
X132916666Y-125542676D02*
X132964285Y-125637914D01*
X132964285Y-125637914D02*
X133011904Y-125685533D01*
X133011904Y-125685533D02*
X133107142Y-125733152D01*
X133107142Y-125733152D02*
X133249999Y-125733152D01*
X133249999Y-125733152D02*
X133345237Y-125685533D01*
X132916666Y-125352200D02*
X133011904Y-125399819D01*
X133011904Y-125399819D02*
X133202380Y-125399819D01*
X133202380Y-125399819D02*
X133297618Y-125352200D01*
X133297618Y-125352200D02*
X133345237Y-125304580D01*
X133345237Y-125304580D02*
X133392856Y-125209342D01*
X133392856Y-125209342D02*
X133392856Y-124923628D01*
X133392856Y-124923628D02*
X133345237Y-124828390D01*
X133345237Y-124828390D02*
X133297618Y-124780771D01*
X133297618Y-124780771D02*
X133202380Y-124733152D01*
X133202380Y-124733152D02*
X133011904Y-124733152D01*
X133011904Y-124733152D02*
X132916666Y-124780771D01*
X132011904Y-124733152D02*
X132011904Y-125399819D01*
X132440475Y-124733152D02*
X132440475Y-125256961D01*
X132440475Y-125256961D02*
X132392856Y-125352200D01*
X132392856Y-125352200D02*
X132297618Y-125399819D01*
X132297618Y-125399819D02*
X132154761Y-125399819D01*
X132154761Y-125399819D02*
X132059523Y-125352200D01*
X132059523Y-125352200D02*
X132011904Y-125304580D01*
X131154761Y-125352200D02*
X131249999Y-125399819D01*
X131249999Y-125399819D02*
X131440475Y-125399819D01*
X131440475Y-125399819D02*
X131535713Y-125352200D01*
X131535713Y-125352200D02*
X131583332Y-125256961D01*
X131583332Y-125256961D02*
X131583332Y-124876009D01*
X131583332Y-124876009D02*
X131535713Y-124780771D01*
X131535713Y-124780771D02*
X131440475Y-124733152D01*
X131440475Y-124733152D02*
X131249999Y-124733152D01*
X131249999Y-124733152D02*
X131154761Y-124780771D01*
X131154761Y-124780771D02*
X131107142Y-124876009D01*
X131107142Y-124876009D02*
X131107142Y-124971247D01*
X131107142Y-124971247D02*
X131583332Y-125066485D01*
X130678570Y-125399819D02*
X130678570Y-124733152D01*
X130678570Y-124923628D02*
X130630951Y-124828390D01*
X130630951Y-124828390D02*
X130583332Y-124780771D01*
X130583332Y-124780771D02*
X130488094Y-124733152D01*
X130488094Y-124733152D02*
X130392856Y-124733152D01*
X129630951Y-125399819D02*
X129630951Y-124876009D01*
X129630951Y-124876009D02*
X129678570Y-124780771D01*
X129678570Y-124780771D02*
X129773808Y-124733152D01*
X129773808Y-124733152D02*
X129964284Y-124733152D01*
X129964284Y-124733152D02*
X130059522Y-124780771D01*
X129630951Y-125352200D02*
X129726189Y-125399819D01*
X129726189Y-125399819D02*
X129964284Y-125399819D01*
X129964284Y-125399819D02*
X130059522Y-125352200D01*
X130059522Y-125352200D02*
X130107141Y-125256961D01*
X130107141Y-125256961D02*
X130107141Y-125161723D01*
X130107141Y-125161723D02*
X130059522Y-125066485D01*
X130059522Y-125066485D02*
X129964284Y-125018866D01*
X129964284Y-125018866D02*
X129726189Y-125018866D01*
X129726189Y-125018866D02*
X129630951Y-124971247D01*
X127916665Y-125399819D02*
X128392855Y-125399819D01*
X128392855Y-125399819D02*
X128392855Y-124399819D01*
X127154760Y-125399819D02*
X127154760Y-124876009D01*
X127154760Y-124876009D02*
X127202379Y-124780771D01*
X127202379Y-124780771D02*
X127297617Y-124733152D01*
X127297617Y-124733152D02*
X127488093Y-124733152D01*
X127488093Y-124733152D02*
X127583331Y-124780771D01*
X127154760Y-125352200D02*
X127249998Y-125399819D01*
X127249998Y-125399819D02*
X127488093Y-125399819D01*
X127488093Y-125399819D02*
X127583331Y-125352200D01*
X127583331Y-125352200D02*
X127630950Y-125256961D01*
X127630950Y-125256961D02*
X127630950Y-125161723D01*
X127630950Y-125161723D02*
X127583331Y-125066485D01*
X127583331Y-125066485D02*
X127488093Y-125018866D01*
X127488093Y-125018866D02*
X127249998Y-125018866D01*
X127249998Y-125018866D02*
X127154760Y-124971247D01*
X126678569Y-125399819D02*
X126678569Y-124399819D01*
X126678569Y-124780771D02*
X126583331Y-124733152D01*
X126583331Y-124733152D02*
X126392855Y-124733152D01*
X126392855Y-124733152D02*
X126297617Y-124780771D01*
X126297617Y-124780771D02*
X126249998Y-124828390D01*
X126249998Y-124828390D02*
X126202379Y-124923628D01*
X126202379Y-124923628D02*
X126202379Y-125209342D01*
X126202379Y-125209342D02*
X126249998Y-125304580D01*
X126249998Y-125304580D02*
X126297617Y-125352200D01*
X126297617Y-125352200D02*
X126392855Y-125399819D01*
X126392855Y-125399819D02*
X126583331Y-125399819D01*
X126583331Y-125399819D02*
X126678569Y-125352200D01*
X125821426Y-125352200D02*
X125726188Y-125399819D01*
X125726188Y-125399819D02*
X125535712Y-125399819D01*
X125535712Y-125399819D02*
X125440474Y-125352200D01*
X125440474Y-125352200D02*
X125392855Y-125256961D01*
X125392855Y-125256961D02*
X125392855Y-125209342D01*
X125392855Y-125209342D02*
X125440474Y-125114104D01*
X125440474Y-125114104D02*
X125535712Y-125066485D01*
X125535712Y-125066485D02*
X125678569Y-125066485D01*
X125678569Y-125066485D02*
X125773807Y-125018866D01*
X125773807Y-125018866D02*
X125821426Y-124923628D01*
X125821426Y-124923628D02*
X125821426Y-124876009D01*
X125821426Y-124876009D02*
X125773807Y-124780771D01*
X125773807Y-124780771D02*
X125678569Y-124733152D01*
X125678569Y-124733152D02*
X125535712Y-124733152D01*
X125535712Y-124733152D02*
X125440474Y-124780771D01*
X157678574Y-126009819D02*
X157107146Y-126009819D01*
X157392860Y-127009819D02*
X157392860Y-126009819D01*
X156773812Y-127009819D02*
X156773812Y-126009819D01*
X156345241Y-127009819D02*
X156345241Y-126486009D01*
X156345241Y-126486009D02*
X156392860Y-126390771D01*
X156392860Y-126390771D02*
X156488098Y-126343152D01*
X156488098Y-126343152D02*
X156630955Y-126343152D01*
X156630955Y-126343152D02*
X156726193Y-126390771D01*
X156726193Y-126390771D02*
X156773812Y-126438390D01*
X155488098Y-126962200D02*
X155583336Y-127009819D01*
X155583336Y-127009819D02*
X155773812Y-127009819D01*
X155773812Y-127009819D02*
X155869050Y-126962200D01*
X155869050Y-126962200D02*
X155916669Y-126866961D01*
X155916669Y-126866961D02*
X155916669Y-126486009D01*
X155916669Y-126486009D02*
X155869050Y-126390771D01*
X155869050Y-126390771D02*
X155773812Y-126343152D01*
X155773812Y-126343152D02*
X155583336Y-126343152D01*
X155583336Y-126343152D02*
X155488098Y-126390771D01*
X155488098Y-126390771D02*
X155440479Y-126486009D01*
X155440479Y-126486009D02*
X155440479Y-126581247D01*
X155440479Y-126581247D02*
X155916669Y-126676485D01*
X154250002Y-126009819D02*
X154250002Y-126819342D01*
X154250002Y-126819342D02*
X154202383Y-126914580D01*
X154202383Y-126914580D02*
X154154764Y-126962200D01*
X154154764Y-126962200D02*
X154059526Y-127009819D01*
X154059526Y-127009819D02*
X153869050Y-127009819D01*
X153869050Y-127009819D02*
X153773812Y-126962200D01*
X153773812Y-126962200D02*
X153726193Y-126914580D01*
X153726193Y-126914580D02*
X153678574Y-126819342D01*
X153678574Y-126819342D02*
X153678574Y-126009819D01*
X153202383Y-126343152D02*
X153202383Y-127009819D01*
X153202383Y-126438390D02*
X153154764Y-126390771D01*
X153154764Y-126390771D02*
X153059526Y-126343152D01*
X153059526Y-126343152D02*
X152916669Y-126343152D01*
X152916669Y-126343152D02*
X152821431Y-126390771D01*
X152821431Y-126390771D02*
X152773812Y-126486009D01*
X152773812Y-126486009D02*
X152773812Y-127009819D01*
X152297621Y-127009819D02*
X152297621Y-126343152D01*
X152297621Y-126009819D02*
X152345240Y-126057438D01*
X152345240Y-126057438D02*
X152297621Y-126105057D01*
X152297621Y-126105057D02*
X152250002Y-126057438D01*
X152250002Y-126057438D02*
X152297621Y-126009819D01*
X152297621Y-126009819D02*
X152297621Y-126105057D01*
X151916669Y-126343152D02*
X151678574Y-127009819D01*
X151678574Y-127009819D02*
X151440479Y-126343152D01*
X150678574Y-126962200D02*
X150773812Y-127009819D01*
X150773812Y-127009819D02*
X150964288Y-127009819D01*
X150964288Y-127009819D02*
X151059526Y-126962200D01*
X151059526Y-126962200D02*
X151107145Y-126866961D01*
X151107145Y-126866961D02*
X151107145Y-126486009D01*
X151107145Y-126486009D02*
X151059526Y-126390771D01*
X151059526Y-126390771D02*
X150964288Y-126343152D01*
X150964288Y-126343152D02*
X150773812Y-126343152D01*
X150773812Y-126343152D02*
X150678574Y-126390771D01*
X150678574Y-126390771D02*
X150630955Y-126486009D01*
X150630955Y-126486009D02*
X150630955Y-126581247D01*
X150630955Y-126581247D02*
X151107145Y-126676485D01*
X150202383Y-127009819D02*
X150202383Y-126343152D01*
X150202383Y-126533628D02*
X150154764Y-126438390D01*
X150154764Y-126438390D02*
X150107145Y-126390771D01*
X150107145Y-126390771D02*
X150011907Y-126343152D01*
X150011907Y-126343152D02*
X149916669Y-126343152D01*
X149630954Y-126962200D02*
X149535716Y-127009819D01*
X149535716Y-127009819D02*
X149345240Y-127009819D01*
X149345240Y-127009819D02*
X149250002Y-126962200D01*
X149250002Y-126962200D02*
X149202383Y-126866961D01*
X149202383Y-126866961D02*
X149202383Y-126819342D01*
X149202383Y-126819342D02*
X149250002Y-126724104D01*
X149250002Y-126724104D02*
X149345240Y-126676485D01*
X149345240Y-126676485D02*
X149488097Y-126676485D01*
X149488097Y-126676485D02*
X149583335Y-126628866D01*
X149583335Y-126628866D02*
X149630954Y-126533628D01*
X149630954Y-126533628D02*
X149630954Y-126486009D01*
X149630954Y-126486009D02*
X149583335Y-126390771D01*
X149583335Y-126390771D02*
X149488097Y-126343152D01*
X149488097Y-126343152D02*
X149345240Y-126343152D01*
X149345240Y-126343152D02*
X149250002Y-126390771D01*
X148773811Y-127009819D02*
X148773811Y-126343152D01*
X148773811Y-126009819D02*
X148821430Y-126057438D01*
X148821430Y-126057438D02*
X148773811Y-126105057D01*
X148773811Y-126105057D02*
X148726192Y-126057438D01*
X148726192Y-126057438D02*
X148773811Y-126009819D01*
X148773811Y-126009819D02*
X148773811Y-126105057D01*
X148440478Y-126343152D02*
X148059526Y-126343152D01*
X148297621Y-126009819D02*
X148297621Y-126866961D01*
X148297621Y-126866961D02*
X148250002Y-126962200D01*
X148250002Y-126962200D02*
X148154764Y-127009819D01*
X148154764Y-127009819D02*
X148059526Y-127009819D01*
X147821430Y-126343152D02*
X147583335Y-127009819D01*
X147345240Y-126343152D02*
X147583335Y-127009819D01*
X147583335Y-127009819D02*
X147678573Y-127247914D01*
X147678573Y-127247914D02*
X147726192Y-127295533D01*
X147726192Y-127295533D02*
X147821430Y-127343152D01*
X146059525Y-127009819D02*
X146154763Y-126962200D01*
X146154763Y-126962200D02*
X146202382Y-126914580D01*
X146202382Y-126914580D02*
X146250001Y-126819342D01*
X146250001Y-126819342D02*
X146250001Y-126533628D01*
X146250001Y-126533628D02*
X146202382Y-126438390D01*
X146202382Y-126438390D02*
X146154763Y-126390771D01*
X146154763Y-126390771D02*
X146059525Y-126343152D01*
X146059525Y-126343152D02*
X145916668Y-126343152D01*
X145916668Y-126343152D02*
X145821430Y-126390771D01*
X145821430Y-126390771D02*
X145773811Y-126438390D01*
X145773811Y-126438390D02*
X145726192Y-126533628D01*
X145726192Y-126533628D02*
X145726192Y-126819342D01*
X145726192Y-126819342D02*
X145773811Y-126914580D01*
X145773811Y-126914580D02*
X145821430Y-126962200D01*
X145821430Y-126962200D02*
X145916668Y-127009819D01*
X145916668Y-127009819D02*
X146059525Y-127009819D01*
X145440477Y-126343152D02*
X145059525Y-126343152D01*
X145297620Y-127009819D02*
X145297620Y-126152676D01*
X145297620Y-126152676D02*
X145250001Y-126057438D01*
X145250001Y-126057438D02*
X145154763Y-126009819D01*
X145154763Y-126009819D02*
X145059525Y-126009819D01*
X143964286Y-127009819D02*
X143964286Y-126009819D01*
X143964286Y-126009819D02*
X143392858Y-127009819D01*
X143392858Y-127009819D02*
X143392858Y-126009819D01*
X142773810Y-127009819D02*
X142869048Y-126962200D01*
X142869048Y-126962200D02*
X142916667Y-126914580D01*
X142916667Y-126914580D02*
X142964286Y-126819342D01*
X142964286Y-126819342D02*
X142964286Y-126533628D01*
X142964286Y-126533628D02*
X142916667Y-126438390D01*
X142916667Y-126438390D02*
X142869048Y-126390771D01*
X142869048Y-126390771D02*
X142773810Y-126343152D01*
X142773810Y-126343152D02*
X142630953Y-126343152D01*
X142630953Y-126343152D02*
X142535715Y-126390771D01*
X142535715Y-126390771D02*
X142488096Y-126438390D01*
X142488096Y-126438390D02*
X142440477Y-126533628D01*
X142440477Y-126533628D02*
X142440477Y-126819342D01*
X142440477Y-126819342D02*
X142488096Y-126914580D01*
X142488096Y-126914580D02*
X142535715Y-126962200D01*
X142535715Y-126962200D02*
X142630953Y-127009819D01*
X142630953Y-127009819D02*
X142773810Y-127009819D01*
X142011905Y-127009819D02*
X142011905Y-126343152D01*
X142011905Y-126533628D02*
X141964286Y-126438390D01*
X141964286Y-126438390D02*
X141916667Y-126390771D01*
X141916667Y-126390771D02*
X141821429Y-126343152D01*
X141821429Y-126343152D02*
X141726191Y-126343152D01*
X141535714Y-126343152D02*
X141154762Y-126343152D01*
X141392857Y-126009819D02*
X141392857Y-126866961D01*
X141392857Y-126866961D02*
X141345238Y-126962200D01*
X141345238Y-126962200D02*
X141250000Y-127009819D01*
X141250000Y-127009819D02*
X141154762Y-127009819D01*
X140821428Y-127009819D02*
X140821428Y-126009819D01*
X140392857Y-127009819D02*
X140392857Y-126486009D01*
X140392857Y-126486009D02*
X140440476Y-126390771D01*
X140440476Y-126390771D02*
X140535714Y-126343152D01*
X140535714Y-126343152D02*
X140678571Y-126343152D01*
X140678571Y-126343152D02*
X140773809Y-126390771D01*
X140773809Y-126390771D02*
X140821428Y-126438390D01*
X138583333Y-126914580D02*
X138630952Y-126962200D01*
X138630952Y-126962200D02*
X138773809Y-127009819D01*
X138773809Y-127009819D02*
X138869047Y-127009819D01*
X138869047Y-127009819D02*
X139011904Y-126962200D01*
X139011904Y-126962200D02*
X139107142Y-126866961D01*
X139107142Y-126866961D02*
X139154761Y-126771723D01*
X139154761Y-126771723D02*
X139202380Y-126581247D01*
X139202380Y-126581247D02*
X139202380Y-126438390D01*
X139202380Y-126438390D02*
X139154761Y-126247914D01*
X139154761Y-126247914D02*
X139107142Y-126152676D01*
X139107142Y-126152676D02*
X139011904Y-126057438D01*
X139011904Y-126057438D02*
X138869047Y-126009819D01*
X138869047Y-126009819D02*
X138773809Y-126009819D01*
X138773809Y-126009819D02*
X138630952Y-126057438D01*
X138630952Y-126057438D02*
X138583333Y-126105057D01*
X137726190Y-127009819D02*
X137726190Y-126486009D01*
X137726190Y-126486009D02*
X137773809Y-126390771D01*
X137773809Y-126390771D02*
X137869047Y-126343152D01*
X137869047Y-126343152D02*
X138059523Y-126343152D01*
X138059523Y-126343152D02*
X138154761Y-126390771D01*
X137726190Y-126962200D02*
X137821428Y-127009819D01*
X137821428Y-127009819D02*
X138059523Y-127009819D01*
X138059523Y-127009819D02*
X138154761Y-126962200D01*
X138154761Y-126962200D02*
X138202380Y-126866961D01*
X138202380Y-126866961D02*
X138202380Y-126771723D01*
X138202380Y-126771723D02*
X138154761Y-126676485D01*
X138154761Y-126676485D02*
X138059523Y-126628866D01*
X138059523Y-126628866D02*
X137821428Y-126628866D01*
X137821428Y-126628866D02*
X137726190Y-126581247D01*
X137249999Y-127009819D02*
X137249999Y-126343152D01*
X137249999Y-126533628D02*
X137202380Y-126438390D01*
X137202380Y-126438390D02*
X137154761Y-126390771D01*
X137154761Y-126390771D02*
X137059523Y-126343152D01*
X137059523Y-126343152D02*
X136964285Y-126343152D01*
X136488094Y-127009819D02*
X136583332Y-126962200D01*
X136583332Y-126962200D02*
X136630951Y-126914580D01*
X136630951Y-126914580D02*
X136678570Y-126819342D01*
X136678570Y-126819342D02*
X136678570Y-126533628D01*
X136678570Y-126533628D02*
X136630951Y-126438390D01*
X136630951Y-126438390D02*
X136583332Y-126390771D01*
X136583332Y-126390771D02*
X136488094Y-126343152D01*
X136488094Y-126343152D02*
X136345237Y-126343152D01*
X136345237Y-126343152D02*
X136249999Y-126390771D01*
X136249999Y-126390771D02*
X136202380Y-126438390D01*
X136202380Y-126438390D02*
X136154761Y-126533628D01*
X136154761Y-126533628D02*
X136154761Y-126819342D01*
X136154761Y-126819342D02*
X136202380Y-126914580D01*
X136202380Y-126914580D02*
X136249999Y-126962200D01*
X136249999Y-126962200D02*
X136345237Y-127009819D01*
X136345237Y-127009819D02*
X136488094Y-127009819D01*
X135583332Y-127009819D02*
X135678570Y-126962200D01*
X135678570Y-126962200D02*
X135726189Y-126866961D01*
X135726189Y-126866961D02*
X135726189Y-126009819D01*
X135202379Y-127009819D02*
X135202379Y-126343152D01*
X135202379Y-126009819D02*
X135249998Y-126057438D01*
X135249998Y-126057438D02*
X135202379Y-126105057D01*
X135202379Y-126105057D02*
X135154760Y-126057438D01*
X135154760Y-126057438D02*
X135202379Y-126009819D01*
X135202379Y-126009819D02*
X135202379Y-126105057D01*
X134726189Y-126343152D02*
X134726189Y-127009819D01*
X134726189Y-126438390D02*
X134678570Y-126390771D01*
X134678570Y-126390771D02*
X134583332Y-126343152D01*
X134583332Y-126343152D02*
X134440475Y-126343152D01*
X134440475Y-126343152D02*
X134345237Y-126390771D01*
X134345237Y-126390771D02*
X134297618Y-126486009D01*
X134297618Y-126486009D02*
X134297618Y-127009819D01*
X133392856Y-127009819D02*
X133392856Y-126486009D01*
X133392856Y-126486009D02*
X133440475Y-126390771D01*
X133440475Y-126390771D02*
X133535713Y-126343152D01*
X133535713Y-126343152D02*
X133726189Y-126343152D01*
X133726189Y-126343152D02*
X133821427Y-126390771D01*
X133392856Y-126962200D02*
X133488094Y-127009819D01*
X133488094Y-127009819D02*
X133726189Y-127009819D01*
X133726189Y-127009819D02*
X133821427Y-126962200D01*
X133821427Y-126962200D02*
X133869046Y-126866961D01*
X133869046Y-126866961D02*
X133869046Y-126771723D01*
X133869046Y-126771723D02*
X133821427Y-126676485D01*
X133821427Y-126676485D02*
X133726189Y-126628866D01*
X133726189Y-126628866D02*
X133488094Y-126628866D01*
X133488094Y-126628866D02*
X133392856Y-126581247D01*
X131726189Y-127009819D02*
X131726189Y-126486009D01*
X131726189Y-126486009D02*
X131773808Y-126390771D01*
X131773808Y-126390771D02*
X131869046Y-126343152D01*
X131869046Y-126343152D02*
X132059522Y-126343152D01*
X132059522Y-126343152D02*
X132154760Y-126390771D01*
X131726189Y-126962200D02*
X131821427Y-127009819D01*
X131821427Y-127009819D02*
X132059522Y-127009819D01*
X132059522Y-127009819D02*
X132154760Y-126962200D01*
X132154760Y-126962200D02*
X132202379Y-126866961D01*
X132202379Y-126866961D02*
X132202379Y-126771723D01*
X132202379Y-126771723D02*
X132154760Y-126676485D01*
X132154760Y-126676485D02*
X132059522Y-126628866D01*
X132059522Y-126628866D02*
X131821427Y-126628866D01*
X131821427Y-126628866D02*
X131726189Y-126581247D01*
X131392855Y-126343152D02*
X131011903Y-126343152D01*
X131249998Y-126009819D02*
X131249998Y-126866961D01*
X131249998Y-126866961D02*
X131202379Y-126962200D01*
X131202379Y-126962200D02*
X131107141Y-127009819D01*
X131107141Y-127009819D02*
X131011903Y-127009819D01*
X129345236Y-126914580D02*
X129392855Y-126962200D01*
X129392855Y-126962200D02*
X129535712Y-127009819D01*
X129535712Y-127009819D02*
X129630950Y-127009819D01*
X129630950Y-127009819D02*
X129773807Y-126962200D01*
X129773807Y-126962200D02*
X129869045Y-126866961D01*
X129869045Y-126866961D02*
X129916664Y-126771723D01*
X129916664Y-126771723D02*
X129964283Y-126581247D01*
X129964283Y-126581247D02*
X129964283Y-126438390D01*
X129964283Y-126438390D02*
X129916664Y-126247914D01*
X129916664Y-126247914D02*
X129869045Y-126152676D01*
X129869045Y-126152676D02*
X129773807Y-126057438D01*
X129773807Y-126057438D02*
X129630950Y-126009819D01*
X129630950Y-126009819D02*
X129535712Y-126009819D01*
X129535712Y-126009819D02*
X129392855Y-126057438D01*
X129392855Y-126057438D02*
X129345236Y-126105057D01*
X128916664Y-127009819D02*
X128916664Y-126009819D01*
X128488093Y-127009819D02*
X128488093Y-126486009D01*
X128488093Y-126486009D02*
X128535712Y-126390771D01*
X128535712Y-126390771D02*
X128630950Y-126343152D01*
X128630950Y-126343152D02*
X128773807Y-126343152D01*
X128773807Y-126343152D02*
X128869045Y-126390771D01*
X128869045Y-126390771D02*
X128916664Y-126438390D01*
X127583331Y-127009819D02*
X127583331Y-126486009D01*
X127583331Y-126486009D02*
X127630950Y-126390771D01*
X127630950Y-126390771D02*
X127726188Y-126343152D01*
X127726188Y-126343152D02*
X127916664Y-126343152D01*
X127916664Y-126343152D02*
X128011902Y-126390771D01*
X127583331Y-126962200D02*
X127678569Y-127009819D01*
X127678569Y-127009819D02*
X127916664Y-127009819D01*
X127916664Y-127009819D02*
X128011902Y-126962200D01*
X128011902Y-126962200D02*
X128059521Y-126866961D01*
X128059521Y-126866961D02*
X128059521Y-126771723D01*
X128059521Y-126771723D02*
X128011902Y-126676485D01*
X128011902Y-126676485D02*
X127916664Y-126628866D01*
X127916664Y-126628866D02*
X127678569Y-126628866D01*
X127678569Y-126628866D02*
X127583331Y-126581247D01*
X127107140Y-126343152D02*
X127107140Y-127343152D01*
X127107140Y-126390771D02*
X127011902Y-126343152D01*
X127011902Y-126343152D02*
X126821426Y-126343152D01*
X126821426Y-126343152D02*
X126726188Y-126390771D01*
X126726188Y-126390771D02*
X126678569Y-126438390D01*
X126678569Y-126438390D02*
X126630950Y-126533628D01*
X126630950Y-126533628D02*
X126630950Y-126819342D01*
X126630950Y-126819342D02*
X126678569Y-126914580D01*
X126678569Y-126914580D02*
X126726188Y-126962200D01*
X126726188Y-126962200D02*
X126821426Y-127009819D01*
X126821426Y-127009819D02*
X127011902Y-127009819D01*
X127011902Y-127009819D02*
X127107140Y-126962200D01*
X125821426Y-126962200D02*
X125916664Y-127009819D01*
X125916664Y-127009819D02*
X126107140Y-127009819D01*
X126107140Y-127009819D02*
X126202378Y-126962200D01*
X126202378Y-126962200D02*
X126249997Y-126866961D01*
X126249997Y-126866961D02*
X126249997Y-126486009D01*
X126249997Y-126486009D02*
X126202378Y-126390771D01*
X126202378Y-126390771D02*
X126107140Y-126343152D01*
X126107140Y-126343152D02*
X125916664Y-126343152D01*
X125916664Y-126343152D02*
X125821426Y-126390771D01*
X125821426Y-126390771D02*
X125773807Y-126486009D01*
X125773807Y-126486009D02*
X125773807Y-126581247D01*
X125773807Y-126581247D02*
X126249997Y-126676485D01*
X125202378Y-127009819D02*
X125297616Y-126962200D01*
X125297616Y-126962200D02*
X125345235Y-126866961D01*
X125345235Y-126866961D02*
X125345235Y-126009819D01*
X124059520Y-127009819D02*
X124059520Y-126009819D01*
X124059520Y-126486009D02*
X123488092Y-126486009D01*
X123488092Y-127009819D02*
X123488092Y-126009819D01*
X123011901Y-127009819D02*
X123011901Y-126343152D01*
X123011901Y-126009819D02*
X123059520Y-126057438D01*
X123059520Y-126057438D02*
X123011901Y-126105057D01*
X123011901Y-126105057D02*
X122964282Y-126057438D01*
X122964282Y-126057438D02*
X123011901Y-126009819D01*
X123011901Y-126009819D02*
X123011901Y-126105057D01*
X122392854Y-127009819D02*
X122488092Y-126962200D01*
X122488092Y-126962200D02*
X122535711Y-126866961D01*
X122535711Y-126866961D02*
X122535711Y-126009819D01*
X121869044Y-127009819D02*
X121964282Y-126962200D01*
X121964282Y-126962200D02*
X122011901Y-126866961D01*
X122011901Y-126866961D02*
X122011901Y-126009819D01*
X145130951Y-127619819D02*
X144797618Y-128619819D01*
X144797618Y-128619819D02*
X144464285Y-127619819D01*
X144178570Y-127715057D02*
X144130951Y-127667438D01*
X144130951Y-127667438D02*
X144035713Y-127619819D01*
X144035713Y-127619819D02*
X143797618Y-127619819D01*
X143797618Y-127619819D02*
X143702380Y-127667438D01*
X143702380Y-127667438D02*
X143654761Y-127715057D01*
X143654761Y-127715057D02*
X143607142Y-127810295D01*
X143607142Y-127810295D02*
X143607142Y-127905533D01*
X143607142Y-127905533D02*
X143654761Y-128048390D01*
X143654761Y-128048390D02*
X144226189Y-128619819D01*
X144226189Y-128619819D02*
X143607142Y-128619819D01*
X143178570Y-128524580D02*
X143130951Y-128572200D01*
X143130951Y-128572200D02*
X143178570Y-128619819D01*
X143178570Y-128619819D02*
X143226189Y-128572200D01*
X143226189Y-128572200D02*
X143178570Y-128524580D01*
X143178570Y-128524580D02*
X143178570Y-128619819D01*
X142749999Y-127715057D02*
X142702380Y-127667438D01*
X142702380Y-127667438D02*
X142607142Y-127619819D01*
X142607142Y-127619819D02*
X142369047Y-127619819D01*
X142369047Y-127619819D02*
X142273809Y-127667438D01*
X142273809Y-127667438D02*
X142226190Y-127715057D01*
X142226190Y-127715057D02*
X142178571Y-127810295D01*
X142178571Y-127810295D02*
X142178571Y-127905533D01*
X142178571Y-127905533D02*
X142226190Y-128048390D01*
X142226190Y-128048390D02*
X142797618Y-128619819D01*
X142797618Y-128619819D02*
X142178571Y-128619819D01*
X140797618Y-127619819D02*
X140702380Y-127619819D01*
X140702380Y-127619819D02*
X140607142Y-127667438D01*
X140607142Y-127667438D02*
X140559523Y-127715057D01*
X140559523Y-127715057D02*
X140511904Y-127810295D01*
X140511904Y-127810295D02*
X140464285Y-128000771D01*
X140464285Y-128000771D02*
X140464285Y-128238866D01*
X140464285Y-128238866D02*
X140511904Y-128429342D01*
X140511904Y-128429342D02*
X140559523Y-128524580D01*
X140559523Y-128524580D02*
X140607142Y-128572200D01*
X140607142Y-128572200D02*
X140702380Y-128619819D01*
X140702380Y-128619819D02*
X140797618Y-128619819D01*
X140797618Y-128619819D02*
X140892856Y-128572200D01*
X140892856Y-128572200D02*
X140940475Y-128524580D01*
X140940475Y-128524580D02*
X140988094Y-128429342D01*
X140988094Y-128429342D02*
X141035713Y-128238866D01*
X141035713Y-128238866D02*
X141035713Y-128000771D01*
X141035713Y-128000771D02*
X140988094Y-127810295D01*
X140988094Y-127810295D02*
X140940475Y-127715057D01*
X140940475Y-127715057D02*
X140892856Y-127667438D01*
X140892856Y-127667438D02*
X140797618Y-127619819D01*
X140130951Y-127619819D02*
X139511904Y-127619819D01*
X139511904Y-127619819D02*
X139845237Y-128000771D01*
X139845237Y-128000771D02*
X139702380Y-128000771D01*
X139702380Y-128000771D02*
X139607142Y-128048390D01*
X139607142Y-128048390D02*
X139559523Y-128096009D01*
X139559523Y-128096009D02*
X139511904Y-128191247D01*
X139511904Y-128191247D02*
X139511904Y-128429342D01*
X139511904Y-128429342D02*
X139559523Y-128524580D01*
X139559523Y-128524580D02*
X139607142Y-128572200D01*
X139607142Y-128572200D02*
X139702380Y-128619819D01*
X139702380Y-128619819D02*
X139988094Y-128619819D01*
X139988094Y-128619819D02*
X140083332Y-128572200D01*
X140083332Y-128572200D02*
X140130951Y-128524580D01*
X139083332Y-128238866D02*
X138321428Y-128238866D01*
X137892856Y-127715057D02*
X137845237Y-127667438D01*
X137845237Y-127667438D02*
X137749999Y-127619819D01*
X137749999Y-127619819D02*
X137511904Y-127619819D01*
X137511904Y-127619819D02*
X137416666Y-127667438D01*
X137416666Y-127667438D02*
X137369047Y-127715057D01*
X137369047Y-127715057D02*
X137321428Y-127810295D01*
X137321428Y-127810295D02*
X137321428Y-127905533D01*
X137321428Y-127905533D02*
X137369047Y-128048390D01*
X137369047Y-128048390D02*
X137940475Y-128619819D01*
X137940475Y-128619819D02*
X137321428Y-128619819D01*
X136702380Y-127619819D02*
X136607142Y-127619819D01*
X136607142Y-127619819D02*
X136511904Y-127667438D01*
X136511904Y-127667438D02*
X136464285Y-127715057D01*
X136464285Y-127715057D02*
X136416666Y-127810295D01*
X136416666Y-127810295D02*
X136369047Y-128000771D01*
X136369047Y-128000771D02*
X136369047Y-128238866D01*
X136369047Y-128238866D02*
X136416666Y-128429342D01*
X136416666Y-128429342D02*
X136464285Y-128524580D01*
X136464285Y-128524580D02*
X136511904Y-128572200D01*
X136511904Y-128572200D02*
X136607142Y-128619819D01*
X136607142Y-128619819D02*
X136702380Y-128619819D01*
X136702380Y-128619819D02*
X136797618Y-128572200D01*
X136797618Y-128572200D02*
X136845237Y-128524580D01*
X136845237Y-128524580D02*
X136892856Y-128429342D01*
X136892856Y-128429342D02*
X136940475Y-128238866D01*
X136940475Y-128238866D02*
X136940475Y-128000771D01*
X136940475Y-128000771D02*
X136892856Y-127810295D01*
X136892856Y-127810295D02*
X136845237Y-127715057D01*
X136845237Y-127715057D02*
X136797618Y-127667438D01*
X136797618Y-127667438D02*
X136702380Y-127619819D01*
X135988094Y-127715057D02*
X135940475Y-127667438D01*
X135940475Y-127667438D02*
X135845237Y-127619819D01*
X135845237Y-127619819D02*
X135607142Y-127619819D01*
X135607142Y-127619819D02*
X135511904Y-127667438D01*
X135511904Y-127667438D02*
X135464285Y-127715057D01*
X135464285Y-127715057D02*
X135416666Y-127810295D01*
X135416666Y-127810295D02*
X135416666Y-127905533D01*
X135416666Y-127905533D02*
X135464285Y-128048390D01*
X135464285Y-128048390D02*
X136035713Y-128619819D01*
X136035713Y-128619819D02*
X135416666Y-128619819D01*
X134559523Y-127953152D02*
X134559523Y-128619819D01*
X134797618Y-127572200D02*
X135035713Y-128286485D01*
X135035713Y-128286485D02*
X134416666Y-128286485D01*
X107658458Y-74199819D02*
X107372744Y-74295057D01*
X107372744Y-74295057D02*
X107277506Y-74390295D01*
X107277506Y-74390295D02*
X107182268Y-74580771D01*
X107182268Y-74580771D02*
X107182268Y-74866485D01*
X107182268Y-74866485D02*
X107277506Y-75056961D01*
X107277506Y-75056961D02*
X107372744Y-75152200D01*
X107372744Y-75152200D02*
X107563220Y-75247438D01*
X107563220Y-75247438D02*
X108325125Y-75247438D01*
X108325125Y-75247438D02*
X108325125Y-73247438D01*
X108325125Y-73247438D02*
X107658458Y-73247438D01*
X107658458Y-73247438D02*
X107467982Y-73342676D01*
X107467982Y-73342676D02*
X107372744Y-73437914D01*
X107372744Y-73437914D02*
X107277506Y-73628390D01*
X107277506Y-73628390D02*
X107277506Y-73818866D01*
X107277506Y-73818866D02*
X107372744Y-74009342D01*
X107372744Y-74009342D02*
X107467982Y-74104580D01*
X107467982Y-74104580D02*
X107658458Y-74199819D01*
X107658458Y-74199819D02*
X108325125Y-74199819D01*
X113825125Y-75247438D02*
X113825125Y-73247438D01*
X113825125Y-73247438D02*
X113348935Y-73247438D01*
X113348935Y-73247438D02*
X113063220Y-73342676D01*
X113063220Y-73342676D02*
X112872744Y-73533152D01*
X112872744Y-73533152D02*
X112777506Y-73723628D01*
X112777506Y-73723628D02*
X112682268Y-74104580D01*
X112682268Y-74104580D02*
X112682268Y-74390295D01*
X112682268Y-74390295D02*
X112777506Y-74771247D01*
X112777506Y-74771247D02*
X112872744Y-74961723D01*
X112872744Y-74961723D02*
X113063220Y-75152200D01*
X113063220Y-75152200D02*
X113348935Y-75247438D01*
X113348935Y-75247438D02*
X113825125Y-75247438D01*
X134020363Y-61376009D02*
X133067982Y-61376009D01*
X134210839Y-61947438D02*
X133544173Y-59947438D01*
X133544173Y-59947438D02*
X132877506Y-61947438D01*
X119272744Y-73247438D02*
X120225125Y-73247438D01*
X120225125Y-73247438D02*
X120320363Y-74199819D01*
X120320363Y-74199819D02*
X120225125Y-74104580D01*
X120225125Y-74104580D02*
X120034649Y-74009342D01*
X120034649Y-74009342D02*
X119558458Y-74009342D01*
X119558458Y-74009342D02*
X119367982Y-74104580D01*
X119367982Y-74104580D02*
X119272744Y-74199819D01*
X119272744Y-74199819D02*
X119177506Y-74390295D01*
X119177506Y-74390295D02*
X119177506Y-74866485D01*
X119177506Y-74866485D02*
X119272744Y-75056961D01*
X119272744Y-75056961D02*
X119367982Y-75152200D01*
X119367982Y-75152200D02*
X119558458Y-75247438D01*
X119558458Y-75247438D02*
X120034649Y-75247438D01*
X120034649Y-75247438D02*
X120225125Y-75152200D01*
X120225125Y-75152200D02*
X120320363Y-75056961D01*
X118606077Y-73247438D02*
X117939411Y-75247438D01*
X117939411Y-75247438D02*
X117272744Y-73247438D01*
X132982268Y-56656961D02*
X133077506Y-56752200D01*
X133077506Y-56752200D02*
X133363220Y-56847438D01*
X133363220Y-56847438D02*
X133553696Y-56847438D01*
X133553696Y-56847438D02*
X133839411Y-56752200D01*
X133839411Y-56752200D02*
X134029887Y-56561723D01*
X134029887Y-56561723D02*
X134125125Y-56371247D01*
X134125125Y-56371247D02*
X134220363Y-55990295D01*
X134220363Y-55990295D02*
X134220363Y-55704580D01*
X134220363Y-55704580D02*
X134125125Y-55323628D01*
X134125125Y-55323628D02*
X134029887Y-55133152D01*
X134029887Y-55133152D02*
X133839411Y-54942676D01*
X133839411Y-54942676D02*
X133553696Y-54847438D01*
X133553696Y-54847438D02*
X133363220Y-54847438D01*
X133363220Y-54847438D02*
X133077506Y-54942676D01*
X133077506Y-54942676D02*
X132982268Y-55037914D01*
X135666666Y-109704819D02*
X135999999Y-109228628D01*
X136238094Y-109704819D02*
X136238094Y-108704819D01*
X136238094Y-108704819D02*
X135857142Y-108704819D01*
X135857142Y-108704819D02*
X135761904Y-108752438D01*
X135761904Y-108752438D02*
X135714285Y-108800057D01*
X135714285Y-108800057D02*
X135666666Y-108895295D01*
X135666666Y-108895295D02*
X135666666Y-109038152D01*
X135666666Y-109038152D02*
X135714285Y-109133390D01*
X135714285Y-109133390D02*
X135761904Y-109181009D01*
X135761904Y-109181009D02*
X135857142Y-109228628D01*
X135857142Y-109228628D02*
X136238094Y-109228628D01*
X134714285Y-109704819D02*
X135285713Y-109704819D01*
X134999999Y-109704819D02*
X134999999Y-108704819D01*
X134999999Y-108704819D02*
X135095237Y-108847676D01*
X135095237Y-108847676D02*
X135190475Y-108942914D01*
X135190475Y-108942914D02*
X135285713Y-108990533D01*
X166519285Y-66979104D02*
X166043095Y-66979104D01*
X166614523Y-67264819D02*
X166281190Y-66264819D01*
X166281190Y-66264819D02*
X165947857Y-67264819D01*
X165090714Y-67264819D02*
X165662142Y-67264819D01*
X165376428Y-67264819D02*
X165376428Y-66264819D01*
X165376428Y-66264819D02*
X165471666Y-66407676D01*
X165471666Y-66407676D02*
X165566904Y-66502914D01*
X165566904Y-66502914D02*
X165662142Y-66550533D01*
X176986905Y-94245180D02*
X176986905Y-95245180D01*
X176986905Y-95245180D02*
X177225000Y-95245180D01*
X177225000Y-95245180D02*
X177367857Y-95197561D01*
X177367857Y-95197561D02*
X177463095Y-95102323D01*
X177463095Y-95102323D02*
X177510714Y-95007085D01*
X177510714Y-95007085D02*
X177558333Y-94816609D01*
X177558333Y-94816609D02*
X177558333Y-94673752D01*
X177558333Y-94673752D02*
X177510714Y-94483276D01*
X177510714Y-94483276D02*
X177463095Y-94388038D01*
X177463095Y-94388038D02*
X177367857Y-94292800D01*
X177367857Y-94292800D02*
X177225000Y-94245180D01*
X177225000Y-94245180D02*
X176986905Y-94245180D01*
X177891667Y-95245180D02*
X178558333Y-95245180D01*
X178558333Y-95245180D02*
X178129762Y-94245180D01*
X159915952Y-102110895D02*
X160392142Y-102110895D01*
X159820714Y-101825180D02*
X160154047Y-102825180D01*
X160154047Y-102825180D02*
X160487380Y-101825180D01*
X161392142Y-101825180D02*
X161058809Y-102301371D01*
X160820714Y-101825180D02*
X160820714Y-102825180D01*
X160820714Y-102825180D02*
X161201666Y-102825180D01*
X161201666Y-102825180D02*
X161296904Y-102777561D01*
X161296904Y-102777561D02*
X161344523Y-102729942D01*
X161344523Y-102729942D02*
X161392142Y-102634704D01*
X161392142Y-102634704D02*
X161392142Y-102491847D01*
X161392142Y-102491847D02*
X161344523Y-102396609D01*
X161344523Y-102396609D02*
X161296904Y-102348990D01*
X161296904Y-102348990D02*
X161201666Y-102301371D01*
X161201666Y-102301371D02*
X160820714Y-102301371D01*
X161820714Y-102348990D02*
X162154047Y-102348990D01*
X162296904Y-101825180D02*
X161820714Y-101825180D01*
X161820714Y-101825180D02*
X161820714Y-102825180D01*
X161820714Y-102825180D02*
X162296904Y-102825180D01*
X163058809Y-102348990D02*
X162725476Y-102348990D01*
X162725476Y-101825180D02*
X162725476Y-102825180D01*
X162725476Y-102825180D02*
X163201666Y-102825180D01*
X176138095Y-72320180D02*
X176709523Y-72320180D01*
X176423809Y-71320180D02*
X176423809Y-72320180D01*
X176947619Y-72320180D02*
X177614285Y-71320180D01*
X177614285Y-72320180D02*
X176947619Y-71320180D01*
X177458333Y-73975180D02*
X177125000Y-74451371D01*
X176886905Y-73975180D02*
X176886905Y-74975180D01*
X176886905Y-74975180D02*
X177267857Y-74975180D01*
X177267857Y-74975180D02*
X177363095Y-74927561D01*
X177363095Y-74927561D02*
X177410714Y-74879942D01*
X177410714Y-74879942D02*
X177458333Y-74784704D01*
X177458333Y-74784704D02*
X177458333Y-74641847D01*
X177458333Y-74641847D02*
X177410714Y-74546609D01*
X177410714Y-74546609D02*
X177363095Y-74498990D01*
X177363095Y-74498990D02*
X177267857Y-74451371D01*
X177267857Y-74451371D02*
X176886905Y-74451371D01*
X177791667Y-74975180D02*
X178458333Y-73975180D01*
X178458333Y-74975180D02*
X177791667Y-73975180D01*
X160010714Y-81880895D02*
X160486904Y-81880895D01*
X159915476Y-81595180D02*
X160248809Y-82595180D01*
X160248809Y-82595180D02*
X160582142Y-81595180D01*
X160820238Y-82595180D02*
X161486904Y-82595180D01*
X161486904Y-82595180D02*
X161058333Y-81595180D01*
X159789762Y-72525180D02*
X160123095Y-71525180D01*
X160123095Y-71525180D02*
X160456428Y-72525180D01*
X160789762Y-71525180D02*
X160789762Y-72525180D01*
X161265952Y-71525180D02*
X161265952Y-72525180D01*
X161265952Y-72525180D02*
X161837380Y-71525180D01*
X161837380Y-71525180D02*
X161837380Y-72525180D01*
X177402380Y-76470180D02*
X177069047Y-76946371D01*
X176830952Y-76470180D02*
X176830952Y-77470180D01*
X176830952Y-77470180D02*
X177211904Y-77470180D01*
X177211904Y-77470180D02*
X177307142Y-77422561D01*
X177307142Y-77422561D02*
X177354761Y-77374942D01*
X177354761Y-77374942D02*
X177402380Y-77279704D01*
X177402380Y-77279704D02*
X177402380Y-77136847D01*
X177402380Y-77136847D02*
X177354761Y-77041609D01*
X177354761Y-77041609D02*
X177307142Y-76993990D01*
X177307142Y-76993990D02*
X177211904Y-76946371D01*
X177211904Y-76946371D02*
X176830952Y-76946371D01*
X177783333Y-76517800D02*
X177926190Y-76470180D01*
X177926190Y-76470180D02*
X178164285Y-76470180D01*
X178164285Y-76470180D02*
X178259523Y-76517800D01*
X178259523Y-76517800D02*
X178307142Y-76565419D01*
X178307142Y-76565419D02*
X178354761Y-76660657D01*
X178354761Y-76660657D02*
X178354761Y-76755895D01*
X178354761Y-76755895D02*
X178307142Y-76851133D01*
X178307142Y-76851133D02*
X178259523Y-76898752D01*
X178259523Y-76898752D02*
X178164285Y-76946371D01*
X178164285Y-76946371D02*
X177973809Y-76993990D01*
X177973809Y-76993990D02*
X177878571Y-77041609D01*
X177878571Y-77041609D02*
X177830952Y-77089228D01*
X177830952Y-77089228D02*
X177783333Y-77184466D01*
X177783333Y-77184466D02*
X177783333Y-77279704D01*
X177783333Y-77279704D02*
X177830952Y-77374942D01*
X177830952Y-77374942D02*
X177878571Y-77422561D01*
X177878571Y-77422561D02*
X177973809Y-77470180D01*
X177973809Y-77470180D02*
X178211904Y-77470180D01*
X178211904Y-77470180D02*
X178354761Y-77422561D01*
X178640476Y-77470180D02*
X179211904Y-77470180D01*
X178926190Y-76470180D02*
X178926190Y-77470180D01*
X160085714Y-84330895D02*
X160561904Y-84330895D01*
X159990476Y-84045180D02*
X160323809Y-85045180D01*
X160323809Y-85045180D02*
X160657142Y-84045180D01*
X161419047Y-85045180D02*
X161228571Y-85045180D01*
X161228571Y-85045180D02*
X161133333Y-84997561D01*
X161133333Y-84997561D02*
X161085714Y-84949942D01*
X161085714Y-84949942D02*
X160990476Y-84807085D01*
X160990476Y-84807085D02*
X160942857Y-84616609D01*
X160942857Y-84616609D02*
X160942857Y-84235657D01*
X160942857Y-84235657D02*
X160990476Y-84140419D01*
X160990476Y-84140419D02*
X161038095Y-84092800D01*
X161038095Y-84092800D02*
X161133333Y-84045180D01*
X161133333Y-84045180D02*
X161323809Y-84045180D01*
X161323809Y-84045180D02*
X161419047Y-84092800D01*
X161419047Y-84092800D02*
X161466666Y-84140419D01*
X161466666Y-84140419D02*
X161514285Y-84235657D01*
X161514285Y-84235657D02*
X161514285Y-84473752D01*
X161514285Y-84473752D02*
X161466666Y-84568990D01*
X161466666Y-84568990D02*
X161419047Y-84616609D01*
X161419047Y-84616609D02*
X161323809Y-84664228D01*
X161323809Y-84664228D02*
X161133333Y-84664228D01*
X161133333Y-84664228D02*
X161038095Y-84616609D01*
X161038095Y-84616609D02*
X160990476Y-84568990D01*
X160990476Y-84568990D02*
X160942857Y-84473752D01*
X160085714Y-97030895D02*
X160561904Y-97030895D01*
X159990476Y-96745180D02*
X160323809Y-97745180D01*
X160323809Y-97745180D02*
X160657142Y-96745180D01*
X161514285Y-96745180D02*
X160942857Y-96745180D01*
X161228571Y-96745180D02*
X161228571Y-97745180D01*
X161228571Y-97745180D02*
X161133333Y-97602323D01*
X161133333Y-97602323D02*
X161038095Y-97507085D01*
X161038095Y-97507085D02*
X160942857Y-97459466D01*
X159910714Y-99655895D02*
X160386904Y-99655895D01*
X159815476Y-99370180D02*
X160148809Y-100370180D01*
X160148809Y-100370180D02*
X160482142Y-99370180D01*
X161005952Y-100370180D02*
X161101190Y-100370180D01*
X161101190Y-100370180D02*
X161196428Y-100322561D01*
X161196428Y-100322561D02*
X161244047Y-100274942D01*
X161244047Y-100274942D02*
X161291666Y-100179704D01*
X161291666Y-100179704D02*
X161339285Y-99989228D01*
X161339285Y-99989228D02*
X161339285Y-99751133D01*
X161339285Y-99751133D02*
X161291666Y-99560657D01*
X161291666Y-99560657D02*
X161244047Y-99465419D01*
X161244047Y-99465419D02*
X161196428Y-99417800D01*
X161196428Y-99417800D02*
X161101190Y-99370180D01*
X161101190Y-99370180D02*
X161005952Y-99370180D01*
X161005952Y-99370180D02*
X160910714Y-99417800D01*
X160910714Y-99417800D02*
X160863095Y-99465419D01*
X160863095Y-99465419D02*
X160815476Y-99560657D01*
X160815476Y-99560657D02*
X160767857Y-99751133D01*
X160767857Y-99751133D02*
X160767857Y-99989228D01*
X160767857Y-99989228D02*
X160815476Y-100179704D01*
X160815476Y-100179704D02*
X160863095Y-100274942D01*
X160863095Y-100274942D02*
X160910714Y-100322561D01*
X160910714Y-100322561D02*
X161005952Y-100370180D01*
X159835714Y-89167800D02*
X159978571Y-89120180D01*
X159978571Y-89120180D02*
X160216666Y-89120180D01*
X160216666Y-89120180D02*
X160311904Y-89167800D01*
X160311904Y-89167800D02*
X160359523Y-89215419D01*
X160359523Y-89215419D02*
X160407142Y-89310657D01*
X160407142Y-89310657D02*
X160407142Y-89405895D01*
X160407142Y-89405895D02*
X160359523Y-89501133D01*
X160359523Y-89501133D02*
X160311904Y-89548752D01*
X160311904Y-89548752D02*
X160216666Y-89596371D01*
X160216666Y-89596371D02*
X160026190Y-89643990D01*
X160026190Y-89643990D02*
X159930952Y-89691609D01*
X159930952Y-89691609D02*
X159883333Y-89739228D01*
X159883333Y-89739228D02*
X159835714Y-89834466D01*
X159835714Y-89834466D02*
X159835714Y-89929704D01*
X159835714Y-89929704D02*
X159883333Y-90024942D01*
X159883333Y-90024942D02*
X159930952Y-90072561D01*
X159930952Y-90072561D02*
X160026190Y-90120180D01*
X160026190Y-90120180D02*
X160264285Y-90120180D01*
X160264285Y-90120180D02*
X160407142Y-90072561D01*
X160835714Y-89120180D02*
X160835714Y-90120180D01*
X160835714Y-90120180D02*
X161073809Y-90120180D01*
X161073809Y-90120180D02*
X161216666Y-90072561D01*
X161216666Y-90072561D02*
X161311904Y-89977323D01*
X161311904Y-89977323D02*
X161359523Y-89882085D01*
X161359523Y-89882085D02*
X161407142Y-89691609D01*
X161407142Y-89691609D02*
X161407142Y-89548752D01*
X161407142Y-89548752D02*
X161359523Y-89358276D01*
X161359523Y-89358276D02*
X161311904Y-89263038D01*
X161311904Y-89263038D02*
X161216666Y-89167800D01*
X161216666Y-89167800D02*
X161073809Y-89120180D01*
X161073809Y-89120180D02*
X160835714Y-89120180D01*
X161788095Y-89405895D02*
X162264285Y-89405895D01*
X161692857Y-89120180D02*
X162026190Y-90120180D01*
X162026190Y-90120180D02*
X162359523Y-89120180D01*
X176886905Y-81595180D02*
X176886905Y-82595180D01*
X176886905Y-82595180D02*
X177125000Y-82595180D01*
X177125000Y-82595180D02*
X177267857Y-82547561D01*
X177267857Y-82547561D02*
X177363095Y-82452323D01*
X177363095Y-82452323D02*
X177410714Y-82357085D01*
X177410714Y-82357085D02*
X177458333Y-82166609D01*
X177458333Y-82166609D02*
X177458333Y-82023752D01*
X177458333Y-82023752D02*
X177410714Y-81833276D01*
X177410714Y-81833276D02*
X177363095Y-81738038D01*
X177363095Y-81738038D02*
X177267857Y-81642800D01*
X177267857Y-81642800D02*
X177125000Y-81595180D01*
X177125000Y-81595180D02*
X176886905Y-81595180D01*
X177839286Y-82499942D02*
X177886905Y-82547561D01*
X177886905Y-82547561D02*
X177982143Y-82595180D01*
X177982143Y-82595180D02*
X178220238Y-82595180D01*
X178220238Y-82595180D02*
X178315476Y-82547561D01*
X178315476Y-82547561D02*
X178363095Y-82499942D01*
X178363095Y-82499942D02*
X178410714Y-82404704D01*
X178410714Y-82404704D02*
X178410714Y-82309466D01*
X178410714Y-82309466D02*
X178363095Y-82166609D01*
X178363095Y-82166609D02*
X177791667Y-81595180D01*
X177791667Y-81595180D02*
X178410714Y-81595180D01*
X159714286Y-79351133D02*
X160476191Y-79351133D01*
X160095238Y-78970180D02*
X160095238Y-79732085D01*
X161428571Y-79970180D02*
X160952381Y-79970180D01*
X160952381Y-79970180D02*
X160904762Y-79493990D01*
X160904762Y-79493990D02*
X160952381Y-79541609D01*
X160952381Y-79541609D02*
X161047619Y-79589228D01*
X161047619Y-79589228D02*
X161285714Y-79589228D01*
X161285714Y-79589228D02*
X161380952Y-79541609D01*
X161380952Y-79541609D02*
X161428571Y-79493990D01*
X161428571Y-79493990D02*
X161476190Y-79398752D01*
X161476190Y-79398752D02*
X161476190Y-79160657D01*
X161476190Y-79160657D02*
X161428571Y-79065419D01*
X161428571Y-79065419D02*
X161380952Y-79017800D01*
X161380952Y-79017800D02*
X161285714Y-78970180D01*
X161285714Y-78970180D02*
X161047619Y-78970180D01*
X161047619Y-78970180D02*
X160952381Y-79017800D01*
X160952381Y-79017800D02*
X160904762Y-79065419D01*
X161761905Y-79970180D02*
X162095238Y-78970180D01*
X162095238Y-78970180D02*
X162428571Y-79970180D01*
X157420714Y-109425180D02*
X157420714Y-110425180D01*
X157420714Y-110425180D02*
X157658809Y-110425180D01*
X157658809Y-110425180D02*
X157801666Y-110377561D01*
X157801666Y-110377561D02*
X157896904Y-110282323D01*
X157896904Y-110282323D02*
X157944523Y-110187085D01*
X157944523Y-110187085D02*
X157992142Y-109996609D01*
X157992142Y-109996609D02*
X157992142Y-109853752D01*
X157992142Y-109853752D02*
X157944523Y-109663276D01*
X157944523Y-109663276D02*
X157896904Y-109568038D01*
X157896904Y-109568038D02*
X157801666Y-109472800D01*
X157801666Y-109472800D02*
X157658809Y-109425180D01*
X157658809Y-109425180D02*
X157420714Y-109425180D01*
X158944523Y-109425180D02*
X158373095Y-109425180D01*
X158658809Y-109425180D02*
X158658809Y-110425180D01*
X158658809Y-110425180D02*
X158563571Y-110282323D01*
X158563571Y-110282323D02*
X158468333Y-110187085D01*
X158468333Y-110187085D02*
X158373095Y-110139466D01*
X159277857Y-110425180D02*
X159896904Y-110425180D01*
X159896904Y-110425180D02*
X159563571Y-110044228D01*
X159563571Y-110044228D02*
X159706428Y-110044228D01*
X159706428Y-110044228D02*
X159801666Y-109996609D01*
X159801666Y-109996609D02*
X159849285Y-109948990D01*
X159849285Y-109948990D02*
X159896904Y-109853752D01*
X159896904Y-109853752D02*
X159896904Y-109615657D01*
X159896904Y-109615657D02*
X159849285Y-109520419D01*
X159849285Y-109520419D02*
X159801666Y-109472800D01*
X159801666Y-109472800D02*
X159706428Y-109425180D01*
X159706428Y-109425180D02*
X159420714Y-109425180D01*
X159420714Y-109425180D02*
X159325476Y-109472800D01*
X159325476Y-109472800D02*
X159277857Y-109520419D01*
X176886905Y-96835180D02*
X176886905Y-97835180D01*
X176886905Y-97835180D02*
X177125000Y-97835180D01*
X177125000Y-97835180D02*
X177267857Y-97787561D01*
X177267857Y-97787561D02*
X177363095Y-97692323D01*
X177363095Y-97692323D02*
X177410714Y-97597085D01*
X177410714Y-97597085D02*
X177458333Y-97406609D01*
X177458333Y-97406609D02*
X177458333Y-97263752D01*
X177458333Y-97263752D02*
X177410714Y-97073276D01*
X177410714Y-97073276D02*
X177363095Y-96978038D01*
X177363095Y-96978038D02*
X177267857Y-96882800D01*
X177267857Y-96882800D02*
X177125000Y-96835180D01*
X177125000Y-96835180D02*
X176886905Y-96835180D01*
X178029762Y-97406609D02*
X177934524Y-97454228D01*
X177934524Y-97454228D02*
X177886905Y-97501847D01*
X177886905Y-97501847D02*
X177839286Y-97597085D01*
X177839286Y-97597085D02*
X177839286Y-97644704D01*
X177839286Y-97644704D02*
X177886905Y-97739942D01*
X177886905Y-97739942D02*
X177934524Y-97787561D01*
X177934524Y-97787561D02*
X178029762Y-97835180D01*
X178029762Y-97835180D02*
X178220238Y-97835180D01*
X178220238Y-97835180D02*
X178315476Y-97787561D01*
X178315476Y-97787561D02*
X178363095Y-97739942D01*
X178363095Y-97739942D02*
X178410714Y-97644704D01*
X178410714Y-97644704D02*
X178410714Y-97597085D01*
X178410714Y-97597085D02*
X178363095Y-97501847D01*
X178363095Y-97501847D02*
X178315476Y-97454228D01*
X178315476Y-97454228D02*
X178220238Y-97406609D01*
X178220238Y-97406609D02*
X178029762Y-97406609D01*
X178029762Y-97406609D02*
X177934524Y-97358990D01*
X177934524Y-97358990D02*
X177886905Y-97311371D01*
X177886905Y-97311371D02*
X177839286Y-97216133D01*
X177839286Y-97216133D02*
X177839286Y-97025657D01*
X177839286Y-97025657D02*
X177886905Y-96930419D01*
X177886905Y-96930419D02*
X177934524Y-96882800D01*
X177934524Y-96882800D02*
X178029762Y-96835180D01*
X178029762Y-96835180D02*
X178220238Y-96835180D01*
X178220238Y-96835180D02*
X178315476Y-96882800D01*
X178315476Y-96882800D02*
X178363095Y-96930419D01*
X178363095Y-96930419D02*
X178410714Y-97025657D01*
X178410714Y-97025657D02*
X178410714Y-97216133D01*
X178410714Y-97216133D02*
X178363095Y-97311371D01*
X178363095Y-97311371D02*
X178315476Y-97358990D01*
X178315476Y-97358990D02*
X178220238Y-97406609D01*
X160423095Y-74827561D02*
X160327857Y-74875180D01*
X160327857Y-74875180D02*
X160185000Y-74875180D01*
X160185000Y-74875180D02*
X160042143Y-74827561D01*
X160042143Y-74827561D02*
X159946905Y-74732323D01*
X159946905Y-74732323D02*
X159899286Y-74637085D01*
X159899286Y-74637085D02*
X159851667Y-74446609D01*
X159851667Y-74446609D02*
X159851667Y-74303752D01*
X159851667Y-74303752D02*
X159899286Y-74113276D01*
X159899286Y-74113276D02*
X159946905Y-74018038D01*
X159946905Y-74018038D02*
X160042143Y-73922800D01*
X160042143Y-73922800D02*
X160185000Y-73875180D01*
X160185000Y-73875180D02*
X160280238Y-73875180D01*
X160280238Y-73875180D02*
X160423095Y-73922800D01*
X160423095Y-73922800D02*
X160470714Y-73970419D01*
X160470714Y-73970419D02*
X160470714Y-74303752D01*
X160470714Y-74303752D02*
X160280238Y-74303752D01*
X160899286Y-73875180D02*
X160899286Y-74875180D01*
X160899286Y-74875180D02*
X161470714Y-73875180D01*
X161470714Y-73875180D02*
X161470714Y-74875180D01*
X161946905Y-73875180D02*
X161946905Y-74875180D01*
X161946905Y-74875180D02*
X162185000Y-74875180D01*
X162185000Y-74875180D02*
X162327857Y-74827561D01*
X162327857Y-74827561D02*
X162423095Y-74732323D01*
X162423095Y-74732323D02*
X162470714Y-74637085D01*
X162470714Y-74637085D02*
X162518333Y-74446609D01*
X162518333Y-74446609D02*
X162518333Y-74303752D01*
X162518333Y-74303752D02*
X162470714Y-74113276D01*
X162470714Y-74113276D02*
X162423095Y-74018038D01*
X162423095Y-74018038D02*
X162327857Y-73922800D01*
X162327857Y-73922800D02*
X162185000Y-73875180D01*
X162185000Y-73875180D02*
X161946905Y-73875180D01*
X176735714Y-104545180D02*
X176735714Y-105545180D01*
X176735714Y-105545180D02*
X176973809Y-105545180D01*
X176973809Y-105545180D02*
X177116666Y-105497561D01*
X177116666Y-105497561D02*
X177211904Y-105402323D01*
X177211904Y-105402323D02*
X177259523Y-105307085D01*
X177259523Y-105307085D02*
X177307142Y-105116609D01*
X177307142Y-105116609D02*
X177307142Y-104973752D01*
X177307142Y-104973752D02*
X177259523Y-104783276D01*
X177259523Y-104783276D02*
X177211904Y-104688038D01*
X177211904Y-104688038D02*
X177116666Y-104592800D01*
X177116666Y-104592800D02*
X176973809Y-104545180D01*
X176973809Y-104545180D02*
X176735714Y-104545180D01*
X178259523Y-104545180D02*
X177688095Y-104545180D01*
X177973809Y-104545180D02*
X177973809Y-105545180D01*
X177973809Y-105545180D02*
X177878571Y-105402323D01*
X177878571Y-105402323D02*
X177783333Y-105307085D01*
X177783333Y-105307085D02*
X177688095Y-105259466D01*
X179211904Y-104545180D02*
X178640476Y-104545180D01*
X178926190Y-104545180D02*
X178926190Y-105545180D01*
X178926190Y-105545180D02*
X178830952Y-105402323D01*
X178830952Y-105402323D02*
X178735714Y-105307085D01*
X178735714Y-105307085D02*
X178640476Y-105259466D01*
X177463095Y-80007561D02*
X177367857Y-80055180D01*
X177367857Y-80055180D02*
X177225000Y-80055180D01*
X177225000Y-80055180D02*
X177082143Y-80007561D01*
X177082143Y-80007561D02*
X176986905Y-79912323D01*
X176986905Y-79912323D02*
X176939286Y-79817085D01*
X176939286Y-79817085D02*
X176891667Y-79626609D01*
X176891667Y-79626609D02*
X176891667Y-79483752D01*
X176891667Y-79483752D02*
X176939286Y-79293276D01*
X176939286Y-79293276D02*
X176986905Y-79198038D01*
X176986905Y-79198038D02*
X177082143Y-79102800D01*
X177082143Y-79102800D02*
X177225000Y-79055180D01*
X177225000Y-79055180D02*
X177320238Y-79055180D01*
X177320238Y-79055180D02*
X177463095Y-79102800D01*
X177463095Y-79102800D02*
X177510714Y-79150419D01*
X177510714Y-79150419D02*
X177510714Y-79483752D01*
X177510714Y-79483752D02*
X177320238Y-79483752D01*
X177939286Y-79055180D02*
X177939286Y-80055180D01*
X177939286Y-80055180D02*
X178510714Y-79055180D01*
X178510714Y-79055180D02*
X178510714Y-80055180D01*
X178986905Y-79055180D02*
X178986905Y-80055180D01*
X178986905Y-80055180D02*
X179225000Y-80055180D01*
X179225000Y-80055180D02*
X179367857Y-80007561D01*
X179367857Y-80007561D02*
X179463095Y-79912323D01*
X179463095Y-79912323D02*
X179510714Y-79817085D01*
X179510714Y-79817085D02*
X179558333Y-79626609D01*
X179558333Y-79626609D02*
X179558333Y-79483752D01*
X179558333Y-79483752D02*
X179510714Y-79293276D01*
X179510714Y-79293276D02*
X179463095Y-79198038D01*
X179463095Y-79198038D02*
X179367857Y-79102800D01*
X179367857Y-79102800D02*
X179225000Y-79055180D01*
X179225000Y-79055180D02*
X178986905Y-79055180D01*
X176860714Y-101795180D02*
X176860714Y-102795180D01*
X176860714Y-102795180D02*
X177098809Y-102795180D01*
X177098809Y-102795180D02*
X177241666Y-102747561D01*
X177241666Y-102747561D02*
X177336904Y-102652323D01*
X177336904Y-102652323D02*
X177384523Y-102557085D01*
X177384523Y-102557085D02*
X177432142Y-102366609D01*
X177432142Y-102366609D02*
X177432142Y-102223752D01*
X177432142Y-102223752D02*
X177384523Y-102033276D01*
X177384523Y-102033276D02*
X177336904Y-101938038D01*
X177336904Y-101938038D02*
X177241666Y-101842800D01*
X177241666Y-101842800D02*
X177098809Y-101795180D01*
X177098809Y-101795180D02*
X176860714Y-101795180D01*
X178384523Y-101795180D02*
X177813095Y-101795180D01*
X178098809Y-101795180D02*
X178098809Y-102795180D01*
X178098809Y-102795180D02*
X178003571Y-102652323D01*
X178003571Y-102652323D02*
X177908333Y-102557085D01*
X177908333Y-102557085D02*
X177813095Y-102509466D01*
X179003571Y-102795180D02*
X179098809Y-102795180D01*
X179098809Y-102795180D02*
X179194047Y-102747561D01*
X179194047Y-102747561D02*
X179241666Y-102699942D01*
X179241666Y-102699942D02*
X179289285Y-102604704D01*
X179289285Y-102604704D02*
X179336904Y-102414228D01*
X179336904Y-102414228D02*
X179336904Y-102176133D01*
X179336904Y-102176133D02*
X179289285Y-101985657D01*
X179289285Y-101985657D02*
X179241666Y-101890419D01*
X179241666Y-101890419D02*
X179194047Y-101842800D01*
X179194047Y-101842800D02*
X179098809Y-101795180D01*
X179098809Y-101795180D02*
X179003571Y-101795180D01*
X179003571Y-101795180D02*
X178908333Y-101842800D01*
X178908333Y-101842800D02*
X178860714Y-101890419D01*
X178860714Y-101890419D02*
X178813095Y-101985657D01*
X178813095Y-101985657D02*
X178765476Y-102176133D01*
X178765476Y-102176133D02*
X178765476Y-102414228D01*
X178765476Y-102414228D02*
X178813095Y-102604704D01*
X178813095Y-102604704D02*
X178860714Y-102699942D01*
X178860714Y-102699942D02*
X178908333Y-102747561D01*
X178908333Y-102747561D02*
X179003571Y-102795180D01*
X176761905Y-84095180D02*
X176761905Y-85095180D01*
X176761905Y-85095180D02*
X177000000Y-85095180D01*
X177000000Y-85095180D02*
X177142857Y-85047561D01*
X177142857Y-85047561D02*
X177238095Y-84952323D01*
X177238095Y-84952323D02*
X177285714Y-84857085D01*
X177285714Y-84857085D02*
X177333333Y-84666609D01*
X177333333Y-84666609D02*
X177333333Y-84523752D01*
X177333333Y-84523752D02*
X177285714Y-84333276D01*
X177285714Y-84333276D02*
X177238095Y-84238038D01*
X177238095Y-84238038D02*
X177142857Y-84142800D01*
X177142857Y-84142800D02*
X177000000Y-84095180D01*
X177000000Y-84095180D02*
X176761905Y-84095180D01*
X177666667Y-85095180D02*
X178285714Y-85095180D01*
X178285714Y-85095180D02*
X177952381Y-84714228D01*
X177952381Y-84714228D02*
X178095238Y-84714228D01*
X178095238Y-84714228D02*
X178190476Y-84666609D01*
X178190476Y-84666609D02*
X178238095Y-84618990D01*
X178238095Y-84618990D02*
X178285714Y-84523752D01*
X178285714Y-84523752D02*
X178285714Y-84285657D01*
X178285714Y-84285657D02*
X178238095Y-84190419D01*
X178238095Y-84190419D02*
X178190476Y-84142800D01*
X178190476Y-84142800D02*
X178095238Y-84095180D01*
X178095238Y-84095180D02*
X177809524Y-84095180D01*
X177809524Y-84095180D02*
X177714286Y-84142800D01*
X177714286Y-84142800D02*
X177666667Y-84190419D01*
X167066904Y-106904819D02*
X167066904Y-107714342D01*
X167066904Y-107714342D02*
X167019285Y-107809580D01*
X167019285Y-107809580D02*
X166971666Y-107857200D01*
X166971666Y-107857200D02*
X166876428Y-107904819D01*
X166876428Y-107904819D02*
X166685952Y-107904819D01*
X166685952Y-107904819D02*
X166590714Y-107857200D01*
X166590714Y-107857200D02*
X166543095Y-107809580D01*
X166543095Y-107809580D02*
X166495476Y-107714342D01*
X166495476Y-107714342D02*
X166495476Y-106904819D01*
X166066904Y-107857200D02*
X165924047Y-107904819D01*
X165924047Y-107904819D02*
X165685952Y-107904819D01*
X165685952Y-107904819D02*
X165590714Y-107857200D01*
X165590714Y-107857200D02*
X165543095Y-107809580D01*
X165543095Y-107809580D02*
X165495476Y-107714342D01*
X165495476Y-107714342D02*
X165495476Y-107619104D01*
X165495476Y-107619104D02*
X165543095Y-107523866D01*
X165543095Y-107523866D02*
X165590714Y-107476247D01*
X165590714Y-107476247D02*
X165685952Y-107428628D01*
X165685952Y-107428628D02*
X165876428Y-107381009D01*
X165876428Y-107381009D02*
X165971666Y-107333390D01*
X165971666Y-107333390D02*
X166019285Y-107285771D01*
X166019285Y-107285771D02*
X166066904Y-107190533D01*
X166066904Y-107190533D02*
X166066904Y-107095295D01*
X166066904Y-107095295D02*
X166019285Y-107000057D01*
X166019285Y-107000057D02*
X165971666Y-106952438D01*
X165971666Y-106952438D02*
X165876428Y-106904819D01*
X165876428Y-106904819D02*
X165638333Y-106904819D01*
X165638333Y-106904819D02*
X165495476Y-106952438D01*
X164733571Y-107381009D02*
X164590714Y-107428628D01*
X164590714Y-107428628D02*
X164543095Y-107476247D01*
X164543095Y-107476247D02*
X164495476Y-107571485D01*
X164495476Y-107571485D02*
X164495476Y-107714342D01*
X164495476Y-107714342D02*
X164543095Y-107809580D01*
X164543095Y-107809580D02*
X164590714Y-107857200D01*
X164590714Y-107857200D02*
X164685952Y-107904819D01*
X164685952Y-107904819D02*
X165066904Y-107904819D01*
X165066904Y-107904819D02*
X165066904Y-106904819D01*
X165066904Y-106904819D02*
X164733571Y-106904819D01*
X164733571Y-106904819D02*
X164638333Y-106952438D01*
X164638333Y-106952438D02*
X164590714Y-107000057D01*
X164590714Y-107000057D02*
X164543095Y-107095295D01*
X164543095Y-107095295D02*
X164543095Y-107190533D01*
X164543095Y-107190533D02*
X164590714Y-107285771D01*
X164590714Y-107285771D02*
X164638333Y-107333390D01*
X164638333Y-107333390D02*
X164733571Y-107381009D01*
X164733571Y-107381009D02*
X165066904Y-107381009D01*
X170520180Y-108739285D02*
X171520180Y-108739285D01*
X171520180Y-108739285D02*
X171520180Y-108501190D01*
X171520180Y-108501190D02*
X171472561Y-108358333D01*
X171472561Y-108358333D02*
X171377323Y-108263095D01*
X171377323Y-108263095D02*
X171282085Y-108215476D01*
X171282085Y-108215476D02*
X171091609Y-108167857D01*
X171091609Y-108167857D02*
X170948752Y-108167857D01*
X170948752Y-108167857D02*
X170758276Y-108215476D01*
X170758276Y-108215476D02*
X170663038Y-108263095D01*
X170663038Y-108263095D02*
X170567800Y-108358333D01*
X170567800Y-108358333D02*
X170520180Y-108501190D01*
X170520180Y-108501190D02*
X170520180Y-108739285D01*
X170520180Y-107215476D02*
X170520180Y-107786904D01*
X170520180Y-107501190D02*
X171520180Y-107501190D01*
X171520180Y-107501190D02*
X171377323Y-107596428D01*
X171377323Y-107596428D02*
X171282085Y-107691666D01*
X171282085Y-107691666D02*
X171234466Y-107786904D01*
X171424942Y-106834523D02*
X171472561Y-106786904D01*
X171472561Y-106786904D02*
X171520180Y-106691666D01*
X171520180Y-106691666D02*
X171520180Y-106453571D01*
X171520180Y-106453571D02*
X171472561Y-106358333D01*
X171472561Y-106358333D02*
X171424942Y-106310714D01*
X171424942Y-106310714D02*
X171329704Y-106263095D01*
X171329704Y-106263095D02*
X171234466Y-106263095D01*
X171234466Y-106263095D02*
X171091609Y-106310714D01*
X171091609Y-106310714D02*
X170520180Y-106882142D01*
X170520180Y-106882142D02*
X170520180Y-106263095D01*
X176761905Y-89120180D02*
X176761905Y-90120180D01*
X176761905Y-90120180D02*
X177000000Y-90120180D01*
X177000000Y-90120180D02*
X177142857Y-90072561D01*
X177142857Y-90072561D02*
X177238095Y-89977323D01*
X177238095Y-89977323D02*
X177285714Y-89882085D01*
X177285714Y-89882085D02*
X177333333Y-89691609D01*
X177333333Y-89691609D02*
X177333333Y-89548752D01*
X177333333Y-89548752D02*
X177285714Y-89358276D01*
X177285714Y-89358276D02*
X177238095Y-89263038D01*
X177238095Y-89263038D02*
X177142857Y-89167800D01*
X177142857Y-89167800D02*
X177000000Y-89120180D01*
X177000000Y-89120180D02*
X176761905Y-89120180D01*
X178238095Y-90120180D02*
X177761905Y-90120180D01*
X177761905Y-90120180D02*
X177714286Y-89643990D01*
X177714286Y-89643990D02*
X177761905Y-89691609D01*
X177761905Y-89691609D02*
X177857143Y-89739228D01*
X177857143Y-89739228D02*
X178095238Y-89739228D01*
X178095238Y-89739228D02*
X178190476Y-89691609D01*
X178190476Y-89691609D02*
X178238095Y-89643990D01*
X178238095Y-89643990D02*
X178285714Y-89548752D01*
X178285714Y-89548752D02*
X178285714Y-89310657D01*
X178285714Y-89310657D02*
X178238095Y-89215419D01*
X178238095Y-89215419D02*
X178190476Y-89167800D01*
X178190476Y-89167800D02*
X178095238Y-89120180D01*
X178095238Y-89120180D02*
X177857143Y-89120180D01*
X177857143Y-89120180D02*
X177761905Y-89167800D01*
X177761905Y-89167800D02*
X177714286Y-89215419D01*
X159784524Y-86642800D02*
X159927381Y-86595180D01*
X159927381Y-86595180D02*
X160165476Y-86595180D01*
X160165476Y-86595180D02*
X160260714Y-86642800D01*
X160260714Y-86642800D02*
X160308333Y-86690419D01*
X160308333Y-86690419D02*
X160355952Y-86785657D01*
X160355952Y-86785657D02*
X160355952Y-86880895D01*
X160355952Y-86880895D02*
X160308333Y-86976133D01*
X160308333Y-86976133D02*
X160260714Y-87023752D01*
X160260714Y-87023752D02*
X160165476Y-87071371D01*
X160165476Y-87071371D02*
X159975000Y-87118990D01*
X159975000Y-87118990D02*
X159879762Y-87166609D01*
X159879762Y-87166609D02*
X159832143Y-87214228D01*
X159832143Y-87214228D02*
X159784524Y-87309466D01*
X159784524Y-87309466D02*
X159784524Y-87404704D01*
X159784524Y-87404704D02*
X159832143Y-87499942D01*
X159832143Y-87499942D02*
X159879762Y-87547561D01*
X159879762Y-87547561D02*
X159975000Y-87595180D01*
X159975000Y-87595180D02*
X160213095Y-87595180D01*
X160213095Y-87595180D02*
X160355952Y-87547561D01*
X161355952Y-86690419D02*
X161308333Y-86642800D01*
X161308333Y-86642800D02*
X161165476Y-86595180D01*
X161165476Y-86595180D02*
X161070238Y-86595180D01*
X161070238Y-86595180D02*
X160927381Y-86642800D01*
X160927381Y-86642800D02*
X160832143Y-86738038D01*
X160832143Y-86738038D02*
X160784524Y-86833276D01*
X160784524Y-86833276D02*
X160736905Y-87023752D01*
X160736905Y-87023752D02*
X160736905Y-87166609D01*
X160736905Y-87166609D02*
X160784524Y-87357085D01*
X160784524Y-87357085D02*
X160832143Y-87452323D01*
X160832143Y-87452323D02*
X160927381Y-87547561D01*
X160927381Y-87547561D02*
X161070238Y-87595180D01*
X161070238Y-87595180D02*
X161165476Y-87595180D01*
X161165476Y-87595180D02*
X161308333Y-87547561D01*
X161308333Y-87547561D02*
X161355952Y-87499942D01*
X162260714Y-86595180D02*
X161784524Y-86595180D01*
X161784524Y-86595180D02*
X161784524Y-87595180D01*
X176886905Y-99435180D02*
X176886905Y-100435180D01*
X176886905Y-100435180D02*
X177125000Y-100435180D01*
X177125000Y-100435180D02*
X177267857Y-100387561D01*
X177267857Y-100387561D02*
X177363095Y-100292323D01*
X177363095Y-100292323D02*
X177410714Y-100197085D01*
X177410714Y-100197085D02*
X177458333Y-100006609D01*
X177458333Y-100006609D02*
X177458333Y-99863752D01*
X177458333Y-99863752D02*
X177410714Y-99673276D01*
X177410714Y-99673276D02*
X177363095Y-99578038D01*
X177363095Y-99578038D02*
X177267857Y-99482800D01*
X177267857Y-99482800D02*
X177125000Y-99435180D01*
X177125000Y-99435180D02*
X176886905Y-99435180D01*
X177934524Y-99435180D02*
X178125000Y-99435180D01*
X178125000Y-99435180D02*
X178220238Y-99482800D01*
X178220238Y-99482800D02*
X178267857Y-99530419D01*
X178267857Y-99530419D02*
X178363095Y-99673276D01*
X178363095Y-99673276D02*
X178410714Y-99863752D01*
X178410714Y-99863752D02*
X178410714Y-100244704D01*
X178410714Y-100244704D02*
X178363095Y-100339942D01*
X178363095Y-100339942D02*
X178315476Y-100387561D01*
X178315476Y-100387561D02*
X178220238Y-100435180D01*
X178220238Y-100435180D02*
X178029762Y-100435180D01*
X178029762Y-100435180D02*
X177934524Y-100387561D01*
X177934524Y-100387561D02*
X177886905Y-100339942D01*
X177886905Y-100339942D02*
X177839286Y-100244704D01*
X177839286Y-100244704D02*
X177839286Y-100006609D01*
X177839286Y-100006609D02*
X177886905Y-99911371D01*
X177886905Y-99911371D02*
X177934524Y-99863752D01*
X177934524Y-99863752D02*
X178029762Y-99816133D01*
X178029762Y-99816133D02*
X178220238Y-99816133D01*
X178220238Y-99816133D02*
X178315476Y-99863752D01*
X178315476Y-99863752D02*
X178363095Y-99911371D01*
X178363095Y-99911371D02*
X178410714Y-100006609D01*
X159910714Y-92030895D02*
X160386904Y-92030895D01*
X159815476Y-91745180D02*
X160148809Y-92745180D01*
X160148809Y-92745180D02*
X160482142Y-91745180D01*
X160720238Y-92745180D02*
X161339285Y-92745180D01*
X161339285Y-92745180D02*
X161005952Y-92364228D01*
X161005952Y-92364228D02*
X161148809Y-92364228D01*
X161148809Y-92364228D02*
X161244047Y-92316609D01*
X161244047Y-92316609D02*
X161291666Y-92268990D01*
X161291666Y-92268990D02*
X161339285Y-92173752D01*
X161339285Y-92173752D02*
X161339285Y-91935657D01*
X161339285Y-91935657D02*
X161291666Y-91840419D01*
X161291666Y-91840419D02*
X161244047Y-91792800D01*
X161244047Y-91792800D02*
X161148809Y-91745180D01*
X161148809Y-91745180D02*
X160863095Y-91745180D01*
X160863095Y-91745180D02*
X160767857Y-91792800D01*
X160767857Y-91792800D02*
X160720238Y-91840419D01*
X160237380Y-76425180D02*
X159904047Y-76901371D01*
X159665952Y-76425180D02*
X159665952Y-77425180D01*
X159665952Y-77425180D02*
X160046904Y-77425180D01*
X160046904Y-77425180D02*
X160142142Y-77377561D01*
X160142142Y-77377561D02*
X160189761Y-77329942D01*
X160189761Y-77329942D02*
X160237380Y-77234704D01*
X160237380Y-77234704D02*
X160237380Y-77091847D01*
X160237380Y-77091847D02*
X160189761Y-76996609D01*
X160189761Y-76996609D02*
X160142142Y-76948990D01*
X160142142Y-76948990D02*
X160046904Y-76901371D01*
X160046904Y-76901371D02*
X159665952Y-76901371D01*
X160618333Y-76472800D02*
X160761190Y-76425180D01*
X160761190Y-76425180D02*
X160999285Y-76425180D01*
X160999285Y-76425180D02*
X161094523Y-76472800D01*
X161094523Y-76472800D02*
X161142142Y-76520419D01*
X161142142Y-76520419D02*
X161189761Y-76615657D01*
X161189761Y-76615657D02*
X161189761Y-76710895D01*
X161189761Y-76710895D02*
X161142142Y-76806133D01*
X161142142Y-76806133D02*
X161094523Y-76853752D01*
X161094523Y-76853752D02*
X160999285Y-76901371D01*
X160999285Y-76901371D02*
X160808809Y-76948990D01*
X160808809Y-76948990D02*
X160713571Y-76996609D01*
X160713571Y-76996609D02*
X160665952Y-77044228D01*
X160665952Y-77044228D02*
X160618333Y-77139466D01*
X160618333Y-77139466D02*
X160618333Y-77234704D01*
X160618333Y-77234704D02*
X160665952Y-77329942D01*
X160665952Y-77329942D02*
X160713571Y-77377561D01*
X160713571Y-77377561D02*
X160808809Y-77425180D01*
X160808809Y-77425180D02*
X161046904Y-77425180D01*
X161046904Y-77425180D02*
X161189761Y-77377561D01*
X161475476Y-77425180D02*
X162046904Y-77425180D01*
X161761190Y-76425180D02*
X161761190Y-77425180D01*
X160085714Y-94705895D02*
X160561904Y-94705895D01*
X159990476Y-94420180D02*
X160323809Y-95420180D01*
X160323809Y-95420180D02*
X160657142Y-94420180D01*
X160942857Y-95324942D02*
X160990476Y-95372561D01*
X160990476Y-95372561D02*
X161085714Y-95420180D01*
X161085714Y-95420180D02*
X161323809Y-95420180D01*
X161323809Y-95420180D02*
X161419047Y-95372561D01*
X161419047Y-95372561D02*
X161466666Y-95324942D01*
X161466666Y-95324942D02*
X161514285Y-95229704D01*
X161514285Y-95229704D02*
X161514285Y-95134466D01*
X161514285Y-95134466D02*
X161466666Y-94991609D01*
X161466666Y-94991609D02*
X160895238Y-94420180D01*
X160895238Y-94420180D02*
X161514285Y-94420180D01*
X176811905Y-86545180D02*
X176811905Y-87545180D01*
X176811905Y-87545180D02*
X177050000Y-87545180D01*
X177050000Y-87545180D02*
X177192857Y-87497561D01*
X177192857Y-87497561D02*
X177288095Y-87402323D01*
X177288095Y-87402323D02*
X177335714Y-87307085D01*
X177335714Y-87307085D02*
X177383333Y-87116609D01*
X177383333Y-87116609D02*
X177383333Y-86973752D01*
X177383333Y-86973752D02*
X177335714Y-86783276D01*
X177335714Y-86783276D02*
X177288095Y-86688038D01*
X177288095Y-86688038D02*
X177192857Y-86592800D01*
X177192857Y-86592800D02*
X177050000Y-86545180D01*
X177050000Y-86545180D02*
X176811905Y-86545180D01*
X178240476Y-87211847D02*
X178240476Y-86545180D01*
X178002381Y-87592800D02*
X177764286Y-86878514D01*
X177764286Y-86878514D02*
X178383333Y-86878514D01*
X160658866Y-103218095D02*
X160658866Y-103980000D01*
X161039819Y-103599047D02*
X160277914Y-103599047D01*
X160039819Y-104360952D02*
X160039819Y-104979999D01*
X160039819Y-104979999D02*
X160420771Y-104646666D01*
X160420771Y-104646666D02*
X160420771Y-104789523D01*
X160420771Y-104789523D02*
X160468390Y-104884761D01*
X160468390Y-104884761D02*
X160516009Y-104932380D01*
X160516009Y-104932380D02*
X160611247Y-104979999D01*
X160611247Y-104979999D02*
X160849342Y-104979999D01*
X160849342Y-104979999D02*
X160944580Y-104932380D01*
X160944580Y-104932380D02*
X160992200Y-104884761D01*
X160992200Y-104884761D02*
X161039819Y-104789523D01*
X161039819Y-104789523D02*
X161039819Y-104503809D01*
X161039819Y-104503809D02*
X160992200Y-104408571D01*
X160992200Y-104408571D02*
X160944580Y-104360952D01*
X160039819Y-105265714D02*
X161039819Y-105599047D01*
X161039819Y-105599047D02*
X160039819Y-105932380D01*
X160039819Y-106170476D02*
X160039819Y-106789523D01*
X160039819Y-106789523D02*
X160420771Y-106456190D01*
X160420771Y-106456190D02*
X160420771Y-106599047D01*
X160420771Y-106599047D02*
X160468390Y-106694285D01*
X160468390Y-106694285D02*
X160516009Y-106741904D01*
X160516009Y-106741904D02*
X160611247Y-106789523D01*
X160611247Y-106789523D02*
X160849342Y-106789523D01*
X160849342Y-106789523D02*
X160944580Y-106741904D01*
X160944580Y-106741904D02*
X160992200Y-106694285D01*
X160992200Y-106694285D02*
X161039819Y-106599047D01*
X161039819Y-106599047D02*
X161039819Y-106313333D01*
X161039819Y-106313333D02*
X160992200Y-106218095D01*
X160992200Y-106218095D02*
X160944580Y-106170476D01*
X176861905Y-91620180D02*
X176861905Y-92620180D01*
X176861905Y-92620180D02*
X177100000Y-92620180D01*
X177100000Y-92620180D02*
X177242857Y-92572561D01*
X177242857Y-92572561D02*
X177338095Y-92477323D01*
X177338095Y-92477323D02*
X177385714Y-92382085D01*
X177385714Y-92382085D02*
X177433333Y-92191609D01*
X177433333Y-92191609D02*
X177433333Y-92048752D01*
X177433333Y-92048752D02*
X177385714Y-91858276D01*
X177385714Y-91858276D02*
X177338095Y-91763038D01*
X177338095Y-91763038D02*
X177242857Y-91667800D01*
X177242857Y-91667800D02*
X177100000Y-91620180D01*
X177100000Y-91620180D02*
X176861905Y-91620180D01*
X178290476Y-92620180D02*
X178100000Y-92620180D01*
X178100000Y-92620180D02*
X178004762Y-92572561D01*
X178004762Y-92572561D02*
X177957143Y-92524942D01*
X177957143Y-92524942D02*
X177861905Y-92382085D01*
X177861905Y-92382085D02*
X177814286Y-92191609D01*
X177814286Y-92191609D02*
X177814286Y-91810657D01*
X177814286Y-91810657D02*
X177861905Y-91715419D01*
X177861905Y-91715419D02*
X177909524Y-91667800D01*
X177909524Y-91667800D02*
X178004762Y-91620180D01*
X178004762Y-91620180D02*
X178195238Y-91620180D01*
X178195238Y-91620180D02*
X178290476Y-91667800D01*
X178290476Y-91667800D02*
X178338095Y-91715419D01*
X178338095Y-91715419D02*
X178385714Y-91810657D01*
X178385714Y-91810657D02*
X178385714Y-92048752D01*
X178385714Y-92048752D02*
X178338095Y-92143990D01*
X178338095Y-92143990D02*
X178290476Y-92191609D01*
X178290476Y-92191609D02*
X178195238Y-92239228D01*
X178195238Y-92239228D02*
X178004762Y-92239228D01*
X178004762Y-92239228D02*
X177909524Y-92191609D01*
X177909524Y-92191609D02*
X177861905Y-92143990D01*
X177861905Y-92143990D02*
X177814286Y-92048752D01*
D11*
X146239762Y-62324318D02*
X146239762Y-61054318D01*
X144909285Y-62203365D02*
X144969761Y-62263842D01*
X144969761Y-62263842D02*
X145151190Y-62324318D01*
X145151190Y-62324318D02*
X145272142Y-62324318D01*
X145272142Y-62324318D02*
X145453571Y-62263842D01*
X145453571Y-62263842D02*
X145574523Y-62142889D01*
X145574523Y-62142889D02*
X145635000Y-62021937D01*
X145635000Y-62021937D02*
X145695476Y-61780032D01*
X145695476Y-61780032D02*
X145695476Y-61598603D01*
X145695476Y-61598603D02*
X145635000Y-61356699D01*
X145635000Y-61356699D02*
X145574523Y-61235746D01*
X145574523Y-61235746D02*
X145453571Y-61114794D01*
X145453571Y-61114794D02*
X145272142Y-61054318D01*
X145272142Y-61054318D02*
X145151190Y-61054318D01*
X145151190Y-61054318D02*
X144969761Y-61114794D01*
X144969761Y-61114794D02*
X144909285Y-61175270D01*
X143699761Y-62324318D02*
X144425476Y-62324318D01*
X144062619Y-62324318D02*
X144062619Y-61054318D01*
X144062619Y-61054318D02*
X144183571Y-61235746D01*
X144183571Y-61235746D02*
X144304523Y-61356699D01*
X144304523Y-61356699D02*
X144425476Y-61417175D01*
D10*
X140166666Y-58609580D02*
X140214285Y-58657200D01*
X140214285Y-58657200D02*
X140357142Y-58704819D01*
X140357142Y-58704819D02*
X140452380Y-58704819D01*
X140452380Y-58704819D02*
X140595237Y-58657200D01*
X140595237Y-58657200D02*
X140690475Y-58561961D01*
X140690475Y-58561961D02*
X140738094Y-58466723D01*
X140738094Y-58466723D02*
X140785713Y-58276247D01*
X140785713Y-58276247D02*
X140785713Y-58133390D01*
X140785713Y-58133390D02*
X140738094Y-57942914D01*
X140738094Y-57942914D02*
X140690475Y-57847676D01*
X140690475Y-57847676D02*
X140595237Y-57752438D01*
X140595237Y-57752438D02*
X140452380Y-57704819D01*
X140452380Y-57704819D02*
X140357142Y-57704819D01*
X140357142Y-57704819D02*
X140214285Y-57752438D01*
X140214285Y-57752438D02*
X140166666Y-57800057D01*
X139261904Y-57704819D02*
X139738094Y-57704819D01*
X139738094Y-57704819D02*
X139785713Y-58181009D01*
X139785713Y-58181009D02*
X139738094Y-58133390D01*
X139738094Y-58133390D02*
X139642856Y-58085771D01*
X139642856Y-58085771D02*
X139404761Y-58085771D01*
X139404761Y-58085771D02*
X139309523Y-58133390D01*
X139309523Y-58133390D02*
X139261904Y-58181009D01*
X139261904Y-58181009D02*
X139214285Y-58276247D01*
X139214285Y-58276247D02*
X139214285Y-58514342D01*
X139214285Y-58514342D02*
X139261904Y-58609580D01*
X139261904Y-58609580D02*
X139309523Y-58657200D01*
X139309523Y-58657200D02*
X139404761Y-58704819D01*
X139404761Y-58704819D02*
X139642856Y-58704819D01*
X139642856Y-58704819D02*
X139738094Y-58657200D01*
X139738094Y-58657200D02*
X139785713Y-58609580D01*
X146366666Y-116754819D02*
X146699999Y-116278628D01*
X146938094Y-116754819D02*
X146938094Y-115754819D01*
X146938094Y-115754819D02*
X146557142Y-115754819D01*
X146557142Y-115754819D02*
X146461904Y-115802438D01*
X146461904Y-115802438D02*
X146414285Y-115850057D01*
X146414285Y-115850057D02*
X146366666Y-115945295D01*
X146366666Y-115945295D02*
X146366666Y-116088152D01*
X146366666Y-116088152D02*
X146414285Y-116183390D01*
X146414285Y-116183390D02*
X146461904Y-116231009D01*
X146461904Y-116231009D02*
X146557142Y-116278628D01*
X146557142Y-116278628D02*
X146938094Y-116278628D01*
X145509523Y-115754819D02*
X145699999Y-115754819D01*
X145699999Y-115754819D02*
X145795237Y-115802438D01*
X145795237Y-115802438D02*
X145842856Y-115850057D01*
X145842856Y-115850057D02*
X145938094Y-115992914D01*
X145938094Y-115992914D02*
X145985713Y-116183390D01*
X145985713Y-116183390D02*
X145985713Y-116564342D01*
X145985713Y-116564342D02*
X145938094Y-116659580D01*
X145938094Y-116659580D02*
X145890475Y-116707200D01*
X145890475Y-116707200D02*
X145795237Y-116754819D01*
X145795237Y-116754819D02*
X145604761Y-116754819D01*
X145604761Y-116754819D02*
X145509523Y-116707200D01*
X145509523Y-116707200D02*
X145461904Y-116659580D01*
X145461904Y-116659580D02*
X145414285Y-116564342D01*
X145414285Y-116564342D02*
X145414285Y-116326247D01*
X145414285Y-116326247D02*
X145461904Y-116231009D01*
X145461904Y-116231009D02*
X145509523Y-116183390D01*
X145509523Y-116183390D02*
X145604761Y-116135771D01*
X145604761Y-116135771D02*
X145795237Y-116135771D01*
X145795237Y-116135771D02*
X145890475Y-116183390D01*
X145890475Y-116183390D02*
X145938094Y-116231009D01*
X145938094Y-116231009D02*
X145985713Y-116326247D01*
X128066666Y-120359580D02*
X128114285Y-120407200D01*
X128114285Y-120407200D02*
X128257142Y-120454819D01*
X128257142Y-120454819D02*
X128352380Y-120454819D01*
X128352380Y-120454819D02*
X128495237Y-120407200D01*
X128495237Y-120407200D02*
X128590475Y-120311961D01*
X128590475Y-120311961D02*
X128638094Y-120216723D01*
X128638094Y-120216723D02*
X128685713Y-120026247D01*
X128685713Y-120026247D02*
X128685713Y-119883390D01*
X128685713Y-119883390D02*
X128638094Y-119692914D01*
X128638094Y-119692914D02*
X128590475Y-119597676D01*
X128590475Y-119597676D02*
X128495237Y-119502438D01*
X128495237Y-119502438D02*
X128352380Y-119454819D01*
X128352380Y-119454819D02*
X128257142Y-119454819D01*
X128257142Y-119454819D02*
X128114285Y-119502438D01*
X128114285Y-119502438D02*
X128066666Y-119550057D01*
X127733332Y-119454819D02*
X127114285Y-119454819D01*
X127114285Y-119454819D02*
X127447618Y-119835771D01*
X127447618Y-119835771D02*
X127304761Y-119835771D01*
X127304761Y-119835771D02*
X127209523Y-119883390D01*
X127209523Y-119883390D02*
X127161904Y-119931009D01*
X127161904Y-119931009D02*
X127114285Y-120026247D01*
X127114285Y-120026247D02*
X127114285Y-120264342D01*
X127114285Y-120264342D02*
X127161904Y-120359580D01*
X127161904Y-120359580D02*
X127209523Y-120407200D01*
X127209523Y-120407200D02*
X127304761Y-120454819D01*
X127304761Y-120454819D02*
X127590475Y-120454819D01*
X127590475Y-120454819D02*
X127685713Y-120407200D01*
X127685713Y-120407200D02*
X127733332Y-120359580D01*
X135666666Y-111704819D02*
X135999999Y-111228628D01*
X136238094Y-111704819D02*
X136238094Y-110704819D01*
X136238094Y-110704819D02*
X135857142Y-110704819D01*
X135857142Y-110704819D02*
X135761904Y-110752438D01*
X135761904Y-110752438D02*
X135714285Y-110800057D01*
X135714285Y-110800057D02*
X135666666Y-110895295D01*
X135666666Y-110895295D02*
X135666666Y-111038152D01*
X135666666Y-111038152D02*
X135714285Y-111133390D01*
X135714285Y-111133390D02*
X135761904Y-111181009D01*
X135761904Y-111181009D02*
X135857142Y-111228628D01*
X135857142Y-111228628D02*
X136238094Y-111228628D01*
X135285713Y-110800057D02*
X135238094Y-110752438D01*
X135238094Y-110752438D02*
X135142856Y-110704819D01*
X135142856Y-110704819D02*
X134904761Y-110704819D01*
X134904761Y-110704819D02*
X134809523Y-110752438D01*
X134809523Y-110752438D02*
X134761904Y-110800057D01*
X134761904Y-110800057D02*
X134714285Y-110895295D01*
X134714285Y-110895295D02*
X134714285Y-110990533D01*
X134714285Y-110990533D02*
X134761904Y-111133390D01*
X134761904Y-111133390D02*
X135333332Y-111704819D01*
X135333332Y-111704819D02*
X134714285Y-111704819D01*
X121533333Y-64404819D02*
X121533333Y-65119104D01*
X121533333Y-65119104D02*
X121580952Y-65261961D01*
X121580952Y-65261961D02*
X121676190Y-65357200D01*
X121676190Y-65357200D02*
X121819047Y-65404819D01*
X121819047Y-65404819D02*
X121914285Y-65404819D01*
X121152380Y-64404819D02*
X120533333Y-64404819D01*
X120533333Y-64404819D02*
X120866666Y-64785771D01*
X120866666Y-64785771D02*
X120723809Y-64785771D01*
X120723809Y-64785771D02*
X120628571Y-64833390D01*
X120628571Y-64833390D02*
X120580952Y-64881009D01*
X120580952Y-64881009D02*
X120533333Y-64976247D01*
X120533333Y-64976247D02*
X120533333Y-65214342D01*
X120533333Y-65214342D02*
X120580952Y-65309580D01*
X120580952Y-65309580D02*
X120628571Y-65357200D01*
X120628571Y-65357200D02*
X120723809Y-65404819D01*
X120723809Y-65404819D02*
X121009523Y-65404819D01*
X121009523Y-65404819D02*
X121104761Y-65357200D01*
X121104761Y-65357200D02*
X121152380Y-65309580D01*
X145066666Y-56354819D02*
X145399999Y-55878628D01*
X145638094Y-56354819D02*
X145638094Y-55354819D01*
X145638094Y-55354819D02*
X145257142Y-55354819D01*
X145257142Y-55354819D02*
X145161904Y-55402438D01*
X145161904Y-55402438D02*
X145114285Y-55450057D01*
X145114285Y-55450057D02*
X145066666Y-55545295D01*
X145066666Y-55545295D02*
X145066666Y-55688152D01*
X145066666Y-55688152D02*
X145114285Y-55783390D01*
X145114285Y-55783390D02*
X145161904Y-55831009D01*
X145161904Y-55831009D02*
X145257142Y-55878628D01*
X145257142Y-55878628D02*
X145638094Y-55878628D01*
X144590475Y-56354819D02*
X144399999Y-56354819D01*
X144399999Y-56354819D02*
X144304761Y-56307200D01*
X144304761Y-56307200D02*
X144257142Y-56259580D01*
X144257142Y-56259580D02*
X144161904Y-56116723D01*
X144161904Y-56116723D02*
X144114285Y-55926247D01*
X144114285Y-55926247D02*
X144114285Y-55545295D01*
X144114285Y-55545295D02*
X144161904Y-55450057D01*
X144161904Y-55450057D02*
X144209523Y-55402438D01*
X144209523Y-55402438D02*
X144304761Y-55354819D01*
X144304761Y-55354819D02*
X144495237Y-55354819D01*
X144495237Y-55354819D02*
X144590475Y-55402438D01*
X144590475Y-55402438D02*
X144638094Y-55450057D01*
X144638094Y-55450057D02*
X144685713Y-55545295D01*
X144685713Y-55545295D02*
X144685713Y-55783390D01*
X144685713Y-55783390D02*
X144638094Y-55878628D01*
X144638094Y-55878628D02*
X144590475Y-55926247D01*
X144590475Y-55926247D02*
X144495237Y-55973866D01*
X144495237Y-55973866D02*
X144304761Y-55973866D01*
X144304761Y-55973866D02*
X144209523Y-55926247D01*
X144209523Y-55926247D02*
X144161904Y-55878628D01*
X144161904Y-55878628D02*
X144114285Y-55783390D01*
X135666666Y-113954819D02*
X135999999Y-113478628D01*
X136238094Y-113954819D02*
X136238094Y-112954819D01*
X136238094Y-112954819D02*
X135857142Y-112954819D01*
X135857142Y-112954819D02*
X135761904Y-113002438D01*
X135761904Y-113002438D02*
X135714285Y-113050057D01*
X135714285Y-113050057D02*
X135666666Y-113145295D01*
X135666666Y-113145295D02*
X135666666Y-113288152D01*
X135666666Y-113288152D02*
X135714285Y-113383390D01*
X135714285Y-113383390D02*
X135761904Y-113431009D01*
X135761904Y-113431009D02*
X135857142Y-113478628D01*
X135857142Y-113478628D02*
X136238094Y-113478628D01*
X135333332Y-112954819D02*
X134714285Y-112954819D01*
X134714285Y-112954819D02*
X135047618Y-113335771D01*
X135047618Y-113335771D02*
X134904761Y-113335771D01*
X134904761Y-113335771D02*
X134809523Y-113383390D01*
X134809523Y-113383390D02*
X134761904Y-113431009D01*
X134761904Y-113431009D02*
X134714285Y-113526247D01*
X134714285Y-113526247D02*
X134714285Y-113764342D01*
X134714285Y-113764342D02*
X134761904Y-113859580D01*
X134761904Y-113859580D02*
X134809523Y-113907200D01*
X134809523Y-113907200D02*
X134904761Y-113954819D01*
X134904761Y-113954819D02*
X135190475Y-113954819D01*
X135190475Y-113954819D02*
X135285713Y-113907200D01*
X135285713Y-113907200D02*
X135333332Y-113859580D01*
X132261904Y-107704819D02*
X132261904Y-108514342D01*
X132261904Y-108514342D02*
X132214285Y-108609580D01*
X132214285Y-108609580D02*
X132166666Y-108657200D01*
X132166666Y-108657200D02*
X132071428Y-108704819D01*
X132071428Y-108704819D02*
X131880952Y-108704819D01*
X131880952Y-108704819D02*
X131785714Y-108657200D01*
X131785714Y-108657200D02*
X131738095Y-108609580D01*
X131738095Y-108609580D02*
X131690476Y-108514342D01*
X131690476Y-108514342D02*
X131690476Y-107704819D01*
X130690476Y-108704819D02*
X131261904Y-108704819D01*
X130976190Y-108704819D02*
X130976190Y-107704819D01*
X130976190Y-107704819D02*
X131071428Y-107847676D01*
X131071428Y-107847676D02*
X131166666Y-107942914D01*
X131166666Y-107942914D02*
X131261904Y-107990533D01*
X130404819Y-108150000D02*
X130642914Y-108150000D01*
X130547676Y-107911905D02*
X130642914Y-108150000D01*
X130642914Y-108150000D02*
X130547676Y-108388095D01*
X130833390Y-108007143D02*
X130642914Y-108150000D01*
X130642914Y-108150000D02*
X130833390Y-108292857D01*
X130254818Y-108809201D02*
X130492913Y-108809201D01*
X130397675Y-108571106D02*
X130492913Y-108809201D01*
X130492913Y-108809201D02*
X130397675Y-109047296D01*
X130683389Y-108666344D02*
X130492913Y-108809201D01*
X130492913Y-108809201D02*
X130683389Y-108952058D01*
X130966666Y-118154819D02*
X131299999Y-117678628D01*
X131538094Y-118154819D02*
X131538094Y-117154819D01*
X131538094Y-117154819D02*
X131157142Y-117154819D01*
X131157142Y-117154819D02*
X131061904Y-117202438D01*
X131061904Y-117202438D02*
X131014285Y-117250057D01*
X131014285Y-117250057D02*
X130966666Y-117345295D01*
X130966666Y-117345295D02*
X130966666Y-117488152D01*
X130966666Y-117488152D02*
X131014285Y-117583390D01*
X131014285Y-117583390D02*
X131061904Y-117631009D01*
X131061904Y-117631009D02*
X131157142Y-117678628D01*
X131157142Y-117678628D02*
X131538094Y-117678628D01*
X130633332Y-117154819D02*
X129966666Y-117154819D01*
X129966666Y-117154819D02*
X130395237Y-118154819D01*
X128079166Y-107959580D02*
X128126785Y-108007200D01*
X128126785Y-108007200D02*
X128269642Y-108054819D01*
X128269642Y-108054819D02*
X128364880Y-108054819D01*
X128364880Y-108054819D02*
X128507737Y-108007200D01*
X128507737Y-108007200D02*
X128602975Y-107911961D01*
X128602975Y-107911961D02*
X128650594Y-107816723D01*
X128650594Y-107816723D02*
X128698213Y-107626247D01*
X128698213Y-107626247D02*
X128698213Y-107483390D01*
X128698213Y-107483390D02*
X128650594Y-107292914D01*
X128650594Y-107292914D02*
X128602975Y-107197676D01*
X128602975Y-107197676D02*
X128507737Y-107102438D01*
X128507737Y-107102438D02*
X128364880Y-107054819D01*
X128364880Y-107054819D02*
X128269642Y-107054819D01*
X128269642Y-107054819D02*
X128126785Y-107102438D01*
X128126785Y-107102438D02*
X128079166Y-107150057D01*
X127698213Y-107150057D02*
X127650594Y-107102438D01*
X127650594Y-107102438D02*
X127555356Y-107054819D01*
X127555356Y-107054819D02*
X127317261Y-107054819D01*
X127317261Y-107054819D02*
X127222023Y-107102438D01*
X127222023Y-107102438D02*
X127174404Y-107150057D01*
X127174404Y-107150057D02*
X127126785Y-107245295D01*
X127126785Y-107245295D02*
X127126785Y-107340533D01*
X127126785Y-107340533D02*
X127174404Y-107483390D01*
X127174404Y-107483390D02*
X127745832Y-108054819D01*
X127745832Y-108054819D02*
X127126785Y-108054819D01*
X145266666Y-67959819D02*
X145599999Y-67483628D01*
X145838094Y-67959819D02*
X145838094Y-66959819D01*
X145838094Y-66959819D02*
X145457142Y-66959819D01*
X145457142Y-66959819D02*
X145361904Y-67007438D01*
X145361904Y-67007438D02*
X145314285Y-67055057D01*
X145314285Y-67055057D02*
X145266666Y-67150295D01*
X145266666Y-67150295D02*
X145266666Y-67293152D01*
X145266666Y-67293152D02*
X145314285Y-67388390D01*
X145314285Y-67388390D02*
X145361904Y-67436009D01*
X145361904Y-67436009D02*
X145457142Y-67483628D01*
X145457142Y-67483628D02*
X145838094Y-67483628D01*
X144695237Y-67388390D02*
X144790475Y-67340771D01*
X144790475Y-67340771D02*
X144838094Y-67293152D01*
X144838094Y-67293152D02*
X144885713Y-67197914D01*
X144885713Y-67197914D02*
X144885713Y-67150295D01*
X144885713Y-67150295D02*
X144838094Y-67055057D01*
X144838094Y-67055057D02*
X144790475Y-67007438D01*
X144790475Y-67007438D02*
X144695237Y-66959819D01*
X144695237Y-66959819D02*
X144504761Y-66959819D01*
X144504761Y-66959819D02*
X144409523Y-67007438D01*
X144409523Y-67007438D02*
X144361904Y-67055057D01*
X144361904Y-67055057D02*
X144314285Y-67150295D01*
X144314285Y-67150295D02*
X144314285Y-67197914D01*
X144314285Y-67197914D02*
X144361904Y-67293152D01*
X144361904Y-67293152D02*
X144409523Y-67340771D01*
X144409523Y-67340771D02*
X144504761Y-67388390D01*
X144504761Y-67388390D02*
X144695237Y-67388390D01*
X144695237Y-67388390D02*
X144790475Y-67436009D01*
X144790475Y-67436009D02*
X144838094Y-67483628D01*
X144838094Y-67483628D02*
X144885713Y-67578866D01*
X144885713Y-67578866D02*
X144885713Y-67769342D01*
X144885713Y-67769342D02*
X144838094Y-67864580D01*
X144838094Y-67864580D02*
X144790475Y-67912200D01*
X144790475Y-67912200D02*
X144695237Y-67959819D01*
X144695237Y-67959819D02*
X144504761Y-67959819D01*
X144504761Y-67959819D02*
X144409523Y-67912200D01*
X144409523Y-67912200D02*
X144361904Y-67864580D01*
X144361904Y-67864580D02*
X144314285Y-67769342D01*
X144314285Y-67769342D02*
X144314285Y-67578866D01*
X144314285Y-67578866D02*
X144361904Y-67483628D01*
X144361904Y-67483628D02*
X144409523Y-67436009D01*
X144409523Y-67436009D02*
X144504761Y-67388390D01*
X137916666Y-58609580D02*
X137964285Y-58657200D01*
X137964285Y-58657200D02*
X138107142Y-58704819D01*
X138107142Y-58704819D02*
X138202380Y-58704819D01*
X138202380Y-58704819D02*
X138345237Y-58657200D01*
X138345237Y-58657200D02*
X138440475Y-58561961D01*
X138440475Y-58561961D02*
X138488094Y-58466723D01*
X138488094Y-58466723D02*
X138535713Y-58276247D01*
X138535713Y-58276247D02*
X138535713Y-58133390D01*
X138535713Y-58133390D02*
X138488094Y-57942914D01*
X138488094Y-57942914D02*
X138440475Y-57847676D01*
X138440475Y-57847676D02*
X138345237Y-57752438D01*
X138345237Y-57752438D02*
X138202380Y-57704819D01*
X138202380Y-57704819D02*
X138107142Y-57704819D01*
X138107142Y-57704819D02*
X137964285Y-57752438D01*
X137964285Y-57752438D02*
X137916666Y-57800057D01*
X137059523Y-58038152D02*
X137059523Y-58704819D01*
X137297618Y-57657200D02*
X137535713Y-58371485D01*
X137535713Y-58371485D02*
X136916666Y-58371485D01*
X146366666Y-112554819D02*
X146699999Y-112078628D01*
X146938094Y-112554819D02*
X146938094Y-111554819D01*
X146938094Y-111554819D02*
X146557142Y-111554819D01*
X146557142Y-111554819D02*
X146461904Y-111602438D01*
X146461904Y-111602438D02*
X146414285Y-111650057D01*
X146414285Y-111650057D02*
X146366666Y-111745295D01*
X146366666Y-111745295D02*
X146366666Y-111888152D01*
X146366666Y-111888152D02*
X146414285Y-111983390D01*
X146414285Y-111983390D02*
X146461904Y-112031009D01*
X146461904Y-112031009D02*
X146557142Y-112078628D01*
X146557142Y-112078628D02*
X146938094Y-112078628D01*
X145509523Y-111888152D02*
X145509523Y-112554819D01*
X145747618Y-111507200D02*
X145985713Y-112221485D01*
X145985713Y-112221485D02*
X145366666Y-112221485D01*
X146266666Y-114654819D02*
X146599999Y-114178628D01*
X146838094Y-114654819D02*
X146838094Y-113654819D01*
X146838094Y-113654819D02*
X146457142Y-113654819D01*
X146457142Y-113654819D02*
X146361904Y-113702438D01*
X146361904Y-113702438D02*
X146314285Y-113750057D01*
X146314285Y-113750057D02*
X146266666Y-113845295D01*
X146266666Y-113845295D02*
X146266666Y-113988152D01*
X146266666Y-113988152D02*
X146314285Y-114083390D01*
X146314285Y-114083390D02*
X146361904Y-114131009D01*
X146361904Y-114131009D02*
X146457142Y-114178628D01*
X146457142Y-114178628D02*
X146838094Y-114178628D01*
X145361904Y-113654819D02*
X145838094Y-113654819D01*
X145838094Y-113654819D02*
X145885713Y-114131009D01*
X145885713Y-114131009D02*
X145838094Y-114083390D01*
X145838094Y-114083390D02*
X145742856Y-114035771D01*
X145742856Y-114035771D02*
X145504761Y-114035771D01*
X145504761Y-114035771D02*
X145409523Y-114083390D01*
X145409523Y-114083390D02*
X145361904Y-114131009D01*
X145361904Y-114131009D02*
X145314285Y-114226247D01*
X145314285Y-114226247D02*
X145314285Y-114464342D01*
X145314285Y-114464342D02*
X145361904Y-114559580D01*
X145361904Y-114559580D02*
X145409523Y-114607200D01*
X145409523Y-114607200D02*
X145504761Y-114654819D01*
X145504761Y-114654819D02*
X145742856Y-114654819D01*
X145742856Y-114654819D02*
X145838094Y-114607200D01*
X145838094Y-114607200D02*
X145885713Y-114559580D01*
X134066666Y-118159580D02*
X134114285Y-118207200D01*
X134114285Y-118207200D02*
X134257142Y-118254819D01*
X134257142Y-118254819D02*
X134352380Y-118254819D01*
X134352380Y-118254819D02*
X134495237Y-118207200D01*
X134495237Y-118207200D02*
X134590475Y-118111961D01*
X134590475Y-118111961D02*
X134638094Y-118016723D01*
X134638094Y-118016723D02*
X134685713Y-117826247D01*
X134685713Y-117826247D02*
X134685713Y-117683390D01*
X134685713Y-117683390D02*
X134638094Y-117492914D01*
X134638094Y-117492914D02*
X134590475Y-117397676D01*
X134590475Y-117397676D02*
X134495237Y-117302438D01*
X134495237Y-117302438D02*
X134352380Y-117254819D01*
X134352380Y-117254819D02*
X134257142Y-117254819D01*
X134257142Y-117254819D02*
X134114285Y-117302438D01*
X134114285Y-117302438D02*
X134066666Y-117350057D01*
X133114285Y-118254819D02*
X133685713Y-118254819D01*
X133399999Y-118254819D02*
X133399999Y-117254819D01*
X133399999Y-117254819D02*
X133495237Y-117397676D01*
X133495237Y-117397676D02*
X133590475Y-117492914D01*
X133590475Y-117492914D02*
X133685713Y-117540533D01*
D12*
%TO.C,R1*%
X137960436Y-108365000D02*
X138414564Y-108365000D01*
X137960436Y-109835000D02*
X138414564Y-109835000D01*
%TO.C,A1*%
X156785000Y-111190000D02*
X156785000Y-108720000D01*
X161865000Y-110890000D02*
X169745000Y-110890000D01*
X169745000Y-110890000D02*
X169745000Y-103510000D01*
X159455000Y-108720000D02*
X156785000Y-108720000D01*
X172155000Y-108720000D02*
X174825000Y-108720000D01*
X174825000Y-108720000D02*
X174825000Y-111190000D01*
X161865000Y-103510000D02*
X161865000Y-110890000D01*
X169745000Y-103510000D02*
X161865000Y-103510000D01*
X172155000Y-73160000D02*
X172155000Y-108720000D01*
X172155000Y-73160000D02*
X174825000Y-73160000D01*
X172155000Y-73160000D02*
X172155000Y-70620000D01*
X156785000Y-70620000D02*
X156785000Y-67950000D01*
X159455000Y-70620000D02*
X159455000Y-108720000D01*
X159455000Y-70620000D02*
X156785000Y-70620000D01*
X172155000Y-70620000D02*
X174825000Y-70620000D01*
X156785000Y-67950000D02*
X174825000Y-67950000D01*
X174825000Y-67950000D02*
X174825000Y-70620000D01*
D13*
%TO.C,IC1*%
X141550000Y-64180000D02*
X143050000Y-64180000D01*
X143400000Y-59150000D02*
X143400000Y-64050000D01*
X143400000Y-64050000D02*
X146600000Y-64050000D01*
X146600000Y-59150000D02*
X143400000Y-59150000D01*
X146600000Y-64050000D02*
X146600000Y-59150000D01*
D12*
%TO.C,C5*%
X139365000Y-60966252D02*
X139365000Y-60443748D01*
X140835000Y-60966252D02*
X140835000Y-60443748D01*
%TO.C,R6*%
X143047936Y-115565000D02*
X143502064Y-115565000D01*
X143047936Y-117035000D02*
X143502064Y-117035000D01*
%TO.C,C3*%
X127788748Y-117165000D02*
X128311252Y-117165000D01*
X127788748Y-118635000D02*
X128311252Y-118635000D01*
%TO.C,R2*%
X137960436Y-110465000D02*
X138414564Y-110465000D01*
X137960436Y-111935000D02*
X138414564Y-111935000D01*
%TO.C,J3*%
X115665000Y-58190000D02*
X117515000Y-58190000D01*
X115665000Y-59990000D02*
X115665000Y-58190000D01*
X115665000Y-63310000D02*
X115665000Y-63860000D01*
X115665000Y-63860000D02*
X126735000Y-63860000D01*
X117515000Y-58190000D02*
X117515000Y-57450000D01*
X126735000Y-58190000D02*
X124885000Y-58190000D01*
X126735000Y-59990000D02*
X126735000Y-58190000D01*
X126735000Y-63860000D02*
X126735000Y-63310000D01*
%TO.C,R9*%
X145127064Y-58440000D02*
X144672936Y-58440000D01*
X145127064Y-56970000D02*
X144672936Y-56970000D01*
%TO.C,R3*%
X137960436Y-112665000D02*
X138414564Y-112665000D01*
X137960436Y-114135000D02*
X138414564Y-114135000D01*
D14*
%TO.C,U1*%
X133225599Y-109774401D02*
X133225599Y-110165660D01*
X132834340Y-109774401D02*
X133225599Y-109774401D01*
X129974399Y-109774401D02*
X130365658Y-109774401D01*
X129974399Y-110165660D02*
X129974399Y-109774401D01*
X133225599Y-112634342D02*
X133225599Y-113025601D01*
X133225599Y-113025601D02*
X132834340Y-113025601D01*
X130365658Y-113025601D02*
X129974399Y-113025601D01*
X129974399Y-113025601D02*
X129974399Y-112634342D01*
G36*
X129542599Y-110790500D02*
G01*
X129288599Y-110790500D01*
X129288599Y-110409500D01*
X129542599Y-110409500D01*
X129542599Y-110790500D01*
G37*
G36*
X133911399Y-112390502D02*
G01*
X133657399Y-112390502D01*
X133657399Y-112009502D01*
X133911399Y-112009502D01*
X133911399Y-112390502D01*
G37*
D12*
%TO.C,R7*%
X129872936Y-114965000D02*
X130327064Y-114965000D01*
X129872936Y-116435000D02*
X130327064Y-116435000D01*
%TO.C,C2*%
X127065000Y-110011252D02*
X127065000Y-109488748D01*
X128535000Y-110011252D02*
X128535000Y-109488748D01*
%TO.C,R8*%
X145327064Y-66240000D02*
X144872936Y-66240000D01*
X145327064Y-64770000D02*
X144872936Y-64770000D01*
%TO.C,C4*%
X137165000Y-60966252D02*
X137165000Y-60443748D01*
X138635000Y-60966252D02*
X138635000Y-60443748D01*
%TO.C,R4*%
X143072936Y-111265000D02*
X143527064Y-111265000D01*
X143072936Y-112735000D02*
X143527064Y-112735000D01*
%TO.C,R5*%
X143072936Y-113465000D02*
X143527064Y-113465000D01*
X143072936Y-114935000D02*
X143527064Y-114935000D01*
%TO.C,C1*%
X133488748Y-114965000D02*
X134011252Y-114965000D01*
X133488748Y-116435000D02*
X134011252Y-116435000D01*
%TD*%
M02*
