M48
; DRILL file {KiCad 7.0.7-rc1} date 2024 March 12, Tuesday 16:47:19
; FORMAT={-:-/ absolute / inch / decimal}
; #@! TF.CreationDate,2024-03-12T16:47:19-04:00
; #@! TF.GenerationSoftware,Kicad,Pcbnew,7.0.7-rc1
; #@! TF.FileFunction,Plated,1,2,PTH
FMAT,2
INCH
; #@! TA.AperFunction,Plated,PTH,ViaDrill
T1C0.0157
; #@! TA.AperFunction,Plated,PTH,ComponentDrill
T2C0.0276
; #@! TA.AperFunction,Plated,PTH,ComponentDrill
T3C0.0394
; #@! TA.AperFunction,Plated,PTH,ComponentDrill
T4C0.0689
%
G90
G05
T1
X4.5984Y-2.3268
X4.7205Y-2.2008
X4.8543Y-2.2362
X4.9803Y-4.3583
X5.0039Y-4.5276
X5.0472Y-4.5276
X5.0827Y-4.4331
X5.0866Y-4.3543
X5.1142Y-4.2717
X5.1614Y-4.3661
X5.1614Y-4.4055
X5.1811Y-4.3858
X5.2008Y-4.3661
X5.2008Y-4.4055
X5.2559Y-4.4882
X5.3346Y-4.2953
X5.3459Y-4.4257
X5.3504Y-4.3622
X5.4724Y-4.5374
X5.5551Y-4.4252
X5.6024Y-2.5906
X5.752Y-4.5984
X5.8524Y-2.2608
X6.3248Y-2.5236
X6.6902Y-4.1079
X6.7303Y-3.9839
T2
X4.6772Y-4.3504
X4.6772Y-4.4004
X4.6772Y-4.4504
T3
X6.2278Y-2.8303
X6.2278Y-2.9303
X6.2278Y-3.0303
X6.2278Y-3.1303
X6.2278Y-3.2303
X6.2278Y-3.3303
X6.2278Y-3.4303
X6.2278Y-3.5303
X6.2278Y-3.6303
X6.2278Y-3.7303
X6.2278Y-3.8303
X6.2278Y-3.9303
X6.2278Y-4.0303
X6.2278Y-4.1303
X6.2278Y-4.2303
X6.8278Y-2.8303
X6.8278Y-2.9303
X6.8278Y-3.0303
X6.8278Y-3.1303
X6.8278Y-3.2303
X6.8278Y-3.3303
X6.8278Y-3.4303
X6.8278Y-3.5303
X6.8278Y-3.6303
X6.8278Y-3.7303
X6.8278Y-3.8303
X6.8278Y-3.9303
X6.8278Y-4.0303
X6.8278Y-4.1303
X6.8278Y-4.2303
T4
X4.2559Y-2.7835
X4.4685Y-2.7835
X4.6811Y-2.7835
X5.1378Y-2.1929
X5.1378Y-2.4055
X5.1378Y-2.6181
T0
M30
