%TF.GenerationSoftware,KiCad,Pcbnew,7.0.7-rc1*%
%TF.CreationDate,2024-03-12T16:47:17-04:00*%
%TF.ProjectId,Moving,4d6f7669-6e67-42e6-9b69-6361645f7063,rev?*%
%TF.SameCoordinates,Original*%
%TF.FileFunction,Legend,Top*%
%TF.FilePolarity,Positive*%
%FSLAX46Y46*%
G04 Gerber Fmt 4.6, Leading zero omitted, Abs format (unit mm)*
G04 Created by KiCad (PCBNEW 7.0.7-rc1) date 2024-03-12 16:47:17*
%MOMM*%
%LPD*%
G01*
G04 APERTURE LIST*
%ADD10C,0.150000*%
%ADD11C,0.120000*%
G04 APERTURE END LIST*
D10*
X125440475Y-125399819D02*
X125440475Y-124399819D01*
X125440475Y-124399819D02*
X125821427Y-124399819D01*
X125821427Y-124399819D02*
X125916665Y-124447438D01*
X125916665Y-124447438D02*
X125964284Y-124495057D01*
X125964284Y-124495057D02*
X126011903Y-124590295D01*
X126011903Y-124590295D02*
X126011903Y-124733152D01*
X126011903Y-124733152D02*
X125964284Y-124828390D01*
X125964284Y-124828390D02*
X125916665Y-124876009D01*
X125916665Y-124876009D02*
X125821427Y-124923628D01*
X125821427Y-124923628D02*
X125440475Y-124923628D01*
X126821427Y-125352200D02*
X126726189Y-125399819D01*
X126726189Y-125399819D02*
X126535713Y-125399819D01*
X126535713Y-125399819D02*
X126440475Y-125352200D01*
X126440475Y-125352200D02*
X126392856Y-125256961D01*
X126392856Y-125256961D02*
X126392856Y-124876009D01*
X126392856Y-124876009D02*
X126440475Y-124780771D01*
X126440475Y-124780771D02*
X126535713Y-124733152D01*
X126535713Y-124733152D02*
X126726189Y-124733152D01*
X126726189Y-124733152D02*
X126821427Y-124780771D01*
X126821427Y-124780771D02*
X126869046Y-124876009D01*
X126869046Y-124876009D02*
X126869046Y-124971247D01*
X126869046Y-124971247D02*
X126392856Y-125066485D01*
X127726189Y-124733152D02*
X127726189Y-125542676D01*
X127726189Y-125542676D02*
X127678570Y-125637914D01*
X127678570Y-125637914D02*
X127630951Y-125685533D01*
X127630951Y-125685533D02*
X127535713Y-125733152D01*
X127535713Y-125733152D02*
X127392856Y-125733152D01*
X127392856Y-125733152D02*
X127297618Y-125685533D01*
X127726189Y-125352200D02*
X127630951Y-125399819D01*
X127630951Y-125399819D02*
X127440475Y-125399819D01*
X127440475Y-125399819D02*
X127345237Y-125352200D01*
X127345237Y-125352200D02*
X127297618Y-125304580D01*
X127297618Y-125304580D02*
X127249999Y-125209342D01*
X127249999Y-125209342D02*
X127249999Y-124923628D01*
X127249999Y-124923628D02*
X127297618Y-124828390D01*
X127297618Y-124828390D02*
X127345237Y-124780771D01*
X127345237Y-124780771D02*
X127440475Y-124733152D01*
X127440475Y-124733152D02*
X127630951Y-124733152D01*
X127630951Y-124733152D02*
X127726189Y-124780771D01*
X128630951Y-125399819D02*
X128630951Y-124876009D01*
X128630951Y-124876009D02*
X128583332Y-124780771D01*
X128583332Y-124780771D02*
X128488094Y-124733152D01*
X128488094Y-124733152D02*
X128297618Y-124733152D01*
X128297618Y-124733152D02*
X128202380Y-124780771D01*
X128630951Y-125352200D02*
X128535713Y-125399819D01*
X128535713Y-125399819D02*
X128297618Y-125399819D01*
X128297618Y-125399819D02*
X128202380Y-125352200D01*
X128202380Y-125352200D02*
X128154761Y-125256961D01*
X128154761Y-125256961D02*
X128154761Y-125161723D01*
X128154761Y-125161723D02*
X128202380Y-125066485D01*
X128202380Y-125066485D02*
X128297618Y-125018866D01*
X128297618Y-125018866D02*
X128535713Y-125018866D01*
X128535713Y-125018866D02*
X128630951Y-124971247D01*
X129107142Y-125399819D02*
X129107142Y-124733152D01*
X129107142Y-124923628D02*
X129154761Y-124828390D01*
X129154761Y-124828390D02*
X129202380Y-124780771D01*
X129202380Y-124780771D02*
X129297618Y-124733152D01*
X129297618Y-124733152D02*
X129392856Y-124733152D01*
X130154761Y-125399819D02*
X130154761Y-124399819D01*
X130154761Y-125352200D02*
X130059523Y-125399819D01*
X130059523Y-125399819D02*
X129869047Y-125399819D01*
X129869047Y-125399819D02*
X129773809Y-125352200D01*
X129773809Y-125352200D02*
X129726190Y-125304580D01*
X129726190Y-125304580D02*
X129678571Y-125209342D01*
X129678571Y-125209342D02*
X129678571Y-124923628D01*
X129678571Y-124923628D02*
X129726190Y-124828390D01*
X129726190Y-124828390D02*
X129773809Y-124780771D01*
X129773809Y-124780771D02*
X129869047Y-124733152D01*
X129869047Y-124733152D02*
X130059523Y-124733152D01*
X130059523Y-124733152D02*
X130154761Y-124780771D01*
X132202381Y-125399819D02*
X132154762Y-125399819D01*
X132154762Y-125399819D02*
X132059523Y-125352200D01*
X132059523Y-125352200D02*
X131916666Y-125209342D01*
X131916666Y-125209342D02*
X131678571Y-124923628D01*
X131678571Y-124923628D02*
X131583333Y-124780771D01*
X131583333Y-124780771D02*
X131535714Y-124637914D01*
X131535714Y-124637914D02*
X131535714Y-124542676D01*
X131535714Y-124542676D02*
X131583333Y-124447438D01*
X131583333Y-124447438D02*
X131678571Y-124399819D01*
X131678571Y-124399819D02*
X131726190Y-124399819D01*
X131726190Y-124399819D02*
X131821428Y-124447438D01*
X131821428Y-124447438D02*
X131869047Y-124542676D01*
X131869047Y-124542676D02*
X131869047Y-124590295D01*
X131869047Y-124590295D02*
X131821428Y-124685533D01*
X131821428Y-124685533D02*
X131773809Y-124733152D01*
X131773809Y-124733152D02*
X131488095Y-124923628D01*
X131488095Y-124923628D02*
X131440476Y-124971247D01*
X131440476Y-124971247D02*
X131392857Y-125066485D01*
X131392857Y-125066485D02*
X131392857Y-125209342D01*
X131392857Y-125209342D02*
X131440476Y-125304580D01*
X131440476Y-125304580D02*
X131488095Y-125352200D01*
X131488095Y-125352200D02*
X131583333Y-125399819D01*
X131583333Y-125399819D02*
X131726190Y-125399819D01*
X131726190Y-125399819D02*
X131821428Y-125352200D01*
X131821428Y-125352200D02*
X131869047Y-125304580D01*
X131869047Y-125304580D02*
X132011904Y-125114104D01*
X132011904Y-125114104D02*
X132059523Y-124971247D01*
X132059523Y-124971247D02*
X132059523Y-124876009D01*
X133964285Y-125399819D02*
X133630952Y-124923628D01*
X133392857Y-125399819D02*
X133392857Y-124399819D01*
X133392857Y-124399819D02*
X133773809Y-124399819D01*
X133773809Y-124399819D02*
X133869047Y-124447438D01*
X133869047Y-124447438D02*
X133916666Y-124495057D01*
X133916666Y-124495057D02*
X133964285Y-124590295D01*
X133964285Y-124590295D02*
X133964285Y-124733152D01*
X133964285Y-124733152D02*
X133916666Y-124828390D01*
X133916666Y-124828390D02*
X133869047Y-124876009D01*
X133869047Y-124876009D02*
X133773809Y-124923628D01*
X133773809Y-124923628D02*
X133392857Y-124923628D01*
X134535714Y-125399819D02*
X134440476Y-125352200D01*
X134440476Y-125352200D02*
X134392857Y-125304580D01*
X134392857Y-125304580D02*
X134345238Y-125209342D01*
X134345238Y-125209342D02*
X134345238Y-124923628D01*
X134345238Y-124923628D02*
X134392857Y-124828390D01*
X134392857Y-124828390D02*
X134440476Y-124780771D01*
X134440476Y-124780771D02*
X134535714Y-124733152D01*
X134535714Y-124733152D02*
X134678571Y-124733152D01*
X134678571Y-124733152D02*
X134773809Y-124780771D01*
X134773809Y-124780771D02*
X134821428Y-124828390D01*
X134821428Y-124828390D02*
X134869047Y-124923628D01*
X134869047Y-124923628D02*
X134869047Y-125209342D01*
X134869047Y-125209342D02*
X134821428Y-125304580D01*
X134821428Y-125304580D02*
X134773809Y-125352200D01*
X134773809Y-125352200D02*
X134678571Y-125399819D01*
X134678571Y-125399819D02*
X134535714Y-125399819D01*
X135726190Y-125399819D02*
X135726190Y-124399819D01*
X135726190Y-125352200D02*
X135630952Y-125399819D01*
X135630952Y-125399819D02*
X135440476Y-125399819D01*
X135440476Y-125399819D02*
X135345238Y-125352200D01*
X135345238Y-125352200D02*
X135297619Y-125304580D01*
X135297619Y-125304580D02*
X135250000Y-125209342D01*
X135250000Y-125209342D02*
X135250000Y-124923628D01*
X135250000Y-124923628D02*
X135297619Y-124828390D01*
X135297619Y-124828390D02*
X135345238Y-124780771D01*
X135345238Y-124780771D02*
X135440476Y-124733152D01*
X135440476Y-124733152D02*
X135630952Y-124733152D01*
X135630952Y-124733152D02*
X135726190Y-124780771D01*
X136202381Y-125399819D02*
X136202381Y-124733152D01*
X136202381Y-124923628D02*
X136250000Y-124828390D01*
X136250000Y-124828390D02*
X136297619Y-124780771D01*
X136297619Y-124780771D02*
X136392857Y-124733152D01*
X136392857Y-124733152D02*
X136488095Y-124733152D01*
X136821429Y-125399819D02*
X136821429Y-124733152D01*
X136821429Y-124399819D02*
X136773810Y-124447438D01*
X136773810Y-124447438D02*
X136821429Y-124495057D01*
X136821429Y-124495057D02*
X136869048Y-124447438D01*
X136869048Y-124447438D02*
X136821429Y-124399819D01*
X136821429Y-124399819D02*
X136821429Y-124495057D01*
X137726190Y-124733152D02*
X137726190Y-125542676D01*
X137726190Y-125542676D02*
X137678571Y-125637914D01*
X137678571Y-125637914D02*
X137630952Y-125685533D01*
X137630952Y-125685533D02*
X137535714Y-125733152D01*
X137535714Y-125733152D02*
X137392857Y-125733152D01*
X137392857Y-125733152D02*
X137297619Y-125685533D01*
X137726190Y-125352200D02*
X137630952Y-125399819D01*
X137630952Y-125399819D02*
X137440476Y-125399819D01*
X137440476Y-125399819D02*
X137345238Y-125352200D01*
X137345238Y-125352200D02*
X137297619Y-125304580D01*
X137297619Y-125304580D02*
X137250000Y-125209342D01*
X137250000Y-125209342D02*
X137250000Y-124923628D01*
X137250000Y-124923628D02*
X137297619Y-124828390D01*
X137297619Y-124828390D02*
X137345238Y-124780771D01*
X137345238Y-124780771D02*
X137440476Y-124733152D01*
X137440476Y-124733152D02*
X137630952Y-124733152D01*
X137630952Y-124733152D02*
X137726190Y-124780771D01*
X138630952Y-124733152D02*
X138630952Y-125399819D01*
X138202381Y-124733152D02*
X138202381Y-125256961D01*
X138202381Y-125256961D02*
X138250000Y-125352200D01*
X138250000Y-125352200D02*
X138345238Y-125399819D01*
X138345238Y-125399819D02*
X138488095Y-125399819D01*
X138488095Y-125399819D02*
X138583333Y-125352200D01*
X138583333Y-125352200D02*
X138630952Y-125304580D01*
X139488095Y-125352200D02*
X139392857Y-125399819D01*
X139392857Y-125399819D02*
X139202381Y-125399819D01*
X139202381Y-125399819D02*
X139107143Y-125352200D01*
X139107143Y-125352200D02*
X139059524Y-125256961D01*
X139059524Y-125256961D02*
X139059524Y-124876009D01*
X139059524Y-124876009D02*
X139107143Y-124780771D01*
X139107143Y-124780771D02*
X139202381Y-124733152D01*
X139202381Y-124733152D02*
X139392857Y-124733152D01*
X139392857Y-124733152D02*
X139488095Y-124780771D01*
X139488095Y-124780771D02*
X139535714Y-124876009D01*
X139535714Y-124876009D02*
X139535714Y-124971247D01*
X139535714Y-124971247D02*
X139059524Y-125066485D01*
X139869048Y-124733152D02*
X140392857Y-124733152D01*
X140392857Y-124733152D02*
X139869048Y-125399819D01*
X139869048Y-125399819D02*
X140392857Y-125399819D01*
X140773810Y-125018866D02*
X141535715Y-125018866D01*
X142583333Y-125399819D02*
X142250000Y-124923628D01*
X142011905Y-125399819D02*
X142011905Y-124399819D01*
X142011905Y-124399819D02*
X142392857Y-124399819D01*
X142392857Y-124399819D02*
X142488095Y-124447438D01*
X142488095Y-124447438D02*
X142535714Y-124495057D01*
X142535714Y-124495057D02*
X142583333Y-124590295D01*
X142583333Y-124590295D02*
X142583333Y-124733152D01*
X142583333Y-124733152D02*
X142535714Y-124828390D01*
X142535714Y-124828390D02*
X142488095Y-124876009D01*
X142488095Y-124876009D02*
X142392857Y-124923628D01*
X142392857Y-124923628D02*
X142011905Y-124923628D01*
X143154762Y-125399819D02*
X143059524Y-125352200D01*
X143059524Y-125352200D02*
X143011905Y-125304580D01*
X143011905Y-125304580D02*
X142964286Y-125209342D01*
X142964286Y-125209342D02*
X142964286Y-124923628D01*
X142964286Y-124923628D02*
X143011905Y-124828390D01*
X143011905Y-124828390D02*
X143059524Y-124780771D01*
X143059524Y-124780771D02*
X143154762Y-124733152D01*
X143154762Y-124733152D02*
X143297619Y-124733152D01*
X143297619Y-124733152D02*
X143392857Y-124780771D01*
X143392857Y-124780771D02*
X143440476Y-124828390D01*
X143440476Y-124828390D02*
X143488095Y-124923628D01*
X143488095Y-124923628D02*
X143488095Y-125209342D01*
X143488095Y-125209342D02*
X143440476Y-125304580D01*
X143440476Y-125304580D02*
X143392857Y-125352200D01*
X143392857Y-125352200D02*
X143297619Y-125399819D01*
X143297619Y-125399819D02*
X143154762Y-125399819D01*
X143916667Y-125399819D02*
X143916667Y-124733152D01*
X143916667Y-124828390D02*
X143964286Y-124780771D01*
X143964286Y-124780771D02*
X144059524Y-124733152D01*
X144059524Y-124733152D02*
X144202381Y-124733152D01*
X144202381Y-124733152D02*
X144297619Y-124780771D01*
X144297619Y-124780771D02*
X144345238Y-124876009D01*
X144345238Y-124876009D02*
X144345238Y-125399819D01*
X144345238Y-124876009D02*
X144392857Y-124780771D01*
X144392857Y-124780771D02*
X144488095Y-124733152D01*
X144488095Y-124733152D02*
X144630952Y-124733152D01*
X144630952Y-124733152D02*
X144726191Y-124780771D01*
X144726191Y-124780771D02*
X144773810Y-124876009D01*
X144773810Y-124876009D02*
X144773810Y-125399819D01*
X145678571Y-125399819D02*
X145678571Y-124876009D01*
X145678571Y-124876009D02*
X145630952Y-124780771D01*
X145630952Y-124780771D02*
X145535714Y-124733152D01*
X145535714Y-124733152D02*
X145345238Y-124733152D01*
X145345238Y-124733152D02*
X145250000Y-124780771D01*
X145678571Y-125352200D02*
X145583333Y-125399819D01*
X145583333Y-125399819D02*
X145345238Y-125399819D01*
X145345238Y-125399819D02*
X145250000Y-125352200D01*
X145250000Y-125352200D02*
X145202381Y-125256961D01*
X145202381Y-125256961D02*
X145202381Y-125161723D01*
X145202381Y-125161723D02*
X145250000Y-125066485D01*
X145250000Y-125066485D02*
X145345238Y-125018866D01*
X145345238Y-125018866D02*
X145583333Y-125018866D01*
X145583333Y-125018866D02*
X145678571Y-124971247D01*
X146583333Y-124733152D02*
X146583333Y-125542676D01*
X146583333Y-125542676D02*
X146535714Y-125637914D01*
X146535714Y-125637914D02*
X146488095Y-125685533D01*
X146488095Y-125685533D02*
X146392857Y-125733152D01*
X146392857Y-125733152D02*
X146250000Y-125733152D01*
X146250000Y-125733152D02*
X146154762Y-125685533D01*
X146583333Y-125352200D02*
X146488095Y-125399819D01*
X146488095Y-125399819D02*
X146297619Y-125399819D01*
X146297619Y-125399819D02*
X146202381Y-125352200D01*
X146202381Y-125352200D02*
X146154762Y-125304580D01*
X146154762Y-125304580D02*
X146107143Y-125209342D01*
X146107143Y-125209342D02*
X146107143Y-124923628D01*
X146107143Y-124923628D02*
X146154762Y-124828390D01*
X146154762Y-124828390D02*
X146202381Y-124780771D01*
X146202381Y-124780771D02*
X146297619Y-124733152D01*
X146297619Y-124733152D02*
X146488095Y-124733152D01*
X146488095Y-124733152D02*
X146583333Y-124780771D01*
X147488095Y-124733152D02*
X147488095Y-125399819D01*
X147059524Y-124733152D02*
X147059524Y-125256961D01*
X147059524Y-125256961D02*
X147107143Y-125352200D01*
X147107143Y-125352200D02*
X147202381Y-125399819D01*
X147202381Y-125399819D02*
X147345238Y-125399819D01*
X147345238Y-125399819D02*
X147440476Y-125352200D01*
X147440476Y-125352200D02*
X147488095Y-125304580D01*
X148345238Y-125352200D02*
X148250000Y-125399819D01*
X148250000Y-125399819D02*
X148059524Y-125399819D01*
X148059524Y-125399819D02*
X147964286Y-125352200D01*
X147964286Y-125352200D02*
X147916667Y-125256961D01*
X147916667Y-125256961D02*
X147916667Y-124876009D01*
X147916667Y-124876009D02*
X147964286Y-124780771D01*
X147964286Y-124780771D02*
X148059524Y-124733152D01*
X148059524Y-124733152D02*
X148250000Y-124733152D01*
X148250000Y-124733152D02*
X148345238Y-124780771D01*
X148345238Y-124780771D02*
X148392857Y-124876009D01*
X148392857Y-124876009D02*
X148392857Y-124971247D01*
X148392857Y-124971247D02*
X147916667Y-125066485D01*
X148821429Y-125399819D02*
X148821429Y-124733152D01*
X148821429Y-124923628D02*
X148869048Y-124828390D01*
X148869048Y-124828390D02*
X148916667Y-124780771D01*
X148916667Y-124780771D02*
X149011905Y-124733152D01*
X149011905Y-124733152D02*
X149107143Y-124733152D01*
X149869048Y-125399819D02*
X149869048Y-124876009D01*
X149869048Y-124876009D02*
X149821429Y-124780771D01*
X149821429Y-124780771D02*
X149726191Y-124733152D01*
X149726191Y-124733152D02*
X149535715Y-124733152D01*
X149535715Y-124733152D02*
X149440477Y-124780771D01*
X149869048Y-125352200D02*
X149773810Y-125399819D01*
X149773810Y-125399819D02*
X149535715Y-125399819D01*
X149535715Y-125399819D02*
X149440477Y-125352200D01*
X149440477Y-125352200D02*
X149392858Y-125256961D01*
X149392858Y-125256961D02*
X149392858Y-125161723D01*
X149392858Y-125161723D02*
X149440477Y-125066485D01*
X149440477Y-125066485D02*
X149535715Y-125018866D01*
X149535715Y-125018866D02*
X149773810Y-125018866D01*
X149773810Y-125018866D02*
X149869048Y-124971247D01*
X151583334Y-125399819D02*
X151107144Y-125399819D01*
X151107144Y-125399819D02*
X151107144Y-124399819D01*
X152345239Y-125399819D02*
X152345239Y-124876009D01*
X152345239Y-124876009D02*
X152297620Y-124780771D01*
X152297620Y-124780771D02*
X152202382Y-124733152D01*
X152202382Y-124733152D02*
X152011906Y-124733152D01*
X152011906Y-124733152D02*
X151916668Y-124780771D01*
X152345239Y-125352200D02*
X152250001Y-125399819D01*
X152250001Y-125399819D02*
X152011906Y-125399819D01*
X152011906Y-125399819D02*
X151916668Y-125352200D01*
X151916668Y-125352200D02*
X151869049Y-125256961D01*
X151869049Y-125256961D02*
X151869049Y-125161723D01*
X151869049Y-125161723D02*
X151916668Y-125066485D01*
X151916668Y-125066485D02*
X152011906Y-125018866D01*
X152011906Y-125018866D02*
X152250001Y-125018866D01*
X152250001Y-125018866D02*
X152345239Y-124971247D01*
X152821430Y-125399819D02*
X152821430Y-124399819D01*
X152821430Y-124780771D02*
X152916668Y-124733152D01*
X152916668Y-124733152D02*
X153107144Y-124733152D01*
X153107144Y-124733152D02*
X153202382Y-124780771D01*
X153202382Y-124780771D02*
X153250001Y-124828390D01*
X153250001Y-124828390D02*
X153297620Y-124923628D01*
X153297620Y-124923628D02*
X153297620Y-125209342D01*
X153297620Y-125209342D02*
X153250001Y-125304580D01*
X153250001Y-125304580D02*
X153202382Y-125352200D01*
X153202382Y-125352200D02*
X153107144Y-125399819D01*
X153107144Y-125399819D02*
X152916668Y-125399819D01*
X152916668Y-125399819D02*
X152821430Y-125352200D01*
X153678573Y-125352200D02*
X153773811Y-125399819D01*
X153773811Y-125399819D02*
X153964287Y-125399819D01*
X153964287Y-125399819D02*
X154059525Y-125352200D01*
X154059525Y-125352200D02*
X154107144Y-125256961D01*
X154107144Y-125256961D02*
X154107144Y-125209342D01*
X154107144Y-125209342D02*
X154059525Y-125114104D01*
X154059525Y-125114104D02*
X153964287Y-125066485D01*
X153964287Y-125066485D02*
X153821430Y-125066485D01*
X153821430Y-125066485D02*
X153726192Y-125018866D01*
X153726192Y-125018866D02*
X153678573Y-124923628D01*
X153678573Y-124923628D02*
X153678573Y-124876009D01*
X153678573Y-124876009D02*
X153726192Y-124780771D01*
X153726192Y-124780771D02*
X153821430Y-124733152D01*
X153821430Y-124733152D02*
X153964287Y-124733152D01*
X153964287Y-124733152D02*
X154059525Y-124780771D01*
X121821425Y-126009819D02*
X122392853Y-126009819D01*
X122107139Y-127009819D02*
X122107139Y-126009819D01*
X122726187Y-127009819D02*
X122726187Y-126009819D01*
X123154758Y-127009819D02*
X123154758Y-126486009D01*
X123154758Y-126486009D02*
X123107139Y-126390771D01*
X123107139Y-126390771D02*
X123011901Y-126343152D01*
X123011901Y-126343152D02*
X122869044Y-126343152D01*
X122869044Y-126343152D02*
X122773806Y-126390771D01*
X122773806Y-126390771D02*
X122726187Y-126438390D01*
X124011901Y-126962200D02*
X123916663Y-127009819D01*
X123916663Y-127009819D02*
X123726187Y-127009819D01*
X123726187Y-127009819D02*
X123630949Y-126962200D01*
X123630949Y-126962200D02*
X123583330Y-126866961D01*
X123583330Y-126866961D02*
X123583330Y-126486009D01*
X123583330Y-126486009D02*
X123630949Y-126390771D01*
X123630949Y-126390771D02*
X123726187Y-126343152D01*
X123726187Y-126343152D02*
X123916663Y-126343152D01*
X123916663Y-126343152D02*
X124011901Y-126390771D01*
X124011901Y-126390771D02*
X124059520Y-126486009D01*
X124059520Y-126486009D02*
X124059520Y-126581247D01*
X124059520Y-126581247D02*
X123583330Y-126676485D01*
X125249997Y-126009819D02*
X125249997Y-126819342D01*
X125249997Y-126819342D02*
X125297616Y-126914580D01*
X125297616Y-126914580D02*
X125345235Y-126962200D01*
X125345235Y-126962200D02*
X125440473Y-127009819D01*
X125440473Y-127009819D02*
X125630949Y-127009819D01*
X125630949Y-127009819D02*
X125726187Y-126962200D01*
X125726187Y-126962200D02*
X125773806Y-126914580D01*
X125773806Y-126914580D02*
X125821425Y-126819342D01*
X125821425Y-126819342D02*
X125821425Y-126009819D01*
X126297616Y-126343152D02*
X126297616Y-127009819D01*
X126297616Y-126438390D02*
X126345235Y-126390771D01*
X126345235Y-126390771D02*
X126440473Y-126343152D01*
X126440473Y-126343152D02*
X126583330Y-126343152D01*
X126583330Y-126343152D02*
X126678568Y-126390771D01*
X126678568Y-126390771D02*
X126726187Y-126486009D01*
X126726187Y-126486009D02*
X126726187Y-127009819D01*
X127202378Y-127009819D02*
X127202378Y-126343152D01*
X127202378Y-126009819D02*
X127154759Y-126057438D01*
X127154759Y-126057438D02*
X127202378Y-126105057D01*
X127202378Y-126105057D02*
X127249997Y-126057438D01*
X127249997Y-126057438D02*
X127202378Y-126009819D01*
X127202378Y-126009819D02*
X127202378Y-126105057D01*
X127583330Y-126343152D02*
X127821425Y-127009819D01*
X127821425Y-127009819D02*
X128059520Y-126343152D01*
X128821425Y-126962200D02*
X128726187Y-127009819D01*
X128726187Y-127009819D02*
X128535711Y-127009819D01*
X128535711Y-127009819D02*
X128440473Y-126962200D01*
X128440473Y-126962200D02*
X128392854Y-126866961D01*
X128392854Y-126866961D02*
X128392854Y-126486009D01*
X128392854Y-126486009D02*
X128440473Y-126390771D01*
X128440473Y-126390771D02*
X128535711Y-126343152D01*
X128535711Y-126343152D02*
X128726187Y-126343152D01*
X128726187Y-126343152D02*
X128821425Y-126390771D01*
X128821425Y-126390771D02*
X128869044Y-126486009D01*
X128869044Y-126486009D02*
X128869044Y-126581247D01*
X128869044Y-126581247D02*
X128392854Y-126676485D01*
X129297616Y-127009819D02*
X129297616Y-126343152D01*
X129297616Y-126533628D02*
X129345235Y-126438390D01*
X129345235Y-126438390D02*
X129392854Y-126390771D01*
X129392854Y-126390771D02*
X129488092Y-126343152D01*
X129488092Y-126343152D02*
X129583330Y-126343152D01*
X129869045Y-126962200D02*
X129964283Y-127009819D01*
X129964283Y-127009819D02*
X130154759Y-127009819D01*
X130154759Y-127009819D02*
X130249997Y-126962200D01*
X130249997Y-126962200D02*
X130297616Y-126866961D01*
X130297616Y-126866961D02*
X130297616Y-126819342D01*
X130297616Y-126819342D02*
X130249997Y-126724104D01*
X130249997Y-126724104D02*
X130154759Y-126676485D01*
X130154759Y-126676485D02*
X130011902Y-126676485D01*
X130011902Y-126676485D02*
X129916664Y-126628866D01*
X129916664Y-126628866D02*
X129869045Y-126533628D01*
X129869045Y-126533628D02*
X129869045Y-126486009D01*
X129869045Y-126486009D02*
X129916664Y-126390771D01*
X129916664Y-126390771D02*
X130011902Y-126343152D01*
X130011902Y-126343152D02*
X130154759Y-126343152D01*
X130154759Y-126343152D02*
X130249997Y-126390771D01*
X130726188Y-127009819D02*
X130726188Y-126343152D01*
X130726188Y-126009819D02*
X130678569Y-126057438D01*
X130678569Y-126057438D02*
X130726188Y-126105057D01*
X130726188Y-126105057D02*
X130773807Y-126057438D01*
X130773807Y-126057438D02*
X130726188Y-126009819D01*
X130726188Y-126009819D02*
X130726188Y-126105057D01*
X131059521Y-126343152D02*
X131440473Y-126343152D01*
X131202378Y-126009819D02*
X131202378Y-126866961D01*
X131202378Y-126866961D02*
X131249997Y-126962200D01*
X131249997Y-126962200D02*
X131345235Y-127009819D01*
X131345235Y-127009819D02*
X131440473Y-127009819D01*
X131678569Y-126343152D02*
X131916664Y-127009819D01*
X132154759Y-126343152D02*
X131916664Y-127009819D01*
X131916664Y-127009819D02*
X131821426Y-127247914D01*
X131821426Y-127247914D02*
X131773807Y-127295533D01*
X131773807Y-127295533D02*
X131678569Y-127343152D01*
X133440474Y-127009819D02*
X133345236Y-126962200D01*
X133345236Y-126962200D02*
X133297617Y-126914580D01*
X133297617Y-126914580D02*
X133249998Y-126819342D01*
X133249998Y-126819342D02*
X133249998Y-126533628D01*
X133249998Y-126533628D02*
X133297617Y-126438390D01*
X133297617Y-126438390D02*
X133345236Y-126390771D01*
X133345236Y-126390771D02*
X133440474Y-126343152D01*
X133440474Y-126343152D02*
X133583331Y-126343152D01*
X133583331Y-126343152D02*
X133678569Y-126390771D01*
X133678569Y-126390771D02*
X133726188Y-126438390D01*
X133726188Y-126438390D02*
X133773807Y-126533628D01*
X133773807Y-126533628D02*
X133773807Y-126819342D01*
X133773807Y-126819342D02*
X133726188Y-126914580D01*
X133726188Y-126914580D02*
X133678569Y-126962200D01*
X133678569Y-126962200D02*
X133583331Y-127009819D01*
X133583331Y-127009819D02*
X133440474Y-127009819D01*
X134059522Y-126343152D02*
X134440474Y-126343152D01*
X134202379Y-127009819D02*
X134202379Y-126152676D01*
X134202379Y-126152676D02*
X134249998Y-126057438D01*
X134249998Y-126057438D02*
X134345236Y-126009819D01*
X134345236Y-126009819D02*
X134440474Y-126009819D01*
X135535713Y-127009819D02*
X135535713Y-126009819D01*
X135535713Y-126009819D02*
X136107141Y-127009819D01*
X136107141Y-127009819D02*
X136107141Y-126009819D01*
X136726189Y-127009819D02*
X136630951Y-126962200D01*
X136630951Y-126962200D02*
X136583332Y-126914580D01*
X136583332Y-126914580D02*
X136535713Y-126819342D01*
X136535713Y-126819342D02*
X136535713Y-126533628D01*
X136535713Y-126533628D02*
X136583332Y-126438390D01*
X136583332Y-126438390D02*
X136630951Y-126390771D01*
X136630951Y-126390771D02*
X136726189Y-126343152D01*
X136726189Y-126343152D02*
X136869046Y-126343152D01*
X136869046Y-126343152D02*
X136964284Y-126390771D01*
X136964284Y-126390771D02*
X137011903Y-126438390D01*
X137011903Y-126438390D02*
X137059522Y-126533628D01*
X137059522Y-126533628D02*
X137059522Y-126819342D01*
X137059522Y-126819342D02*
X137011903Y-126914580D01*
X137011903Y-126914580D02*
X136964284Y-126962200D01*
X136964284Y-126962200D02*
X136869046Y-127009819D01*
X136869046Y-127009819D02*
X136726189Y-127009819D01*
X137488094Y-127009819D02*
X137488094Y-126343152D01*
X137488094Y-126533628D02*
X137535713Y-126438390D01*
X137535713Y-126438390D02*
X137583332Y-126390771D01*
X137583332Y-126390771D02*
X137678570Y-126343152D01*
X137678570Y-126343152D02*
X137773808Y-126343152D01*
X137964285Y-126343152D02*
X138345237Y-126343152D01*
X138107142Y-126009819D02*
X138107142Y-126866961D01*
X138107142Y-126866961D02*
X138154761Y-126962200D01*
X138154761Y-126962200D02*
X138249999Y-127009819D01*
X138249999Y-127009819D02*
X138345237Y-127009819D01*
X138678571Y-127009819D02*
X138678571Y-126009819D01*
X139107142Y-127009819D02*
X139107142Y-126486009D01*
X139107142Y-126486009D02*
X139059523Y-126390771D01*
X139059523Y-126390771D02*
X138964285Y-126343152D01*
X138964285Y-126343152D02*
X138821428Y-126343152D01*
X138821428Y-126343152D02*
X138726190Y-126390771D01*
X138726190Y-126390771D02*
X138678571Y-126438390D01*
X140916666Y-126914580D02*
X140869047Y-126962200D01*
X140869047Y-126962200D02*
X140726190Y-127009819D01*
X140726190Y-127009819D02*
X140630952Y-127009819D01*
X140630952Y-127009819D02*
X140488095Y-126962200D01*
X140488095Y-126962200D02*
X140392857Y-126866961D01*
X140392857Y-126866961D02*
X140345238Y-126771723D01*
X140345238Y-126771723D02*
X140297619Y-126581247D01*
X140297619Y-126581247D02*
X140297619Y-126438390D01*
X140297619Y-126438390D02*
X140345238Y-126247914D01*
X140345238Y-126247914D02*
X140392857Y-126152676D01*
X140392857Y-126152676D02*
X140488095Y-126057438D01*
X140488095Y-126057438D02*
X140630952Y-126009819D01*
X140630952Y-126009819D02*
X140726190Y-126009819D01*
X140726190Y-126009819D02*
X140869047Y-126057438D01*
X140869047Y-126057438D02*
X140916666Y-126105057D01*
X141773809Y-127009819D02*
X141773809Y-126486009D01*
X141773809Y-126486009D02*
X141726190Y-126390771D01*
X141726190Y-126390771D02*
X141630952Y-126343152D01*
X141630952Y-126343152D02*
X141440476Y-126343152D01*
X141440476Y-126343152D02*
X141345238Y-126390771D01*
X141773809Y-126962200D02*
X141678571Y-127009819D01*
X141678571Y-127009819D02*
X141440476Y-127009819D01*
X141440476Y-127009819D02*
X141345238Y-126962200D01*
X141345238Y-126962200D02*
X141297619Y-126866961D01*
X141297619Y-126866961D02*
X141297619Y-126771723D01*
X141297619Y-126771723D02*
X141345238Y-126676485D01*
X141345238Y-126676485D02*
X141440476Y-126628866D01*
X141440476Y-126628866D02*
X141678571Y-126628866D01*
X141678571Y-126628866D02*
X141773809Y-126581247D01*
X142250000Y-127009819D02*
X142250000Y-126343152D01*
X142250000Y-126533628D02*
X142297619Y-126438390D01*
X142297619Y-126438390D02*
X142345238Y-126390771D01*
X142345238Y-126390771D02*
X142440476Y-126343152D01*
X142440476Y-126343152D02*
X142535714Y-126343152D01*
X143011905Y-127009819D02*
X142916667Y-126962200D01*
X142916667Y-126962200D02*
X142869048Y-126914580D01*
X142869048Y-126914580D02*
X142821429Y-126819342D01*
X142821429Y-126819342D02*
X142821429Y-126533628D01*
X142821429Y-126533628D02*
X142869048Y-126438390D01*
X142869048Y-126438390D02*
X142916667Y-126390771D01*
X142916667Y-126390771D02*
X143011905Y-126343152D01*
X143011905Y-126343152D02*
X143154762Y-126343152D01*
X143154762Y-126343152D02*
X143250000Y-126390771D01*
X143250000Y-126390771D02*
X143297619Y-126438390D01*
X143297619Y-126438390D02*
X143345238Y-126533628D01*
X143345238Y-126533628D02*
X143345238Y-126819342D01*
X143345238Y-126819342D02*
X143297619Y-126914580D01*
X143297619Y-126914580D02*
X143250000Y-126962200D01*
X143250000Y-126962200D02*
X143154762Y-127009819D01*
X143154762Y-127009819D02*
X143011905Y-127009819D01*
X143916667Y-127009819D02*
X143821429Y-126962200D01*
X143821429Y-126962200D02*
X143773810Y-126866961D01*
X143773810Y-126866961D02*
X143773810Y-126009819D01*
X144297620Y-127009819D02*
X144297620Y-126343152D01*
X144297620Y-126009819D02*
X144250001Y-126057438D01*
X144250001Y-126057438D02*
X144297620Y-126105057D01*
X144297620Y-126105057D02*
X144345239Y-126057438D01*
X144345239Y-126057438D02*
X144297620Y-126009819D01*
X144297620Y-126009819D02*
X144297620Y-126105057D01*
X144773810Y-126343152D02*
X144773810Y-127009819D01*
X144773810Y-126438390D02*
X144821429Y-126390771D01*
X144821429Y-126390771D02*
X144916667Y-126343152D01*
X144916667Y-126343152D02*
X145059524Y-126343152D01*
X145059524Y-126343152D02*
X145154762Y-126390771D01*
X145154762Y-126390771D02*
X145202381Y-126486009D01*
X145202381Y-126486009D02*
X145202381Y-127009819D01*
X146107143Y-127009819D02*
X146107143Y-126486009D01*
X146107143Y-126486009D02*
X146059524Y-126390771D01*
X146059524Y-126390771D02*
X145964286Y-126343152D01*
X145964286Y-126343152D02*
X145773810Y-126343152D01*
X145773810Y-126343152D02*
X145678572Y-126390771D01*
X146107143Y-126962200D02*
X146011905Y-127009819D01*
X146011905Y-127009819D02*
X145773810Y-127009819D01*
X145773810Y-127009819D02*
X145678572Y-126962200D01*
X145678572Y-126962200D02*
X145630953Y-126866961D01*
X145630953Y-126866961D02*
X145630953Y-126771723D01*
X145630953Y-126771723D02*
X145678572Y-126676485D01*
X145678572Y-126676485D02*
X145773810Y-126628866D01*
X145773810Y-126628866D02*
X146011905Y-126628866D01*
X146011905Y-126628866D02*
X146107143Y-126581247D01*
X147773810Y-127009819D02*
X147773810Y-126486009D01*
X147773810Y-126486009D02*
X147726191Y-126390771D01*
X147726191Y-126390771D02*
X147630953Y-126343152D01*
X147630953Y-126343152D02*
X147440477Y-126343152D01*
X147440477Y-126343152D02*
X147345239Y-126390771D01*
X147773810Y-126962200D02*
X147678572Y-127009819D01*
X147678572Y-127009819D02*
X147440477Y-127009819D01*
X147440477Y-127009819D02*
X147345239Y-126962200D01*
X147345239Y-126962200D02*
X147297620Y-126866961D01*
X147297620Y-126866961D02*
X147297620Y-126771723D01*
X147297620Y-126771723D02*
X147345239Y-126676485D01*
X147345239Y-126676485D02*
X147440477Y-126628866D01*
X147440477Y-126628866D02*
X147678572Y-126628866D01*
X147678572Y-126628866D02*
X147773810Y-126581247D01*
X148107144Y-126343152D02*
X148488096Y-126343152D01*
X148250001Y-126009819D02*
X148250001Y-126866961D01*
X148250001Y-126866961D02*
X148297620Y-126962200D01*
X148297620Y-126962200D02*
X148392858Y-127009819D01*
X148392858Y-127009819D02*
X148488096Y-127009819D01*
X150154763Y-126914580D02*
X150107144Y-126962200D01*
X150107144Y-126962200D02*
X149964287Y-127009819D01*
X149964287Y-127009819D02*
X149869049Y-127009819D01*
X149869049Y-127009819D02*
X149726192Y-126962200D01*
X149726192Y-126962200D02*
X149630954Y-126866961D01*
X149630954Y-126866961D02*
X149583335Y-126771723D01*
X149583335Y-126771723D02*
X149535716Y-126581247D01*
X149535716Y-126581247D02*
X149535716Y-126438390D01*
X149535716Y-126438390D02*
X149583335Y-126247914D01*
X149583335Y-126247914D02*
X149630954Y-126152676D01*
X149630954Y-126152676D02*
X149726192Y-126057438D01*
X149726192Y-126057438D02*
X149869049Y-126009819D01*
X149869049Y-126009819D02*
X149964287Y-126009819D01*
X149964287Y-126009819D02*
X150107144Y-126057438D01*
X150107144Y-126057438D02*
X150154763Y-126105057D01*
X150583335Y-127009819D02*
X150583335Y-126009819D01*
X151011906Y-127009819D02*
X151011906Y-126486009D01*
X151011906Y-126486009D02*
X150964287Y-126390771D01*
X150964287Y-126390771D02*
X150869049Y-126343152D01*
X150869049Y-126343152D02*
X150726192Y-126343152D01*
X150726192Y-126343152D02*
X150630954Y-126390771D01*
X150630954Y-126390771D02*
X150583335Y-126438390D01*
X151916668Y-127009819D02*
X151916668Y-126486009D01*
X151916668Y-126486009D02*
X151869049Y-126390771D01*
X151869049Y-126390771D02*
X151773811Y-126343152D01*
X151773811Y-126343152D02*
X151583335Y-126343152D01*
X151583335Y-126343152D02*
X151488097Y-126390771D01*
X151916668Y-126962200D02*
X151821430Y-127009819D01*
X151821430Y-127009819D02*
X151583335Y-127009819D01*
X151583335Y-127009819D02*
X151488097Y-126962200D01*
X151488097Y-126962200D02*
X151440478Y-126866961D01*
X151440478Y-126866961D02*
X151440478Y-126771723D01*
X151440478Y-126771723D02*
X151488097Y-126676485D01*
X151488097Y-126676485D02*
X151583335Y-126628866D01*
X151583335Y-126628866D02*
X151821430Y-126628866D01*
X151821430Y-126628866D02*
X151916668Y-126581247D01*
X152392859Y-126343152D02*
X152392859Y-127343152D01*
X152392859Y-126390771D02*
X152488097Y-126343152D01*
X152488097Y-126343152D02*
X152678573Y-126343152D01*
X152678573Y-126343152D02*
X152773811Y-126390771D01*
X152773811Y-126390771D02*
X152821430Y-126438390D01*
X152821430Y-126438390D02*
X152869049Y-126533628D01*
X152869049Y-126533628D02*
X152869049Y-126819342D01*
X152869049Y-126819342D02*
X152821430Y-126914580D01*
X152821430Y-126914580D02*
X152773811Y-126962200D01*
X152773811Y-126962200D02*
X152678573Y-127009819D01*
X152678573Y-127009819D02*
X152488097Y-127009819D01*
X152488097Y-127009819D02*
X152392859Y-126962200D01*
X153678573Y-126962200D02*
X153583335Y-127009819D01*
X153583335Y-127009819D02*
X153392859Y-127009819D01*
X153392859Y-127009819D02*
X153297621Y-126962200D01*
X153297621Y-126962200D02*
X153250002Y-126866961D01*
X153250002Y-126866961D02*
X153250002Y-126486009D01*
X153250002Y-126486009D02*
X153297621Y-126390771D01*
X153297621Y-126390771D02*
X153392859Y-126343152D01*
X153392859Y-126343152D02*
X153583335Y-126343152D01*
X153583335Y-126343152D02*
X153678573Y-126390771D01*
X153678573Y-126390771D02*
X153726192Y-126486009D01*
X153726192Y-126486009D02*
X153726192Y-126581247D01*
X153726192Y-126581247D02*
X153250002Y-126676485D01*
X154297621Y-127009819D02*
X154202383Y-126962200D01*
X154202383Y-126962200D02*
X154154764Y-126866961D01*
X154154764Y-126866961D02*
X154154764Y-126009819D01*
X155440479Y-127009819D02*
X155440479Y-126009819D01*
X155440479Y-126486009D02*
X156011907Y-126486009D01*
X156011907Y-127009819D02*
X156011907Y-126009819D01*
X156488098Y-127009819D02*
X156488098Y-126343152D01*
X156488098Y-126009819D02*
X156440479Y-126057438D01*
X156440479Y-126057438D02*
X156488098Y-126105057D01*
X156488098Y-126105057D02*
X156535717Y-126057438D01*
X156535717Y-126057438D02*
X156488098Y-126009819D01*
X156488098Y-126009819D02*
X156488098Y-126105057D01*
X157107145Y-127009819D02*
X157011907Y-126962200D01*
X157011907Y-126962200D02*
X156964288Y-126866961D01*
X156964288Y-126866961D02*
X156964288Y-126009819D01*
X157630955Y-127009819D02*
X157535717Y-126962200D01*
X157535717Y-126962200D02*
X157488098Y-126866961D01*
X157488098Y-126866961D02*
X157488098Y-126009819D01*
X134369048Y-127619819D02*
X134702381Y-128619819D01*
X134702381Y-128619819D02*
X135035714Y-127619819D01*
X135321429Y-127715057D02*
X135369048Y-127667438D01*
X135369048Y-127667438D02*
X135464286Y-127619819D01*
X135464286Y-127619819D02*
X135702381Y-127619819D01*
X135702381Y-127619819D02*
X135797619Y-127667438D01*
X135797619Y-127667438D02*
X135845238Y-127715057D01*
X135845238Y-127715057D02*
X135892857Y-127810295D01*
X135892857Y-127810295D02*
X135892857Y-127905533D01*
X135892857Y-127905533D02*
X135845238Y-128048390D01*
X135845238Y-128048390D02*
X135273810Y-128619819D01*
X135273810Y-128619819D02*
X135892857Y-128619819D01*
X136321429Y-128524580D02*
X136369048Y-128572200D01*
X136369048Y-128572200D02*
X136321429Y-128619819D01*
X136321429Y-128619819D02*
X136273810Y-128572200D01*
X136273810Y-128572200D02*
X136321429Y-128524580D01*
X136321429Y-128524580D02*
X136321429Y-128619819D01*
X136750000Y-127715057D02*
X136797619Y-127667438D01*
X136797619Y-127667438D02*
X136892857Y-127619819D01*
X136892857Y-127619819D02*
X137130952Y-127619819D01*
X137130952Y-127619819D02*
X137226190Y-127667438D01*
X137226190Y-127667438D02*
X137273809Y-127715057D01*
X137273809Y-127715057D02*
X137321428Y-127810295D01*
X137321428Y-127810295D02*
X137321428Y-127905533D01*
X137321428Y-127905533D02*
X137273809Y-128048390D01*
X137273809Y-128048390D02*
X136702381Y-128619819D01*
X136702381Y-128619819D02*
X137321428Y-128619819D01*
X138702381Y-127619819D02*
X138797619Y-127619819D01*
X138797619Y-127619819D02*
X138892857Y-127667438D01*
X138892857Y-127667438D02*
X138940476Y-127715057D01*
X138940476Y-127715057D02*
X138988095Y-127810295D01*
X138988095Y-127810295D02*
X139035714Y-128000771D01*
X139035714Y-128000771D02*
X139035714Y-128238866D01*
X139035714Y-128238866D02*
X138988095Y-128429342D01*
X138988095Y-128429342D02*
X138940476Y-128524580D01*
X138940476Y-128524580D02*
X138892857Y-128572200D01*
X138892857Y-128572200D02*
X138797619Y-128619819D01*
X138797619Y-128619819D02*
X138702381Y-128619819D01*
X138702381Y-128619819D02*
X138607143Y-128572200D01*
X138607143Y-128572200D02*
X138559524Y-128524580D01*
X138559524Y-128524580D02*
X138511905Y-128429342D01*
X138511905Y-128429342D02*
X138464286Y-128238866D01*
X138464286Y-128238866D02*
X138464286Y-128000771D01*
X138464286Y-128000771D02*
X138511905Y-127810295D01*
X138511905Y-127810295D02*
X138559524Y-127715057D01*
X138559524Y-127715057D02*
X138607143Y-127667438D01*
X138607143Y-127667438D02*
X138702381Y-127619819D01*
X139369048Y-127619819D02*
X139988095Y-127619819D01*
X139988095Y-127619819D02*
X139654762Y-128000771D01*
X139654762Y-128000771D02*
X139797619Y-128000771D01*
X139797619Y-128000771D02*
X139892857Y-128048390D01*
X139892857Y-128048390D02*
X139940476Y-128096009D01*
X139940476Y-128096009D02*
X139988095Y-128191247D01*
X139988095Y-128191247D02*
X139988095Y-128429342D01*
X139988095Y-128429342D02*
X139940476Y-128524580D01*
X139940476Y-128524580D02*
X139892857Y-128572200D01*
X139892857Y-128572200D02*
X139797619Y-128619819D01*
X139797619Y-128619819D02*
X139511905Y-128619819D01*
X139511905Y-128619819D02*
X139416667Y-128572200D01*
X139416667Y-128572200D02*
X139369048Y-128524580D01*
X140416667Y-128238866D02*
X141178572Y-128238866D01*
X141607143Y-127715057D02*
X141654762Y-127667438D01*
X141654762Y-127667438D02*
X141750000Y-127619819D01*
X141750000Y-127619819D02*
X141988095Y-127619819D01*
X141988095Y-127619819D02*
X142083333Y-127667438D01*
X142083333Y-127667438D02*
X142130952Y-127715057D01*
X142130952Y-127715057D02*
X142178571Y-127810295D01*
X142178571Y-127810295D02*
X142178571Y-127905533D01*
X142178571Y-127905533D02*
X142130952Y-128048390D01*
X142130952Y-128048390D02*
X141559524Y-128619819D01*
X141559524Y-128619819D02*
X142178571Y-128619819D01*
X142797619Y-127619819D02*
X142892857Y-127619819D01*
X142892857Y-127619819D02*
X142988095Y-127667438D01*
X142988095Y-127667438D02*
X143035714Y-127715057D01*
X143035714Y-127715057D02*
X143083333Y-127810295D01*
X143083333Y-127810295D02*
X143130952Y-128000771D01*
X143130952Y-128000771D02*
X143130952Y-128238866D01*
X143130952Y-128238866D02*
X143083333Y-128429342D01*
X143083333Y-128429342D02*
X143035714Y-128524580D01*
X143035714Y-128524580D02*
X142988095Y-128572200D01*
X142988095Y-128572200D02*
X142892857Y-128619819D01*
X142892857Y-128619819D02*
X142797619Y-128619819D01*
X142797619Y-128619819D02*
X142702381Y-128572200D01*
X142702381Y-128572200D02*
X142654762Y-128524580D01*
X142654762Y-128524580D02*
X142607143Y-128429342D01*
X142607143Y-128429342D02*
X142559524Y-128238866D01*
X142559524Y-128238866D02*
X142559524Y-128000771D01*
X142559524Y-128000771D02*
X142607143Y-127810295D01*
X142607143Y-127810295D02*
X142654762Y-127715057D01*
X142654762Y-127715057D02*
X142702381Y-127667438D01*
X142702381Y-127667438D02*
X142797619Y-127619819D01*
X143511905Y-127715057D02*
X143559524Y-127667438D01*
X143559524Y-127667438D02*
X143654762Y-127619819D01*
X143654762Y-127619819D02*
X143892857Y-127619819D01*
X143892857Y-127619819D02*
X143988095Y-127667438D01*
X143988095Y-127667438D02*
X144035714Y-127715057D01*
X144035714Y-127715057D02*
X144083333Y-127810295D01*
X144083333Y-127810295D02*
X144083333Y-127905533D01*
X144083333Y-127905533D02*
X144035714Y-128048390D01*
X144035714Y-128048390D02*
X143464286Y-128619819D01*
X143464286Y-128619819D02*
X144083333Y-128619819D01*
X144940476Y-127953152D02*
X144940476Y-128619819D01*
X144702381Y-127572200D02*
X144464286Y-128286485D01*
X144464286Y-128286485D02*
X145083333Y-128286485D01*
X127374819Y-61433333D02*
X128089104Y-61433333D01*
X128089104Y-61433333D02*
X128231961Y-61480952D01*
X128231961Y-61480952D02*
X128327200Y-61576190D01*
X128327200Y-61576190D02*
X128374819Y-61719047D01*
X128374819Y-61719047D02*
X128374819Y-61814285D01*
X127803390Y-60814285D02*
X127755771Y-60909523D01*
X127755771Y-60909523D02*
X127708152Y-60957142D01*
X127708152Y-60957142D02*
X127612914Y-61004761D01*
X127612914Y-61004761D02*
X127565295Y-61004761D01*
X127565295Y-61004761D02*
X127470057Y-60957142D01*
X127470057Y-60957142D02*
X127422438Y-60909523D01*
X127422438Y-60909523D02*
X127374819Y-60814285D01*
X127374819Y-60814285D02*
X127374819Y-60623809D01*
X127374819Y-60623809D02*
X127422438Y-60528571D01*
X127422438Y-60528571D02*
X127470057Y-60480952D01*
X127470057Y-60480952D02*
X127565295Y-60433333D01*
X127565295Y-60433333D02*
X127612914Y-60433333D01*
X127612914Y-60433333D02*
X127708152Y-60480952D01*
X127708152Y-60480952D02*
X127755771Y-60528571D01*
X127755771Y-60528571D02*
X127803390Y-60623809D01*
X127803390Y-60623809D02*
X127803390Y-60814285D01*
X127803390Y-60814285D02*
X127851009Y-60909523D01*
X127851009Y-60909523D02*
X127898628Y-60957142D01*
X127898628Y-60957142D02*
X127993866Y-61004761D01*
X127993866Y-61004761D02*
X128184342Y-61004761D01*
X128184342Y-61004761D02*
X128279580Y-60957142D01*
X128279580Y-60957142D02*
X128327200Y-60909523D01*
X128327200Y-60909523D02*
X128374819Y-60814285D01*
X128374819Y-60814285D02*
X128374819Y-60623809D01*
X128374819Y-60623809D02*
X128327200Y-60528571D01*
X128327200Y-60528571D02*
X128279580Y-60480952D01*
X128279580Y-60480952D02*
X128184342Y-60433333D01*
X128184342Y-60433333D02*
X127993866Y-60433333D01*
X127993866Y-60433333D02*
X127898628Y-60480952D01*
X127898628Y-60480952D02*
X127851009Y-60528571D01*
X127851009Y-60528571D02*
X127803390Y-60623809D01*
X118466666Y-114629819D02*
X118466666Y-115344104D01*
X118466666Y-115344104D02*
X118419047Y-115486961D01*
X118419047Y-115486961D02*
X118323809Y-115582200D01*
X118323809Y-115582200D02*
X118180952Y-115629819D01*
X118180952Y-115629819D02*
X118085714Y-115629819D01*
X118895238Y-114725057D02*
X118942857Y-114677438D01*
X118942857Y-114677438D02*
X119038095Y-114629819D01*
X119038095Y-114629819D02*
X119276190Y-114629819D01*
X119276190Y-114629819D02*
X119371428Y-114677438D01*
X119371428Y-114677438D02*
X119419047Y-114725057D01*
X119419047Y-114725057D02*
X119466666Y-114820295D01*
X119466666Y-114820295D02*
X119466666Y-114915533D01*
X119466666Y-114915533D02*
X119419047Y-115058390D01*
X119419047Y-115058390D02*
X118847619Y-115629819D01*
X118847619Y-115629819D02*
X119466666Y-115629819D01*
X113166666Y-67574819D02*
X113166666Y-68289104D01*
X113166666Y-68289104D02*
X113119047Y-68431961D01*
X113119047Y-68431961D02*
X113023809Y-68527200D01*
X113023809Y-68527200D02*
X112880952Y-68574819D01*
X112880952Y-68574819D02*
X112785714Y-68574819D01*
X114071428Y-67574819D02*
X113880952Y-67574819D01*
X113880952Y-67574819D02*
X113785714Y-67622438D01*
X113785714Y-67622438D02*
X113738095Y-67670057D01*
X113738095Y-67670057D02*
X113642857Y-67812914D01*
X113642857Y-67812914D02*
X113595238Y-68003390D01*
X113595238Y-68003390D02*
X113595238Y-68384342D01*
X113595238Y-68384342D02*
X113642857Y-68479580D01*
X113642857Y-68479580D02*
X113690476Y-68527200D01*
X113690476Y-68527200D02*
X113785714Y-68574819D01*
X113785714Y-68574819D02*
X113976190Y-68574819D01*
X113976190Y-68574819D02*
X114071428Y-68527200D01*
X114071428Y-68527200D02*
X114119047Y-68479580D01*
X114119047Y-68479580D02*
X114166666Y-68384342D01*
X114166666Y-68384342D02*
X114166666Y-68146247D01*
X114166666Y-68146247D02*
X114119047Y-68051009D01*
X114119047Y-68051009D02*
X114071428Y-68003390D01*
X114071428Y-68003390D02*
X113976190Y-67955771D01*
X113976190Y-67955771D02*
X113785714Y-67955771D01*
X113785714Y-67955771D02*
X113690476Y-68003390D01*
X113690476Y-68003390D02*
X113642857Y-68051009D01*
X113642857Y-68051009D02*
X113595238Y-68146247D01*
D11*
%TO.C,J2*%
X120130000Y-112405000D02*
X120130000Y-109805000D01*
X120130000Y-112405000D02*
X119560000Y-112405000D01*
X120130000Y-109805000D02*
X119107530Y-109805000D01*
X118800000Y-113800000D02*
X117470000Y-113800000D01*
X118492470Y-109805000D02*
X117470000Y-109805000D01*
X118040000Y-112405000D02*
X117470000Y-112405000D01*
X117470000Y-113800000D02*
X117470000Y-113040000D01*
X117470000Y-112405000D02*
X117470000Y-109805000D01*
%TD*%
M02*
