M48
; DRILL file {KiCad 7.0.7-rc1} date 2024 March 12, Tuesday 16:10:38
; FORMAT={-:-/ absolute / inch / decimal}
; #@! TF.CreationDate,2024-03-12T16:10:38-04:00
; #@! TF.GenerationSoftware,Kicad,Pcbnew,7.0.7-rc1
; #@! TF.FileFunction,Plated,1,2,PTH
FMAT,2
INCH
; #@! TA.AperFunction,Plated,PTH,ViaDrill
T1C0.0157
; #@! TA.AperFunction,Plated,PTH,ComponentDrill
T2C0.0197
; #@! TA.AperFunction,Plated,PTH,ComponentDrill
T3C0.0217
; #@! TA.AperFunction,Plated,PTH,ComponentDrill
T4C0.0689
; #@! TA.AperFunction,Plated,PTH,ComponentDrill
T5C0.1260
%
G90
G05
T1
X4.8524Y-2.6181
X5.1969Y-2.5787
X5.6201Y-2.126
X5.6693Y-2.1457
X5.7185Y-2.1654
X5.8366Y-2.1654
X5.8957Y-2.1457
X5.9449Y-2.1161
X6.4272Y-1.998
T4
X5.2657Y-4.6654
X5.4783Y-4.6654
X5.6909Y-4.6654
X5.9035Y-4.6654
X6.1161Y-4.6654
X6.3287Y-4.6654
T5
X4.813Y-1.9094
X4.813Y-4.6654
X6.7815Y-1.9094
X6.7815Y-4.6654
T2
G00X6.3287Y-1.8238
M15
G01X6.3287Y-1.7982
M16
G05
G00X6.6043Y-1.8238
M15
G01X6.6043Y-1.7982
M16
G05
T3
G00X6.374Y-1.9173
M15
G01X6.3622Y-1.9173
M16
G05
G00X6.5709Y-1.9173
M15
G01X6.5591Y-1.9173
M16
G05
T0
M30
