%TF.GenerationSoftware,KiCad,Pcbnew,7.0.7-rc1*%
%TF.CreationDate,2024-03-12T16:10:36-04:00*%
%TF.ProjectId,Static,53746174-6963-42e6-9b69-6361645f7063,rev?*%
%TF.SameCoordinates,Original*%
%TF.FileFunction,Profile,NP*%
%FSLAX46Y46*%
G04 Gerber Fmt 4.6, Leading zero omitted, Abs format (unit mm)*
G04 Created by KiCad (PCBNEW 7.0.7-rc1) date 2024-03-12 16:10:36*
%MOMM*%
%LPD*%
G01*
G04 APERTURE LIST*
%TA.AperFunction,Profile*%
%ADD10C,0.100000*%
%TD*%
%TA.AperFunction,Profile*%
%ADD11C,0.150000*%
%TD*%
G04 APERTURE END LIST*
D10*
X118250000Y-69500000D02*
X118250000Y-48500000D01*
X118250000Y-69500000D02*
X127250000Y-69500000D01*
X176250000Y-48500000D02*
X176250000Y-69500000D01*
X172250000Y-122500000D02*
G75*
G03*
X176250000Y-118500000I0J4000000D01*
G01*
X161250000Y-86500000D02*
G75*
G03*
X161250000Y-86500000I-14000000J0D01*
G01*
D11*
X145350000Y-62120000D02*
G75*
G03*
X145350000Y-62120000I-1100000J0D01*
G01*
X151350000Y-110900000D02*
G75*
G03*
X151350000Y-110900000I-1100000J0D01*
G01*
D10*
X122250000Y-44500000D02*
G75*
G03*
X118250000Y-48500000I0J-4000000D01*
G01*
D11*
X151340000Y-62110000D02*
G75*
G03*
X151340000Y-62110000I-1100000J0D01*
G01*
D10*
X167250000Y-69500000D02*
X176250000Y-69500000D01*
X122250000Y-44500000D02*
X172250000Y-44500000D01*
X167250000Y-69500000D02*
X167250000Y-99500000D01*
X172250000Y-122500000D02*
X122250000Y-122500000D01*
X176250000Y-48500000D02*
G75*
G03*
X172250000Y-44500000I-4000000J0D01*
G01*
X118250000Y-99500000D02*
X127250000Y-99500000D01*
X167250000Y-99500000D02*
X176250000Y-99500000D01*
D11*
X145360000Y-110910000D02*
G75*
G03*
X145360000Y-110910000I-1100000J0D01*
G01*
D10*
X127250000Y-99500000D02*
X127250000Y-69500000D01*
X176250000Y-99500000D02*
X176250000Y-118500000D01*
X118250000Y-118500000D02*
G75*
G03*
X122250000Y-122500000I4000000J0D01*
G01*
X118250000Y-118500000D02*
X118250000Y-99500000D01*
M02*
